<?xml version="1.0" encoding="utf-8" standalone="no"?>
<!DOCTYPE svg PUBLIC "-//W3C//DTD SVG 1.1//EN"
  "http://www.w3.org/Graphics/SVG/1.1/DTD/svg11.dtd">
<!-- Created with matplotlib (http://matplotlib.org/) -->
<svg height="720pt" version="1.1" viewBox="0 0 720 720" width="720pt" xmlns="http://www.w3.org/2000/svg" xmlns:xlink="http://www.w3.org/1999/xlink">
 <defs>
  <style type="text/css">
*{stroke-linecap:butt;stroke-linejoin:round;}
  </style>
 </defs>
 <g id="figure_1">
  <g id="patch_1">
   <path d="M 0 720 
L 720 720 
L 720 0 
L 0 0 
z
" style="fill:#ffffff;"/>
  </g>
  <g id="axes_1">
   <g id="patch_2">
    <path d="M 90 640.8 
L 648 640.8 
L 648 86.4 
L 90 86.4 
z
" style="fill:#ffffff;"/>
   </g>
   <g id="matplotlib.axis_1">
    <g id="xtick_1">
     <g id="line2d_1"/>
     <g id="text_1">
      <!-- individual freedom -->
      <defs>
       <path d="M 9.421875 54.6875 
L 18.40625 54.6875 
L 18.40625 0 
L 9.421875 0 
z
M 9.421875 75.984375 
L 18.40625 75.984375 
L 18.40625 64.59375 
L 9.421875 64.59375 
z
" id="DejaVuSans-69"/>
       <path d="M 54.890625 33.015625 
L 54.890625 0 
L 45.90625 0 
L 45.90625 32.71875 
Q 45.90625 40.484375 42.875 44.328125 
Q 39.84375 48.1875 33.796875 48.1875 
Q 26.515625 48.1875 22.3125 43.546875 
Q 18.109375 38.921875 18.109375 30.90625 
L 18.109375 0 
L 9.078125 0 
L 9.078125 54.6875 
L 18.109375 54.6875 
L 18.109375 46.1875 
Q 21.34375 51.125 25.703125 53.5625 
Q 30.078125 56 35.796875 56 
Q 45.21875 56 50.046875 50.171875 
Q 54.890625 44.34375 54.890625 33.015625 
z
" id="DejaVuSans-6e"/>
       <path d="M 45.40625 46.390625 
L 45.40625 75.984375 
L 54.390625 75.984375 
L 54.390625 0 
L 45.40625 0 
L 45.40625 8.203125 
Q 42.578125 3.328125 38.25 0.953125 
Q 33.9375 -1.421875 27.875 -1.421875 
Q 17.96875 -1.421875 11.734375 6.484375 
Q 5.515625 14.40625 5.515625 27.296875 
Q 5.515625 40.1875 11.734375 48.09375 
Q 17.96875 56 27.875 56 
Q 33.9375 56 38.25 53.625 
Q 42.578125 51.265625 45.40625 46.390625 
z
M 14.796875 27.296875 
Q 14.796875 17.390625 18.875 11.75 
Q 22.953125 6.109375 30.078125 6.109375 
Q 37.203125 6.109375 41.296875 11.75 
Q 45.40625 17.390625 45.40625 27.296875 
Q 45.40625 37.203125 41.296875 42.84375 
Q 37.203125 48.484375 30.078125 48.484375 
Q 22.953125 48.484375 18.875 42.84375 
Q 14.796875 37.203125 14.796875 27.296875 
z
" id="DejaVuSans-64"/>
       <path d="M 2.984375 54.6875 
L 12.5 54.6875 
L 29.59375 8.796875 
L 46.6875 54.6875 
L 56.203125 54.6875 
L 35.6875 0 
L 23.484375 0 
z
" id="DejaVuSans-76"/>
       <path d="M 8.5 21.578125 
L 8.5 54.6875 
L 17.484375 54.6875 
L 17.484375 21.921875 
Q 17.484375 14.15625 20.5 10.265625 
Q 23.53125 6.390625 29.59375 6.390625 
Q 36.859375 6.390625 41.078125 11.03125 
Q 45.3125 15.671875 45.3125 23.6875 
L 45.3125 54.6875 
L 54.296875 54.6875 
L 54.296875 0 
L 45.3125 0 
L 45.3125 8.40625 
Q 42.046875 3.421875 37.71875 1 
Q 33.40625 -1.421875 27.6875 -1.421875 
Q 18.265625 -1.421875 13.375 4.4375 
Q 8.5 10.296875 8.5 21.578125 
z
M 31.109375 56 
z
" id="DejaVuSans-75"/>
       <path d="M 34.28125 27.484375 
Q 23.390625 27.484375 19.1875 25 
Q 14.984375 22.515625 14.984375 16.5 
Q 14.984375 11.71875 18.140625 8.90625 
Q 21.296875 6.109375 26.703125 6.109375 
Q 34.1875 6.109375 38.703125 11.40625 
Q 43.21875 16.703125 43.21875 25.484375 
L 43.21875 27.484375 
z
M 52.203125 31.203125 
L 52.203125 0 
L 43.21875 0 
L 43.21875 8.296875 
Q 40.140625 3.328125 35.546875 0.953125 
Q 30.953125 -1.421875 24.3125 -1.421875 
Q 15.921875 -1.421875 10.953125 3.296875 
Q 6 8.015625 6 15.921875 
Q 6 25.140625 12.171875 29.828125 
Q 18.359375 34.515625 30.609375 34.515625 
L 43.21875 34.515625 
L 43.21875 35.40625 
Q 43.21875 41.609375 39.140625 45 
Q 35.0625 48.390625 27.6875 48.390625 
Q 23 48.390625 18.546875 47.265625 
Q 14.109375 46.140625 10.015625 43.890625 
L 10.015625 52.203125 
Q 14.9375 54.109375 19.578125 55.046875 
Q 24.21875 56 28.609375 56 
Q 40.484375 56 46.34375 49.84375 
Q 52.203125 43.703125 52.203125 31.203125 
z
" id="DejaVuSans-61"/>
       <path d="M 9.421875 75.984375 
L 18.40625 75.984375 
L 18.40625 0 
L 9.421875 0 
z
" id="DejaVuSans-6c"/>
       <path id="DejaVuSans-20"/>
       <path d="M 37.109375 75.984375 
L 37.109375 68.5 
L 28.515625 68.5 
Q 23.6875 68.5 21.796875 66.546875 
Q 19.921875 64.59375 19.921875 59.515625 
L 19.921875 54.6875 
L 34.71875 54.6875 
L 34.71875 47.703125 
L 19.921875 47.703125 
L 19.921875 0 
L 10.890625 0 
L 10.890625 47.703125 
L 2.296875 47.703125 
L 2.296875 54.6875 
L 10.890625 54.6875 
L 10.890625 58.5 
Q 10.890625 67.625 15.140625 71.796875 
Q 19.390625 75.984375 28.609375 75.984375 
z
" id="DejaVuSans-66"/>
       <path d="M 41.109375 46.296875 
Q 39.59375 47.171875 37.8125 47.578125 
Q 36.03125 48 33.890625 48 
Q 26.265625 48 22.1875 43.046875 
Q 18.109375 38.09375 18.109375 28.8125 
L 18.109375 0 
L 9.078125 0 
L 9.078125 54.6875 
L 18.109375 54.6875 
L 18.109375 46.1875 
Q 20.953125 51.171875 25.484375 53.578125 
Q 30.03125 56 36.53125 56 
Q 37.453125 56 38.578125 55.875 
Q 39.703125 55.765625 41.0625 55.515625 
z
" id="DejaVuSans-72"/>
       <path d="M 56.203125 29.59375 
L 56.203125 25.203125 
L 14.890625 25.203125 
Q 15.484375 15.921875 20.484375 11.0625 
Q 25.484375 6.203125 34.421875 6.203125 
Q 39.59375 6.203125 44.453125 7.46875 
Q 49.3125 8.734375 54.109375 11.28125 
L 54.109375 2.78125 
Q 49.265625 0.734375 44.1875 -0.34375 
Q 39.109375 -1.421875 33.890625 -1.421875 
Q 20.796875 -1.421875 13.15625 6.1875 
Q 5.515625 13.8125 5.515625 26.8125 
Q 5.515625 40.234375 12.765625 48.109375 
Q 20.015625 56 32.328125 56 
Q 43.359375 56 49.78125 48.890625 
Q 56.203125 41.796875 56.203125 29.59375 
z
M 47.21875 32.234375 
Q 47.125 39.59375 43.09375 43.984375 
Q 39.0625 48.390625 32.421875 48.390625 
Q 24.90625 48.390625 20.390625 44.140625 
Q 15.875 39.890625 15.1875 32.171875 
z
" id="DejaVuSans-65"/>
       <path d="M 30.609375 48.390625 
Q 23.390625 48.390625 19.1875 42.75 
Q 14.984375 37.109375 14.984375 27.296875 
Q 14.984375 17.484375 19.15625 11.84375 
Q 23.34375 6.203125 30.609375 6.203125 
Q 37.796875 6.203125 41.984375 11.859375 
Q 46.1875 17.53125 46.1875 27.296875 
Q 46.1875 37.015625 41.984375 42.703125 
Q 37.796875 48.390625 30.609375 48.390625 
z
M 30.609375 56 
Q 42.328125 56 49.015625 48.375 
Q 55.71875 40.765625 55.71875 27.296875 
Q 55.71875 13.875 49.015625 6.21875 
Q 42.328125 -1.421875 30.609375 -1.421875 
Q 18.84375 -1.421875 12.171875 6.21875 
Q 5.515625 13.875 5.515625 27.296875 
Q 5.515625 40.765625 12.171875 48.375 
Q 18.84375 56 30.609375 56 
z
" id="DejaVuSans-6f"/>
       <path d="M 52 44.1875 
Q 55.375 50.25 60.0625 53.125 
Q 64.75 56 71.09375 56 
Q 79.640625 56 84.28125 50.015625 
Q 88.921875 44.046875 88.921875 33.015625 
L 88.921875 0 
L 79.890625 0 
L 79.890625 32.71875 
Q 79.890625 40.578125 77.09375 44.375 
Q 74.3125 48.1875 68.609375 48.1875 
Q 61.625 48.1875 57.5625 43.546875 
Q 53.515625 38.921875 53.515625 30.90625 
L 53.515625 0 
L 44.484375 0 
L 44.484375 32.71875 
Q 44.484375 40.625 41.703125 44.40625 
Q 38.921875 48.1875 33.109375 48.1875 
Q 26.21875 48.1875 22.15625 43.53125 
Q 18.109375 38.875 18.109375 30.90625 
L 18.109375 0 
L 9.078125 0 
L 9.078125 54.6875 
L 18.109375 54.6875 
L 18.109375 46.1875 
Q 21.1875 51.21875 25.484375 53.609375 
Q 29.78125 56 35.6875 56 
Q 41.65625 56 45.828125 52.96875 
Q 50 49.953125 52 44.1875 
z
" id="DejaVuSans-6d"/>
      </defs>
      <g style="fill:#404040;" transform="translate(163.803906 660.677812)scale(0.14 -0.14)">
       <use xlink:href="#DejaVuSans-69"/>
       <use x="27.783203" xlink:href="#DejaVuSans-6e"/>
       <use x="91.162109" xlink:href="#DejaVuSans-64"/>
       <use x="154.638672" xlink:href="#DejaVuSans-69"/>
       <use x="182.421875" xlink:href="#DejaVuSans-76"/>
       <use x="241.601562" xlink:href="#DejaVuSans-69"/>
       <use x="269.384766" xlink:href="#DejaVuSans-64"/>
       <use x="332.861328" xlink:href="#DejaVuSans-75"/>
       <use x="396.240234" xlink:href="#DejaVuSans-61"/>
       <use x="457.519531" xlink:href="#DejaVuSans-6c"/>
       <use x="485.302734" xlink:href="#DejaVuSans-20"/>
       <use x="517.089844" xlink:href="#DejaVuSans-66"/>
       <use x="552.294922" xlink:href="#DejaVuSans-72"/>
       <use x="593.376953" xlink:href="#DejaVuSans-65"/>
       <use x="654.900391" xlink:href="#DejaVuSans-65"/>
       <use x="716.423828" xlink:href="#DejaVuSans-64"/>
       <use x="779.900391" xlink:href="#DejaVuSans-6f"/>
       <use x="841.082031" xlink:href="#DejaVuSans-6d"/>
      </g>
     </g>
    </g>
    <g id="xtick_2">
     <g id="line2d_2"/>
     <g id="text_2">
      <!-- associational freedom -->
      <defs>
       <path d="M 44.28125 53.078125 
L 44.28125 44.578125 
Q 40.484375 46.53125 36.375 47.5 
Q 32.28125 48.484375 27.875 48.484375 
Q 21.1875 48.484375 17.84375 46.4375 
Q 14.5 44.390625 14.5 40.28125 
Q 14.5 37.15625 16.890625 35.375 
Q 19.28125 33.59375 26.515625 31.984375 
L 29.59375 31.296875 
Q 39.15625 29.25 43.1875 25.515625 
Q 47.21875 21.78125 47.21875 15.09375 
Q 47.21875 7.46875 41.1875 3.015625 
Q 35.15625 -1.421875 24.609375 -1.421875 
Q 20.21875 -1.421875 15.453125 -0.5625 
Q 10.6875 0.296875 5.421875 2 
L 5.421875 11.28125 
Q 10.40625 8.6875 15.234375 7.390625 
Q 20.0625 6.109375 24.8125 6.109375 
Q 31.15625 6.109375 34.5625 8.28125 
Q 37.984375 10.453125 37.984375 14.40625 
Q 37.984375 18.0625 35.515625 20.015625 
Q 33.0625 21.96875 24.703125 23.78125 
L 21.578125 24.515625 
Q 13.234375 26.265625 9.515625 29.90625 
Q 5.8125 33.546875 5.8125 39.890625 
Q 5.8125 47.609375 11.28125 51.796875 
Q 16.75 56 26.8125 56 
Q 31.78125 56 36.171875 55.265625 
Q 40.578125 54.546875 44.28125 53.078125 
z
" id="DejaVuSans-73"/>
       <path d="M 48.78125 52.59375 
L 48.78125 44.1875 
Q 44.96875 46.296875 41.140625 47.34375 
Q 37.3125 48.390625 33.40625 48.390625 
Q 24.65625 48.390625 19.8125 42.84375 
Q 14.984375 37.3125 14.984375 27.296875 
Q 14.984375 17.28125 19.8125 11.734375 
Q 24.65625 6.203125 33.40625 6.203125 
Q 37.3125 6.203125 41.140625 7.25 
Q 44.96875 8.296875 48.78125 10.40625 
L 48.78125 2.09375 
Q 45.015625 0.34375 40.984375 -0.53125 
Q 36.96875 -1.421875 32.421875 -1.421875 
Q 20.0625 -1.421875 12.78125 6.34375 
Q 5.515625 14.109375 5.515625 27.296875 
Q 5.515625 40.671875 12.859375 48.328125 
Q 20.21875 56 33.015625 56 
Q 37.15625 56 41.109375 55.140625 
Q 45.0625 54.296875 48.78125 52.59375 
z
" id="DejaVuSans-63"/>
       <path d="M 18.3125 70.21875 
L 18.3125 54.6875 
L 36.8125 54.6875 
L 36.8125 47.703125 
L 18.3125 47.703125 
L 18.3125 18.015625 
Q 18.3125 11.328125 20.140625 9.421875 
Q 21.96875 7.515625 27.59375 7.515625 
L 36.8125 7.515625 
L 36.8125 0 
L 27.59375 0 
Q 17.1875 0 13.234375 3.875 
Q 9.28125 7.765625 9.28125 18.015625 
L 9.28125 47.703125 
L 2.6875 47.703125 
L 2.6875 54.6875 
L 9.28125 54.6875 
L 9.28125 70.21875 
z
" id="DejaVuSans-74"/>
      </defs>
      <g style="fill:#404040;" transform="translate(431.183906 660.677812)scale(0.14 -0.14)">
       <use xlink:href="#DejaVuSans-61"/>
       <use x="61.279297" xlink:href="#DejaVuSans-73"/>
       <use x="113.378906" xlink:href="#DejaVuSans-73"/>
       <use x="165.478516" xlink:href="#DejaVuSans-6f"/>
       <use x="226.660156" xlink:href="#DejaVuSans-63"/>
       <use x="281.640625" xlink:href="#DejaVuSans-69"/>
       <use x="309.423828" xlink:href="#DejaVuSans-61"/>
       <use x="370.703125" xlink:href="#DejaVuSans-74"/>
       <use x="409.912109" xlink:href="#DejaVuSans-69"/>
       <use x="437.695312" xlink:href="#DejaVuSans-6f"/>
       <use x="498.876953" xlink:href="#DejaVuSans-6e"/>
       <use x="562.255859" xlink:href="#DejaVuSans-61"/>
       <use x="623.535156" xlink:href="#DejaVuSans-6c"/>
       <use x="651.318359" xlink:href="#DejaVuSans-20"/>
       <use x="683.105469" xlink:href="#DejaVuSans-66"/>
       <use x="718.310547" xlink:href="#DejaVuSans-72"/>
       <use x="759.392578" xlink:href="#DejaVuSans-65"/>
       <use x="820.916016" xlink:href="#DejaVuSans-65"/>
       <use x="882.439453" xlink:href="#DejaVuSans-64"/>
       <use x="945.916016" xlink:href="#DejaVuSans-6f"/>
       <use x="1007.097656" xlink:href="#DejaVuSans-6d"/>
      </g>
     </g>
    </g>
   </g>
   <g id="matplotlib.axis_2">
    <g id="ytick_1">
     <g id="line2d_3"/>
     <g id="text_3">
      <!-- 0 -->
      <defs>
       <path d="M 31.78125 66.40625 
Q 24.171875 66.40625 20.328125 58.90625 
Q 16.5 51.421875 16.5 36.375 
Q 16.5 21.390625 20.328125 13.890625 
Q 24.171875 6.390625 31.78125 6.390625 
Q 39.453125 6.390625 43.28125 13.890625 
Q 47.125 21.390625 47.125 36.375 
Q 47.125 51.421875 43.28125 58.90625 
Q 39.453125 66.40625 31.78125 66.40625 
z
M 31.78125 74.21875 
Q 44.046875 74.21875 50.515625 64.515625 
Q 56.984375 54.828125 56.984375 36.375 
Q 56.984375 17.96875 50.515625 8.265625 
Q 44.046875 -1.421875 31.78125 -1.421875 
Q 19.53125 -1.421875 13.0625 8.265625 
Q 6.59375 17.96875 6.59375 36.375 
Q 6.59375 54.828125 13.0625 64.515625 
Q 19.53125 74.21875 31.78125 74.21875 
z
" id="DejaVuSans-30"/>
      </defs>
      <g style="fill:#404040;" transform="translate(71.8525 620.918906)scale(0.14 -0.14)">
       <use xlink:href="#DejaVuSans-30"/>
      </g>
     </g>
    </g>
    <g id="ytick_2">
     <g id="line2d_4"/>
     <g id="text_4">
      <!-- 10 -->
      <defs>
       <path d="M 12.40625 8.296875 
L 28.515625 8.296875 
L 28.515625 63.921875 
L 10.984375 60.40625 
L 10.984375 69.390625 
L 28.421875 72.90625 
L 38.28125 72.90625 
L 38.28125 8.296875 
L 54.390625 8.296875 
L 54.390625 0 
L 12.40625 0 
z
" id="DejaVuSans-31"/>
      </defs>
      <g style="fill:#404040;" transform="translate(62.945 305.918906)scale(0.14 -0.14)">
       <use xlink:href="#DejaVuSans-31"/>
       <use x="63.623047" xlink:href="#DejaVuSans-30"/>
      </g>
     </g>
    </g>
   </g>
   <g id="line2d_5">
    <path clip-path="url(#p5ec789d038)" d="M 208.575 363.6 
L 250.425 363.6 
L 250.425 190.35 
L 208.575 190.35 
L 208.575 363.6 
" style="fill:none;stroke:#000000;stroke-linecap:square;stroke-width:1.75;"/>
   </g>
   <g id="line2d_6">
    <path clip-path="url(#p5ec789d038)" d="M 229.5 363.6 
L 229.5 521.1 
" style="fill:none;stroke:#000000;stroke-linecap:square;stroke-width:1.75;"/>
   </g>
   <g id="line2d_7">
    <path clip-path="url(#p5ec789d038)" d="M 229.5 190.35 
L 229.5 111.6 
" style="fill:none;stroke:#000000;stroke-linecap:square;stroke-width:1.75;"/>
   </g>
   <g id="line2d_8">
    <path clip-path="url(#p5ec789d038)" d="M 219.0375 521.1 
L 239.9625 521.1 
" style="fill:none;stroke:#000000;stroke-linecap:square;stroke-width:1.75;"/>
   </g>
   <g id="line2d_9">
    <path clip-path="url(#p5ec789d038)" d="M 219.0375 111.6 
L 239.9625 111.6 
" style="fill:none;stroke:#000000;stroke-linecap:square;stroke-width:1.75;"/>
   </g>
   <g id="line2d_10"/>
   <g id="line2d_11">
    <path clip-path="url(#p5ec789d038)" d="M 487.575 395.1 
L 529.425 395.1 
L 529.425 237.6 
L 487.575 237.6 
L 487.575 395.1 
" style="fill:none;stroke:#000000;stroke-linecap:square;stroke-width:1.75;"/>
   </g>
   <g id="line2d_12">
    <path clip-path="url(#p5ec789d038)" d="M 508.5 395.1 
L 508.5 615.6 
" style="fill:none;stroke:#000000;stroke-linecap:square;stroke-width:1.75;"/>
   </g>
   <g id="line2d_13">
    <path clip-path="url(#p5ec789d038)" d="M 508.5 237.6 
L 508.5 237.6 
" style="fill:none;stroke:#000000;stroke-linecap:square;stroke-width:1.75;"/>
   </g>
   <g id="line2d_14">
    <path clip-path="url(#p5ec789d038)" d="M 498.0375 615.6 
L 518.9625 615.6 
" style="fill:none;stroke:#000000;stroke-linecap:square;stroke-width:1.75;"/>
   </g>
   <g id="line2d_15">
    <path clip-path="url(#p5ec789d038)" d="M 498.0375 237.6 
L 518.9625 237.6 
" style="fill:none;stroke:#000000;stroke-linecap:square;stroke-width:1.75;"/>
   </g>
   <g id="line2d_16"/>
   <g id="line2d_17">
    <path clip-path="url(#p5ec789d038)" d="M 208.575 300.6 
L 250.425 300.6 
" style="fill:none;stroke:#000000;stroke-linecap:square;stroke-width:1.75;"/>
   </g>
   <g id="line2d_18">
    <path clip-path="url(#p5ec789d038)" d="M 487.575 363.6 
L 529.425 363.6 
" style="fill:none;stroke:#000000;stroke-linecap:square;stroke-width:1.75;"/>
   </g>
   <g id="patch_3">
    <path d="M 90 640.8 
L 90 86.4 
" style="fill:none;stroke:#1a1a1a;stroke-linecap:square;stroke-linejoin:miter;stroke-opacity:0.2;stroke-width:0.8;"/>
   </g>
   <g id="patch_4">
    <path d="M 90 640.8 
L 648 640.8 
" style="fill:none;stroke:#1a1a1a;stroke-linecap:square;stroke-linejoin:miter;stroke-opacity:0.2;stroke-width:0.8;"/>
   </g>
   <g id="text_5">
    <!-- Freedoms -->
    <defs>
     <path d="M 52.84375 71.65625 
L 52.84375 63.75 
L 18.453125 63.75 
L 18.453125 38.703125 
L 47.84375 38.703125 
L 47.84375 30.796875 
L 18.453125 30.796875 
L 18.453125 0 
L 8.703125 0 
L 8.703125 71.65625 
z
" id="Lato-Regular-46"/>
     <path d="M 7.296875 0 
L 7.296875 50.65625 
L 12.40625 50.65625 
Q 13.84375 50.65625 14.390625 50.09375 
Q 14.953125 49.546875 15.15625 48.203125 
L 15.75 40.296875 
Q 18.34375 45.59375 22.171875 48.5625 
Q 26 51.546875 31.15625 51.546875 
Q 33.25 51.546875 34.953125 51.0625 
Q 36.65625 50.59375 38.09375 49.75 
L 36.953125 43.09375 
Q 36.59375 41.84375 35.40625 41.84375 
Q 34.703125 41.84375 33.25 42.3125 
Q 31.796875 42.796875 29.203125 42.796875 
Q 24.546875 42.796875 21.421875 40.09375 
Q 18.296875 37.40625 16.203125 32.25 
L 16.203125 0 
z
" id="Lato-Regular-72"/>
     <path d="M 27.34375 51.453125 
Q 31.90625 51.453125 35.75 49.921875 
Q 39.59375 48.40625 42.390625 45.53125 
Q 45.203125 42.65625 46.765625 38.421875 
Q 48.34375 34.203125 48.34375 28.796875 
Q 48.34375 26.703125 47.890625 26 
Q 47.453125 25.296875 46.203125 25.296875 
L 12.5 25.296875 
Q 12.59375 20.5 13.796875 16.953125 
Q 15 13.40625 17.09375 11.03125 
Q 19.203125 8.65625 22.09375 7.46875 
Q 25 6.296875 28.59375 6.296875 
Q 31.953125 6.296875 34.375 7.0625 
Q 36.796875 7.84375 38.546875 8.75 
Q 40.296875 9.65625 41.46875 10.421875 
Q 42.65625 11.203125 43.5 11.203125 
Q 44.59375 11.203125 45.203125 10.34375 
L 47.703125 7.09375 
Q 46.046875 5.09375 43.75 3.625 
Q 41.453125 2.15625 38.828125 1.203125 
Q 36.203125 0.25 33.390625 -0.21875 
Q 30.59375 -0.703125 27.84375 -0.703125 
Q 22.59375 -0.703125 18.171875 1.0625 
Q 13.75 2.84375 10.515625 6.265625 
Q 7.296875 9.703125 5.5 14.75 
Q 3.703125 19.796875 3.703125 26.34375 
Q 3.703125 31.65625 5.328125 36.25 
Q 6.953125 40.84375 10 44.21875 
Q 13.046875 47.59375 17.4375 49.515625 
Q 21.84375 51.453125 27.34375 51.453125 
z
M 27.546875 44.90625 
Q 21.09375 44.90625 17.390625 41.171875 
Q 13.703125 37.453125 12.796875 30.84375 
L 40.34375 30.84375 
Q 40.34375 33.953125 39.5 36.515625 
Q 38.65625 39.09375 37 40.96875 
Q 35.34375 42.84375 32.96875 43.875 
Q 30.59375 44.90625 27.546875 44.90625 
z
" id="Lato-Regular-65"/>
     <path d="M 42.953125 0 
Q 41.046875 0 40.546875 1.84375 
L 39.75 8 
Q 36.5 4.046875 32.328125 1.671875 
Q 28.15625 -0.703125 22.75 -0.703125 
Q 18.40625 -0.703125 14.84375 0.96875 
Q 11.296875 2.65625 8.796875 5.90625 
Q 6.296875 9.15625 4.9375 14 
Q 3.59375 18.84375 3.59375 25.15625 
Q 3.59375 30.75 5.09375 35.578125 
Q 6.59375 40.40625 9.421875 43.953125 
Q 12.25 47.5 16.296875 49.515625 
Q 20.34375 51.546875 25.5 51.546875 
Q 30.15625 51.546875 33.453125 49.96875 
Q 36.75 48.40625 39.34375 45.546875 
L 39.34375 73.65625 
L 48.25 73.65625 
L 48.25 0 
z
M 25.703125 6.5 
Q 30.046875 6.5 33.3125 8.5 
Q 36.59375 10.5 39.34375 14.15625 
L 39.34375 38.65625 
Q 36.90625 41.953125 33.96875 43.265625 
Q 31.046875 44.59375 27.5 44.59375 
Q 20.40625 44.59375 16.59375 39.546875 
Q 12.796875 34.5 12.796875 25.15625 
Q 12.796875 20.203125 13.640625 16.671875 
Q 14.5 13.15625 16.140625 10.875 
Q 17.796875 8.59375 20.1875 7.546875 
Q 22.59375 6.5 25.703125 6.5 
z
" id="Lato-Regular-64"/>
     <path d="M 27.796875 51.453125 
Q 33.34375 51.453125 37.8125 49.59375 
Q 42.296875 47.75 45.421875 44.34375 
Q 48.546875 40.953125 50.21875 36.125 
Q 51.90625 31.296875 51.90625 25.34375 
Q 51.90625 19.34375 50.21875 14.546875 
Q 48.546875 9.75 45.421875 6.34375 
Q 42.296875 2.953125 37.8125 1.125 
Q 33.34375 -0.703125 27.796875 -0.703125 
Q 22.25 -0.703125 17.765625 1.125 
Q 13.296875 2.953125 10.140625 6.34375 
Q 7 9.75 5.296875 14.546875 
Q 3.59375 19.34375 3.59375 25.34375 
Q 3.59375 31.296875 5.296875 36.125 
Q 7 40.953125 10.140625 44.34375 
Q 13.296875 47.75 17.765625 49.59375 
Q 22.25 51.453125 27.796875 51.453125 
z
M 27.796875 6.25 
Q 35.296875 6.25 39 11.265625 
Q 42.703125 16.296875 42.703125 25.296875 
Q 42.703125 34.34375 39 39.390625 
Q 35.296875 44.453125 27.796875 44.453125 
Q 24 44.453125 21.203125 43.140625 
Q 18.40625 41.84375 16.53125 39.390625 
Q 14.65625 36.953125 13.71875 33.375 
Q 12.796875 29.796875 12.796875 25.296875 
Q 12.796875 20.796875 13.71875 17.25 
Q 14.65625 13.703125 16.53125 11.265625 
Q 18.40625 8.84375 21.203125 7.546875 
Q 24 6.25 27.796875 6.25 
z
" id="Lato-Regular-6f"/>
     <path d="M 7.296875 0 
L 7.296875 50.65625 
L 12.59375 50.65625 
Q 14.5 50.65625 15 48.796875 
L 15.65625 43.59375 
Q 18.453125 47.046875 21.921875 49.25 
Q 25.40625 51.453125 30 51.453125 
Q 35.15625 51.453125 38.328125 48.59375 
Q 41.5 45.75 42.90625 40.90625 
Q 43.953125 43.65625 45.671875 45.65625 
Q 47.40625 47.65625 49.546875 48.953125 
Q 51.703125 50.25 54.125 50.84375 
Q 56.546875 51.453125 59.046875 51.453125 
Q 63.046875 51.453125 66.171875 50.171875 
Q 69.296875 48.90625 71.46875 46.453125 
Q 73.65625 44 74.796875 40.421875 
Q 75.953125 36.84375 75.953125 32.25 
L 75.953125 0 
L 67.046875 0 
L 67.046875 32.25 
Q 67.046875 38.203125 64.4375 41.265625 
Q 61.84375 44.34375 56.90625 44.34375 
Q 54.703125 44.34375 52.71875 43.5625 
Q 50.75 42.796875 49.25 41.296875 
Q 47.75 39.796875 46.875 37.515625 
Q 46 35.25 46 32.25 
L 46 0 
L 37.09375 0 
L 37.09375 32.25 
Q 37.09375 38.34375 34.640625 41.34375 
Q 32.203125 44.34375 27.5 44.34375 
Q 24.203125 44.34375 21.375 42.5625 
Q 18.546875 40.796875 16.203125 37.75 
L 16.203125 0 
z
" id="Lato-Regular-6d"/>
     <path d="M 36.296875 42.296875 
Q 35.703125 41.203125 34.453125 41.203125 
Q 33.703125 41.203125 32.75 41.75 
Q 31.796875 42.296875 30.421875 42.96875 
Q 29.046875 43.65625 27.140625 44.21875 
Q 25.25 44.796875 22.65625 44.796875 
Q 20.40625 44.796875 18.59375 44.21875 
Q 16.796875 43.65625 15.515625 42.65625 
Q 14.25 41.65625 13.578125 40.328125 
Q 12.90625 39 12.90625 37.453125 
Q 12.90625 35.5 14.03125 34.203125 
Q 15.15625 32.90625 17 31.953125 
Q 18.84375 31 21.1875 30.265625 
Q 23.546875 29.546875 26.015625 28.71875 
Q 28.5 27.90625 30.84375 26.90625 
Q 33.203125 25.90625 35.046875 24.40625 
Q 36.90625 22.90625 38.03125 20.71875 
Q 39.15625 18.546875 39.15625 15.5 
Q 39.15625 12 37.90625 9.015625 
Q 36.65625 6.046875 34.203125 3.875 
Q 31.75 1.703125 28.203125 0.453125 
Q 24.65625 -0.796875 20 -0.796875 
Q 14.703125 -0.796875 10.390625 0.921875 
Q 6.09375 2.65625 3.09375 5.34375 
L 5.203125 8.75 
Q 5.59375 9.40625 6.140625 9.75 
Q 6.703125 10.09375 7.59375 10.09375 
Q 8.5 10.09375 9.5 9.390625 
Q 10.5 8.703125 11.921875 7.84375 
Q 13.34375 7 15.375 6.296875 
Q 17.40625 5.59375 20.453125 5.59375 
Q 23.046875 5.59375 25 6.265625 
Q 26.953125 6.953125 28.25 8.09375 
Q 29.546875 9.25 30.171875 10.75 
Q 30.796875 12.25 30.796875 13.953125 
Q 30.796875 16.046875 29.671875 17.421875 
Q 28.546875 18.796875 26.6875 19.765625 
Q 24.84375 20.75 22.46875 21.46875 
Q 20.09375 22.203125 17.625 23 
Q 15.15625 23.796875 12.78125 24.8125 
Q 10.40625 25.84375 8.546875 27.390625 
Q 6.703125 28.953125 5.578125 31.21875 
Q 4.453125 33.5 4.453125 36.75 
Q 4.453125 39.65625 5.640625 42.328125 
Q 6.84375 45 9.140625 47.015625 
Q 11.453125 49.046875 14.796875 50.25 
Q 18.15625 51.453125 22.453125 51.453125 
Q 27.453125 51.453125 31.421875 49.875 
Q 35.40625 48.296875 38.296875 45.546875 
z
" id="Lato-Regular-73"/>
    </defs>
    <g transform="translate(330.617578 61.929844)scale(0.175 -0.175)">
     <use xlink:href="#Lato-Regular-46"/>
     <use x="56.553131" xlink:href="#Lato-Regular-72"/>
     <use x="96.853134" xlink:href="#Lato-Regular-65"/>
     <use x="149.253143" xlink:href="#Lato-Regular-65"/>
     <use x="201.653152" xlink:href="#Lato-Regular-64"/>
     <use x="257.553162" xlink:href="#Lato-Regular-6f"/>
     <use x="313.153168" xlink:href="#Lato-Regular-6d"/>
     <use x="395.253174" xlink:href="#Lato-Regular-73"/>
    </g>
    <!--  -->
    <g transform="translate(369 80.4)scale(0.175 -0.175)"/>
   </g>
  </g>
 </g>
 <defs>
  <clipPath id="p5ec789d038">
   <rect height="554.4" width="558" x="90" y="86.4"/>
  </clipPath>
 </defs>
</svg>
