<?xml version="1.0" encoding="utf-8" standalone="no"?>
<!DOCTYPE svg PUBLIC "-//W3C//DTD SVG 1.1//EN"
  "http://www.w3.org/Graphics/SVG/1.1/DTD/svg11.dtd">
<!-- Created with matplotlib (http://matplotlib.org/) -->
<svg height="720pt" version="1.1" viewBox="0 0 720 720" width="720pt" xmlns="http://www.w3.org/2000/svg" xmlns:xlink="http://www.w3.org/1999/xlink">
 <defs>
  <style type="text/css">
*{stroke-linecap:butt;stroke-linejoin:round;}
  </style>
 </defs>
 <g id="figure_1">
  <g id="patch_1">
   <path d="M 0 720 
L 720 720 
L 720 0 
L 0 0 
z
" style="fill:#ffffff;"/>
  </g>
  <g id="axes_1">
   <g id="patch_2">
    <path d="M 90 630 
L 648 630 
L 648 86.4 
L 90 86.4 
z
" style="fill:#ffffff;"/>
   </g>
   <g id="matplotlib.axis_1">
    <g id="xtick_1">
     <g id="line2d_1"/>
     <g id="text_1">
      <!-- individual freedom -->
      <defs>
       <path d="M 9.421875 54.6875 
L 18.40625 54.6875 
L 18.40625 0 
L 9.421875 0 
z
M 9.421875 75.984375 
L 18.40625 75.984375 
L 18.40625 64.59375 
L 9.421875 64.59375 
z
" id="DejaVuSans-69"/>
       <path d="M 54.890625 33.015625 
L 54.890625 0 
L 45.90625 0 
L 45.90625 32.71875 
Q 45.90625 40.484375 42.875 44.328125 
Q 39.84375 48.1875 33.796875 48.1875 
Q 26.515625 48.1875 22.3125 43.546875 
Q 18.109375 38.921875 18.109375 30.90625 
L 18.109375 0 
L 9.078125 0 
L 9.078125 54.6875 
L 18.109375 54.6875 
L 18.109375 46.1875 
Q 21.34375 51.125 25.703125 53.5625 
Q 30.078125 56 35.796875 56 
Q 45.21875 56 50.046875 50.171875 
Q 54.890625 44.34375 54.890625 33.015625 
z
" id="DejaVuSans-6e"/>
       <path d="M 45.40625 46.390625 
L 45.40625 75.984375 
L 54.390625 75.984375 
L 54.390625 0 
L 45.40625 0 
L 45.40625 8.203125 
Q 42.578125 3.328125 38.25 0.953125 
Q 33.9375 -1.421875 27.875 -1.421875 
Q 17.96875 -1.421875 11.734375 6.484375 
Q 5.515625 14.40625 5.515625 27.296875 
Q 5.515625 40.1875 11.734375 48.09375 
Q 17.96875 56 27.875 56 
Q 33.9375 56 38.25 53.625 
Q 42.578125 51.265625 45.40625 46.390625 
z
M 14.796875 27.296875 
Q 14.796875 17.390625 18.875 11.75 
Q 22.953125 6.109375 30.078125 6.109375 
Q 37.203125 6.109375 41.296875 11.75 
Q 45.40625 17.390625 45.40625 27.296875 
Q 45.40625 37.203125 41.296875 42.84375 
Q 37.203125 48.484375 30.078125 48.484375 
Q 22.953125 48.484375 18.875 42.84375 
Q 14.796875 37.203125 14.796875 27.296875 
z
" id="DejaVuSans-64"/>
       <path d="M 2.984375 54.6875 
L 12.5 54.6875 
L 29.59375 8.796875 
L 46.6875 54.6875 
L 56.203125 54.6875 
L 35.6875 0 
L 23.484375 0 
z
" id="DejaVuSans-76"/>
       <path d="M 8.5 21.578125 
L 8.5 54.6875 
L 17.484375 54.6875 
L 17.484375 21.921875 
Q 17.484375 14.15625 20.5 10.265625 
Q 23.53125 6.390625 29.59375 6.390625 
Q 36.859375 6.390625 41.078125 11.03125 
Q 45.3125 15.671875 45.3125 23.6875 
L 45.3125 54.6875 
L 54.296875 54.6875 
L 54.296875 0 
L 45.3125 0 
L 45.3125 8.40625 
Q 42.046875 3.421875 37.71875 1 
Q 33.40625 -1.421875 27.6875 -1.421875 
Q 18.265625 -1.421875 13.375 4.4375 
Q 8.5 10.296875 8.5 21.578125 
z
M 31.109375 56 
z
" id="DejaVuSans-75"/>
       <path d="M 34.28125 27.484375 
Q 23.390625 27.484375 19.1875 25 
Q 14.984375 22.515625 14.984375 16.5 
Q 14.984375 11.71875 18.140625 8.90625 
Q 21.296875 6.109375 26.703125 6.109375 
Q 34.1875 6.109375 38.703125 11.40625 
Q 43.21875 16.703125 43.21875 25.484375 
L 43.21875 27.484375 
z
M 52.203125 31.203125 
L 52.203125 0 
L 43.21875 0 
L 43.21875 8.296875 
Q 40.140625 3.328125 35.546875 0.953125 
Q 30.953125 -1.421875 24.3125 -1.421875 
Q 15.921875 -1.421875 10.953125 3.296875 
Q 6 8.015625 6 15.921875 
Q 6 25.140625 12.171875 29.828125 
Q 18.359375 34.515625 30.609375 34.515625 
L 43.21875 34.515625 
L 43.21875 35.40625 
Q 43.21875 41.609375 39.140625 45 
Q 35.0625 48.390625 27.6875 48.390625 
Q 23 48.390625 18.546875 47.265625 
Q 14.109375 46.140625 10.015625 43.890625 
L 10.015625 52.203125 
Q 14.9375 54.109375 19.578125 55.046875 
Q 24.21875 56 28.609375 56 
Q 40.484375 56 46.34375 49.84375 
Q 52.203125 43.703125 52.203125 31.203125 
z
" id="DejaVuSans-61"/>
       <path d="M 9.421875 75.984375 
L 18.40625 75.984375 
L 18.40625 0 
L 9.421875 0 
z
" id="DejaVuSans-6c"/>
       <path id="DejaVuSans-20"/>
       <path d="M 37.109375 75.984375 
L 37.109375 68.5 
L 28.515625 68.5 
Q 23.6875 68.5 21.796875 66.546875 
Q 19.921875 64.59375 19.921875 59.515625 
L 19.921875 54.6875 
L 34.71875 54.6875 
L 34.71875 47.703125 
L 19.921875 47.703125 
L 19.921875 0 
L 10.890625 0 
L 10.890625 47.703125 
L 2.296875 47.703125 
L 2.296875 54.6875 
L 10.890625 54.6875 
L 10.890625 58.5 
Q 10.890625 67.625 15.140625 71.796875 
Q 19.390625 75.984375 28.609375 75.984375 
z
" id="DejaVuSans-66"/>
       <path d="M 41.109375 46.296875 
Q 39.59375 47.171875 37.8125 47.578125 
Q 36.03125 48 33.890625 48 
Q 26.265625 48 22.1875 43.046875 
Q 18.109375 38.09375 18.109375 28.8125 
L 18.109375 0 
L 9.078125 0 
L 9.078125 54.6875 
L 18.109375 54.6875 
L 18.109375 46.1875 
Q 20.953125 51.171875 25.484375 53.578125 
Q 30.03125 56 36.53125 56 
Q 37.453125 56 38.578125 55.875 
Q 39.703125 55.765625 41.0625 55.515625 
z
" id="DejaVuSans-72"/>
       <path d="M 56.203125 29.59375 
L 56.203125 25.203125 
L 14.890625 25.203125 
Q 15.484375 15.921875 20.484375 11.0625 
Q 25.484375 6.203125 34.421875 6.203125 
Q 39.59375 6.203125 44.453125 7.46875 
Q 49.3125 8.734375 54.109375 11.28125 
L 54.109375 2.78125 
Q 49.265625 0.734375 44.1875 -0.34375 
Q 39.109375 -1.421875 33.890625 -1.421875 
Q 20.796875 -1.421875 13.15625 6.1875 
Q 5.515625 13.8125 5.515625 26.8125 
Q 5.515625 40.234375 12.765625 48.109375 
Q 20.015625 56 32.328125 56 
Q 43.359375 56 49.78125 48.890625 
Q 56.203125 41.796875 56.203125 29.59375 
z
M 47.21875 32.234375 
Q 47.125 39.59375 43.09375 43.984375 
Q 39.0625 48.390625 32.421875 48.390625 
Q 24.90625 48.390625 20.390625 44.140625 
Q 15.875 39.890625 15.1875 32.171875 
z
" id="DejaVuSans-65"/>
       <path d="M 30.609375 48.390625 
Q 23.390625 48.390625 19.1875 42.75 
Q 14.984375 37.109375 14.984375 27.296875 
Q 14.984375 17.484375 19.15625 11.84375 
Q 23.34375 6.203125 30.609375 6.203125 
Q 37.796875 6.203125 41.984375 11.859375 
Q 46.1875 17.53125 46.1875 27.296875 
Q 46.1875 37.015625 41.984375 42.703125 
Q 37.796875 48.390625 30.609375 48.390625 
z
M 30.609375 56 
Q 42.328125 56 49.015625 48.375 
Q 55.71875 40.765625 55.71875 27.296875 
Q 55.71875 13.875 49.015625 6.21875 
Q 42.328125 -1.421875 30.609375 -1.421875 
Q 18.84375 -1.421875 12.171875 6.21875 
Q 5.515625 13.875 5.515625 27.296875 
Q 5.515625 40.765625 12.171875 48.375 
Q 18.84375 56 30.609375 56 
z
" id="DejaVuSans-6f"/>
       <path d="M 52 44.1875 
Q 55.375 50.25 60.0625 53.125 
Q 64.75 56 71.09375 56 
Q 79.640625 56 84.28125 50.015625 
Q 88.921875 44.046875 88.921875 33.015625 
L 88.921875 0 
L 79.890625 0 
L 79.890625 32.71875 
Q 79.890625 40.578125 77.09375 44.375 
Q 74.3125 48.1875 68.609375 48.1875 
Q 61.625 48.1875 57.5625 43.546875 
Q 53.515625 38.921875 53.515625 30.90625 
L 53.515625 0 
L 44.484375 0 
L 44.484375 32.71875 
Q 44.484375 40.625 41.703125 44.40625 
Q 38.921875 48.1875 33.109375 48.1875 
Q 26.21875 48.1875 22.15625 43.53125 
Q 18.109375 38.875 18.109375 30.90625 
L 18.109375 0 
L 9.078125 0 
L 9.078125 54.6875 
L 18.109375 54.6875 
L 18.109375 46.1875 
Q 21.1875 51.21875 25.484375 53.609375 
Q 29.78125 56 35.6875 56 
Q 41.65625 56 45.828125 52.96875 
Q 50 49.953125 52 44.1875 
z
" id="DejaVuSans-6d"/>
      </defs>
      <g style="fill:#404040;" transform="translate(173.189063 647.038125)scale(0.12 -0.12)">
       <use xlink:href="#DejaVuSans-69"/>
       <use x="27.783203" xlink:href="#DejaVuSans-6e"/>
       <use x="91.162109" xlink:href="#DejaVuSans-64"/>
       <use x="154.638672" xlink:href="#DejaVuSans-69"/>
       <use x="182.421875" xlink:href="#DejaVuSans-76"/>
       <use x="241.601562" xlink:href="#DejaVuSans-69"/>
       <use x="269.384766" xlink:href="#DejaVuSans-64"/>
       <use x="332.861328" xlink:href="#DejaVuSans-75"/>
       <use x="396.240234" xlink:href="#DejaVuSans-61"/>
       <use x="457.519531" xlink:href="#DejaVuSans-6c"/>
       <use x="485.302734" xlink:href="#DejaVuSans-20"/>
       <use x="517.089844" xlink:href="#DejaVuSans-66"/>
       <use x="552.294922" xlink:href="#DejaVuSans-72"/>
       <use x="593.376953" xlink:href="#DejaVuSans-65"/>
       <use x="654.900391" xlink:href="#DejaVuSans-65"/>
       <use x="716.423828" xlink:href="#DejaVuSans-64"/>
       <use x="779.900391" xlink:href="#DejaVuSans-6f"/>
       <use x="841.082031" xlink:href="#DejaVuSans-6d"/>
      </g>
     </g>
    </g>
    <g id="xtick_2">
     <g id="line2d_2"/>
     <g id="text_2">
      <!-- associational freedom -->
      <defs>
       <path d="M 44.28125 53.078125 
L 44.28125 44.578125 
Q 40.484375 46.53125 36.375 47.5 
Q 32.28125 48.484375 27.875 48.484375 
Q 21.1875 48.484375 17.84375 46.4375 
Q 14.5 44.390625 14.5 40.28125 
Q 14.5 37.15625 16.890625 35.375 
Q 19.28125 33.59375 26.515625 31.984375 
L 29.59375 31.296875 
Q 39.15625 29.25 43.1875 25.515625 
Q 47.21875 21.78125 47.21875 15.09375 
Q 47.21875 7.46875 41.1875 3.015625 
Q 35.15625 -1.421875 24.609375 -1.421875 
Q 20.21875 -1.421875 15.453125 -0.5625 
Q 10.6875 0.296875 5.421875 2 
L 5.421875 11.28125 
Q 10.40625 8.6875 15.234375 7.390625 
Q 20.0625 6.109375 24.8125 6.109375 
Q 31.15625 6.109375 34.5625 8.28125 
Q 37.984375 10.453125 37.984375 14.40625 
Q 37.984375 18.0625 35.515625 20.015625 
Q 33.0625 21.96875 24.703125 23.78125 
L 21.578125 24.515625 
Q 13.234375 26.265625 9.515625 29.90625 
Q 5.8125 33.546875 5.8125 39.890625 
Q 5.8125 47.609375 11.28125 51.796875 
Q 16.75 56 26.8125 56 
Q 31.78125 56 36.171875 55.265625 
Q 40.578125 54.546875 44.28125 53.078125 
z
" id="DejaVuSans-73"/>
       <path d="M 48.78125 52.59375 
L 48.78125 44.1875 
Q 44.96875 46.296875 41.140625 47.34375 
Q 37.3125 48.390625 33.40625 48.390625 
Q 24.65625 48.390625 19.8125 42.84375 
Q 14.984375 37.3125 14.984375 27.296875 
Q 14.984375 17.28125 19.8125 11.734375 
Q 24.65625 6.203125 33.40625 6.203125 
Q 37.3125 6.203125 41.140625 7.25 
Q 44.96875 8.296875 48.78125 10.40625 
L 48.78125 2.09375 
Q 45.015625 0.34375 40.984375 -0.53125 
Q 36.96875 -1.421875 32.421875 -1.421875 
Q 20.0625 -1.421875 12.78125 6.34375 
Q 5.515625 14.109375 5.515625 27.296875 
Q 5.515625 40.671875 12.859375 48.328125 
Q 20.21875 56 33.015625 56 
Q 37.15625 56 41.109375 55.140625 
Q 45.0625 54.296875 48.78125 52.59375 
z
" id="DejaVuSans-63"/>
       <path d="M 18.3125 70.21875 
L 18.3125 54.6875 
L 36.8125 54.6875 
L 36.8125 47.703125 
L 18.3125 47.703125 
L 18.3125 18.015625 
Q 18.3125 11.328125 20.140625 9.421875 
Q 21.96875 7.515625 27.59375 7.515625 
L 36.8125 7.515625 
L 36.8125 0 
L 27.59375 0 
Q 17.1875 0 13.234375 3.875 
Q 9.28125 7.765625 9.28125 18.015625 
L 9.28125 47.703125 
L 2.6875 47.703125 
L 2.6875 54.6875 
L 9.28125 54.6875 
L 9.28125 70.21875 
z
" id="DejaVuSans-74"/>
      </defs>
      <g style="fill:#404040;" transform="translate(442.229062 647.038125)scale(0.12 -0.12)">
       <use xlink:href="#DejaVuSans-61"/>
       <use x="61.279297" xlink:href="#DejaVuSans-73"/>
       <use x="113.378906" xlink:href="#DejaVuSans-73"/>
       <use x="165.478516" xlink:href="#DejaVuSans-6f"/>
       <use x="226.660156" xlink:href="#DejaVuSans-63"/>
       <use x="281.640625" xlink:href="#DejaVuSans-69"/>
       <use x="309.423828" xlink:href="#DejaVuSans-61"/>
       <use x="370.703125" xlink:href="#DejaVuSans-74"/>
       <use x="409.912109" xlink:href="#DejaVuSans-69"/>
       <use x="437.695312" xlink:href="#DejaVuSans-6f"/>
       <use x="498.876953" xlink:href="#DejaVuSans-6e"/>
       <use x="562.255859" xlink:href="#DejaVuSans-61"/>
       <use x="623.535156" xlink:href="#DejaVuSans-6c"/>
       <use x="651.318359" xlink:href="#DejaVuSans-20"/>
       <use x="683.105469" xlink:href="#DejaVuSans-66"/>
       <use x="718.310547" xlink:href="#DejaVuSans-72"/>
       <use x="759.392578" xlink:href="#DejaVuSans-65"/>
       <use x="820.916016" xlink:href="#DejaVuSans-65"/>
       <use x="882.439453" xlink:href="#DejaVuSans-64"/>
       <use x="945.916016" xlink:href="#DejaVuSans-6f"/>
       <use x="1007.097656" xlink:href="#DejaVuSans-6d"/>
      </g>
     </g>
    </g>
   </g>
   <g id="matplotlib.axis_2">
    <g id="ytick_1">
     <g id="line2d_3"/>
     <g id="text_3">
      <!-- 0 -->
      <defs>
       <path d="M 31.78125 66.40625 
Q 24.171875 66.40625 20.328125 58.90625 
Q 16.5 51.421875 16.5 36.375 
Q 16.5 21.390625 20.328125 13.890625 
Q 24.171875 6.390625 31.78125 6.390625 
Q 39.453125 6.390625 43.28125 13.890625 
Q 47.125 21.390625 47.125 36.375 
Q 47.125 51.421875 43.28125 58.90625 
Q 39.453125 66.40625 31.78125 66.40625 
z
M 31.78125 74.21875 
Q 44.046875 74.21875 50.515625 64.515625 
Q 56.984375 54.828125 56.984375 36.375 
Q 56.984375 17.96875 50.515625 8.265625 
Q 44.046875 -1.421875 31.78125 -1.421875 
Q 19.53125 -1.421875 13.0625 8.265625 
Q 6.59375 17.96875 6.59375 36.375 
Q 6.59375 54.828125 13.0625 64.515625 
Q 19.53125 74.21875 31.78125 74.21875 
z
" id="DejaVuSans-30"/>
      </defs>
      <g style="fill:#404040;" transform="translate(74.445 609.849972)scale(0.12 -0.12)">
       <use xlink:href="#DejaVuSans-30"/>
      </g>
     </g>
    </g>
    <g id="ytick_2">
     <g id="line2d_4"/>
     <g id="text_4">
      <!-- 10 -->
      <defs>
       <path d="M 12.40625 8.296875 
L 28.515625 8.296875 
L 28.515625 63.921875 
L 10.984375 60.40625 
L 10.984375 69.390625 
L 28.421875 72.90625 
L 38.28125 72.90625 
L 38.28125 8.296875 
L 54.390625 8.296875 
L 54.390625 0 
L 12.40625 0 
z
" id="DejaVuSans-31"/>
      </defs>
      <g style="fill:#404040;" transform="translate(66.81 300.986335)scale(0.12 -0.12)">
       <use xlink:href="#DejaVuSans-31"/>
       <use x="63.623047" xlink:href="#DejaVuSans-30"/>
      </g>
     </g>
    </g>
   </g>
   <g id="line2d_5">
    <path clip-path="url(#pf84435653f)" d="M 208.575 358.2 
L 250.425 358.2 
L 250.425 324.385422 
L 239.9625 296.427273 
L 250.425 268.469123 
L 250.425 188.325 
L 208.575 188.325 
L 208.575 268.469123 
L 219.0375 296.427273 
L 208.575 324.385422 
L 208.575 358.2 
" style="fill:none;stroke:#000000;stroke-linecap:square;"/>
   </g>
   <g id="line2d_6">
    <path clip-path="url(#pf84435653f)" d="M 229.5 358.2 
L 229.5 512.631818 
" style="fill:none;stroke:#000000;stroke-linecap:square;"/>
   </g>
   <g id="line2d_7">
    <path clip-path="url(#pf84435653f)" d="M 229.5 188.325 
L 229.5 111.109091 
" style="fill:none;stroke:#000000;stroke-linecap:square;"/>
   </g>
   <g id="line2d_8">
    <path clip-path="url(#pf84435653f)" d="M 219.0375 512.631818 
L 239.9625 512.631818 
" style="fill:none;stroke:#000000;stroke-linecap:square;"/>
   </g>
   <g id="line2d_9">
    <path clip-path="url(#pf84435653f)" d="M 219.0375 111.109091 
L 239.9625 111.109091 
" style="fill:none;stroke:#000000;stroke-linecap:square;"/>
   </g>
   <g id="line2d_10"/>
   <g id="line2d_11">
    <path clip-path="url(#pf84435653f)" d="M 487.575 389.086364 
L 529.425 389.086364 
L 529.425 383.6165 
L 518.9625 358.2 
L 529.425 332.7835 
L 529.425 234.654545 
L 487.575 234.654545 
L 487.575 332.7835 
L 498.0375 358.2 
L 487.575 383.6165 
L 487.575 389.086364 
" style="fill:none;stroke:#000000;stroke-linecap:square;"/>
   </g>
   <g id="line2d_12">
    <path clip-path="url(#pf84435653f)" d="M 508.5 389.086364 
L 508.5 605.290909 
" style="fill:none;stroke:#000000;stroke-linecap:square;"/>
   </g>
   <g id="line2d_13">
    <path clip-path="url(#pf84435653f)" d="M 508.5 234.654545 
L 508.5 234.654545 
" style="fill:none;stroke:#000000;stroke-linecap:square;"/>
   </g>
   <g id="line2d_14">
    <path clip-path="url(#pf84435653f)" d="M 498.0375 605.290909 
L 518.9625 605.290909 
" style="fill:none;stroke:#000000;stroke-linecap:square;"/>
   </g>
   <g id="line2d_15">
    <path clip-path="url(#pf84435653f)" d="M 498.0375 234.654545 
L 518.9625 234.654545 
" style="fill:none;stroke:#000000;stroke-linecap:square;"/>
   </g>
   <g id="line2d_16"/>
   <g id="line2d_17">
    <path clip-path="url(#pf84435653f)" d="M 219.0375 296.427273 
L 239.9625 296.427273 
" style="fill:none;stroke:#000000;stroke-linecap:square;"/>
   </g>
   <g id="line2d_18">
    <path clip-path="url(#pf84435653f)" d="M 498.0375 358.2 
L 518.9625 358.2 
" style="fill:none;stroke:#000000;stroke-linecap:square;"/>
   </g>
   <g id="patch_3">
    <path d="M 90 630 
L 90 86.4 
" style="fill:none;stroke:#1a1a1a;stroke-linecap:square;stroke-linejoin:miter;stroke-opacity:0.2;stroke-width:0.8;"/>
   </g>
   <g id="patch_4">
    <path d="M 90 630 
L 648 630 
" style="fill:none;stroke:#1a1a1a;stroke-linecap:square;stroke-linejoin:miter;stroke-opacity:0.2;stroke-width:0.8;"/>
   </g>
   <g id="text_5">
    <!-- a boxplot -->
    <defs>
     <path d="M 44.5 0 
L 40.546875 0 
Q 39.25 0 38.453125 0.390625 
Q 37.65625 0.796875 37.40625 2.09375 
L 36.40625 6.796875 
Q 34.40625 5 32.5 3.578125 
Q 30.59375 2.15625 28.5 1.171875 
Q 26.40625 0.203125 24.03125 -0.296875 
Q 21.65625 -0.796875 18.75 -0.796875 
Q 15.796875 -0.796875 13.21875 0.015625 
Q 10.65625 0.84375 8.75 2.5 
Q 6.84375 4.15625 5.71875 6.671875 
Q 4.59375 9.203125 4.59375 12.65625 
Q 4.59375 15.65625 6.25 18.421875 
Q 7.90625 21.203125 11.578125 23.34375 
Q 15.25 25.5 21.203125 26.875 
Q 27.15625 28.25 35.75 28.453125 
L 35.75 32.40625 
Q 35.75 38.296875 33.21875 41.3125 
Q 30.703125 44.34375 25.75 44.34375 
Q 22.5 44.34375 20.265625 43.515625 
Q 18.046875 42.703125 16.421875 41.671875 
Q 14.796875 40.65625 13.625 39.828125 
Q 12.453125 39 11.296875 39 
Q 10.40625 39 9.71875 39.46875 
Q 9.046875 39.953125 8.65625 40.65625 
L 7.046875 43.5 
Q 11.25 47.546875 16.09375 49.546875 
Q 20.953125 51.546875 26.84375 51.546875 
Q 31.09375 51.546875 34.390625 50.140625 
Q 37.703125 48.75 39.953125 46.25 
Q 42.203125 43.75 43.34375 40.203125 
Q 44.5 36.65625 44.5 32.40625 
z
M 21.40625 5.453125 
Q 23.75 5.453125 25.703125 5.921875 
Q 27.65625 6.40625 29.375 7.28125 
Q 31.09375 8.15625 32.671875 9.40625 
Q 34.25 10.65625 35.75 12.25 
L 35.75 22.796875 
Q 29.59375 22.59375 25.296875 21.8125 
Q 21 21.046875 18.296875 19.796875 
Q 15.59375 18.546875 14.375 16.84375 
Q 13.15625 15.15625 13.15625 13.046875 
Q 13.15625 11.046875 13.796875 9.59375 
Q 14.453125 8.15625 15.546875 7.21875 
Q 16.65625 6.296875 18.15625 5.875 
Q 19.65625 5.453125 21.40625 5.453125 
z
" id="Lato-Regular-61"/>
     <path id="Lato-Regular-20"/>
     <path d="M 7.59375 0 
L 7.59375 73.65625 
L 16.546875 73.65625 
L 16.546875 43.34375 
Q 19.703125 47 23.765625 49.21875 
Q 27.84375 51.453125 33.09375 51.453125 
Q 37.5 51.453125 41.046875 49.796875 
Q 44.59375 48.15625 47.09375 44.875 
Q 49.59375 41.59375 50.9375 36.765625 
Q 52.296875 31.953125 52.296875 25.65625 
Q 52.296875 20.046875 50.796875 15.21875 
Q 49.296875 10.40625 46.46875 6.875 
Q 43.65625 3.34375 39.578125 1.3125 
Q 35.5 -0.703125 30.40625 -0.703125 
Q 25.5 -0.703125 22.078125 1.1875 
Q 18.65625 3.09375 16.09375 6.5 
L 15.65625 1.90625 
Q 15.25 0 13.34375 0 
z
M 30.203125 44.34375 
Q 25.84375 44.34375 22.5625 42.34375 
Q 19.296875 40.34375 16.546875 36.703125 
L 16.546875 12.203125 
Q 18.953125 8.90625 21.875 7.546875 
Q 24.796875 6.203125 28.40625 6.203125 
Q 35.5 6.203125 39.296875 11.25 
Q 43.09375 16.296875 43.09375 25.65625 
Q 43.09375 30.59375 42.21875 34.140625 
Q 41.34375 37.703125 39.6875 39.96875 
Q 38.046875 42.25 35.640625 43.296875 
Q 33.25 44.34375 30.203125 44.34375 
z
" id="Lato-Regular-62"/>
     <path d="M 27.796875 51.453125 
Q 33.34375 51.453125 37.8125 49.59375 
Q 42.296875 47.75 45.421875 44.34375 
Q 48.546875 40.953125 50.21875 36.125 
Q 51.90625 31.296875 51.90625 25.34375 
Q 51.90625 19.34375 50.21875 14.546875 
Q 48.546875 9.75 45.421875 6.34375 
Q 42.296875 2.953125 37.8125 1.125 
Q 33.34375 -0.703125 27.796875 -0.703125 
Q 22.25 -0.703125 17.765625 1.125 
Q 13.296875 2.953125 10.140625 6.34375 
Q 7 9.75 5.296875 14.546875 
Q 3.59375 19.34375 3.59375 25.34375 
Q 3.59375 31.296875 5.296875 36.125 
Q 7 40.953125 10.140625 44.34375 
Q 13.296875 47.75 17.765625 49.59375 
Q 22.25 51.453125 27.796875 51.453125 
z
M 27.796875 6.25 
Q 35.296875 6.25 39 11.265625 
Q 42.703125 16.296875 42.703125 25.296875 
Q 42.703125 34.34375 39 39.390625 
Q 35.296875 44.453125 27.796875 44.453125 
Q 24 44.453125 21.203125 43.140625 
Q 18.40625 41.84375 16.53125 39.390625 
Q 14.65625 36.953125 13.71875 33.375 
Q 12.796875 29.796875 12.796875 25.296875 
Q 12.796875 20.796875 13.71875 17.25 
Q 14.65625 13.703125 16.53125 11.265625 
Q 18.40625 8.84375 21.203125 7.546875 
Q 24 6.25 27.796875 6.25 
z
" id="Lato-Regular-6f"/>
     <path d="M 19.15625 25.953125 
L 2.09375 50.65625 
L 10.65625 50.65625 
Q 11.75 50.65625 12.25 50.296875 
Q 12.75 49.953125 13.15625 49.296875 
L 25.546875 30.296875 
Q 26 31.703125 26.84375 33.09375 
L 37.75 49.09375 
Q 38.25 49.796875 38.75 50.21875 
Q 39.25 50.65625 40 50.65625 
L 48.203125 50.65625 
L 31.15625 26.453125 
L 48.90625 0 
L 40.34375 0 
Q 39.25 0 38.625 0.578125 
Q 38 1.15625 37.59375 1.84375 
L 24.84375 21.703125 
Q 24.5 20.25 23.796875 19.09375 
L 12 1.84375 
Q 11.5 1.15625 10.921875 0.578125 
Q 10.34375 0 9.34375 0 
L 1.40625 0 
z
" id="Lato-Regular-78"/>
     <path d="M 7.296875 -17.15625 
L 7.296875 50.65625 
L 12.59375 50.65625 
Q 14.5 50.65625 15 48.796875 
L 15.75 42.796875 
Q 19 46.75 23.171875 49.140625 
Q 27.34375 51.546875 32.796875 51.546875 
Q 37.15625 51.546875 40.703125 49.875 
Q 44.25 48.203125 46.75 44.921875 
Q 49.25 41.65625 50.59375 36.796875 
Q 51.953125 31.953125 51.953125 25.65625 
Q 51.953125 20.046875 50.453125 15.21875 
Q 48.953125 10.40625 46.140625 6.875 
Q 43.34375 3.34375 39.265625 1.3125 
Q 35.203125 -0.703125 30.09375 -0.703125 
Q 25.40625 -0.703125 22.078125 0.84375 
Q 18.75 2.40625 16.203125 5.25 
L 16.203125 -17.15625 
z
M 29.84375 44.34375 
Q 25.5 44.34375 22.21875 42.34375 
Q 18.953125 40.34375 16.203125 36.703125 
L 16.203125 12.203125 
Q 18.65625 8.90625 21.578125 7.546875 
Q 24.5 6.203125 28.09375 6.203125 
Q 35.15625 6.203125 38.953125 11.25 
Q 42.75 16.296875 42.75 25.65625 
Q 42.75 30.59375 41.875 34.140625 
Q 41 37.703125 39.34375 39.96875 
Q 37.703125 42.25 35.296875 43.296875 
Q 32.90625 44.34375 29.84375 44.34375 
z
" id="Lato-Regular-70"/>
     <path d="M 17.203125 73.65625 
L 17.203125 0 
L 8.296875 0 
L 8.296875 73.65625 
z
" id="Lato-Regular-6c"/>
     <path d="M 22.65625 -0.796875 
Q 16.65625 -0.796875 13.421875 2.546875 
Q 10.203125 5.90625 10.203125 12.203125 
L 10.203125 43.203125 
L 4.09375 43.203125 
Q 3.296875 43.203125 2.75 43.671875 
Q 2.203125 44.15625 2.203125 45.15625 
L 2.203125 48.703125 
L 10.5 49.75 
L 12.546875 65.40625 
Q 12.65625 66.15625 13.203125 66.625 
Q 13.75 67.09375 14.59375 67.09375 
L 19.09375 67.09375 
L 19.09375 49.65625 
L 33.59375 49.65625 
L 33.59375 43.203125 
L 19.09375 43.203125 
L 19.09375 12.796875 
Q 19.09375 9.59375 20.640625 8.046875 
Q 22.203125 6.5 24.65625 6.5 
Q 26.046875 6.5 27.0625 6.875 
Q 28.09375 7.25 28.84375 7.703125 
Q 29.59375 8.15625 30.125 8.53125 
Q 30.65625 8.90625 31.046875 8.90625 
Q 31.75 8.90625 32.296875 8.046875 
L 34.90625 3.796875 
Q 32.59375 1.65625 29.34375 0.421875 
Q 26.09375 -0.796875 22.65625 -0.796875 
z
" id="Lato-Regular-74"/>
    </defs>
    <g transform="translate(338.583984 64.568437)scale(0.15 -0.15)">
     <use xlink:href="#Lato-Regular-61"/>
     <use x="50.700012" xlink:href="#Lato-Regular-20"/>
     <use x="70.000015" xlink:href="#Lato-Regular-62"/>
     <use x="125.900024" xlink:href="#Lato-Regular-6f"/>
     <use x="181.453156" xlink:href="#Lato-Regular-78"/>
     <use x="231.853165" xlink:href="#Lato-Regular-70"/>
     <use x="287.053177" xlink:href="#Lato-Regular-6c"/>
     <use x="312.653183" xlink:href="#Lato-Regular-6f"/>
     <use x="368.253189" xlink:href="#Lato-Regular-74"/>
    </g>
    <!--  -->
    <g transform="translate(369 80.4)scale(0.15 -0.15)"/>
   </g>
  </g>
 </g>
 <defs>
  <clipPath id="pf84435653f">
   <rect height="543.6" width="558" x="90" y="86.4"/>
  </clipPath>
 </defs>
</svg>
