<?xml version="1.0" encoding="utf-8" standalone="no"?>
<!DOCTYPE svg PUBLIC "-//W3C//DTD SVG 1.1//EN"
  "http://www.w3.org/Graphics/SVG/1.1/DTD/svg11.dtd">
<!-- Created with matplotlib (http://matplotlib.org/) -->
<svg height="720pt" version="1.1" viewBox="0 0 720 720" width="720pt" xmlns="http://www.w3.org/2000/svg" xmlns:xlink="http://www.w3.org/1999/xlink">
 <defs>
  <style type="text/css">
*{stroke-linecap:butt;stroke-linejoin:round;}
  </style>
 </defs>
 <g id="figure_1">
  <g id="patch_1">
   <path d="M 0 720 
L 720 720 
L 720 0 
L 0 0 
z
" style="fill:#ffffff;"/>
  </g>
  <g id="axes_1">
   <g id="patch_2">
    <path d="M 90 630 
L 648 630 
L 648 86.4 
L 90 86.4 
z
" style="fill:#ffffff;"/>
   </g>
   <g id="patch_3">
    <path clip-path="url(#p30f95ea853)" d="M 115.363636 630 
L 178.772727 630 
L 178.772727 284.857143 
L 115.363636 284.857143 
z
" style="fill:#1a1a1a;fill-opacity:0.3;"/>
   </g>
   <g id="patch_4">
    <path clip-path="url(#p30f95ea853)" d="M 178.772727 630 
L 242.181818 630 
L 242.181818 112.285714 
L 178.772727 112.285714 
z
" style="fill:#666666;fill-opacity:0.3;"/>
   </g>
   <g id="patch_5">
    <path clip-path="url(#p30f95ea853)" d="M 242.181818 630 
L 305.590909 630 
L 305.590909 198.571429 
L 242.181818 198.571429 
z
" style="fill:#1a1a1a;fill-opacity:0.3;"/>
   </g>
   <g id="patch_6">
    <path clip-path="url(#p30f95ea853)" d="M 305.590909 630 
L 369 630 
L 369 284.857143 
L 305.590909 284.857143 
z
" style="fill:#666666;fill-opacity:0.3;"/>
   </g>
   <g id="patch_7">
    <path clip-path="url(#p30f95ea853)" d="M 369 630 
L 432.409091 630 
L 432.409091 428.666667 
L 369 428.666667 
z
" style="fill:#1a1a1a;fill-opacity:0.3;"/>
   </g>
   <g id="patch_8">
    <path clip-path="url(#p30f95ea853)" d="M 432.409091 630 
L 495.818182 630 
L 495.818182 428.666667 
L 432.409091 428.666667 
z
" style="fill:#666666;fill-opacity:0.3;"/>
   </g>
   <g id="patch_9">
    <path clip-path="url(#p30f95ea853)" d="M 495.818182 630 
L 559.227273 630 
L 559.227273 227.333333 
L 495.818182 227.333333 
z
" style="fill:#1a1a1a;fill-opacity:0.3;"/>
   </g>
   <g id="patch_10">
    <path clip-path="url(#p30f95ea853)" d="M 559.227273 630 
L 622.636364 630 
L 622.636364 457.428571 
L 559.227273 457.428571 
z
" style="fill:#666666;fill-opacity:0.3;"/>
   </g>
   <g id="matplotlib.axis_1">
    <g id="xtick_1">
     <g id="line2d_1"/>
     <g id="text_1">
      <!-- 40 -->
      <defs>
       <path d="M 37.796875 64.3125 
L 12.890625 25.390625 
L 37.796875 25.390625 
z
M 35.203125 72.90625 
L 47.609375 72.90625 
L 47.609375 25.390625 
L 58.015625 25.390625 
L 58.015625 17.1875 
L 47.609375 17.1875 
L 47.609375 0 
L 37.796875 0 
L 37.796875 17.1875 
L 4.890625 17.1875 
L 4.890625 26.703125 
z
" id="DejaVuSans-34"/>
       <path d="M 31.78125 66.40625 
Q 24.171875 66.40625 20.328125 58.90625 
Q 16.5 51.421875 16.5 36.375 
Q 16.5 21.390625 20.328125 13.890625 
Q 24.171875 6.390625 31.78125 6.390625 
Q 39.453125 6.390625 43.28125 13.890625 
Q 47.125 21.390625 47.125 36.375 
Q 47.125 51.421875 43.28125 58.90625 
Q 39.453125 66.40625 31.78125 66.40625 
z
M 31.78125 74.21875 
Q 44.046875 74.21875 50.515625 64.515625 
Q 56.984375 54.828125 56.984375 36.375 
Q 56.984375 17.96875 50.515625 8.265625 
Q 44.046875 -1.421875 31.78125 -1.421875 
Q 19.53125 -1.421875 13.0625 8.265625 
Q 6.59375 17.96875 6.59375 36.375 
Q 6.59375 54.828125 13.0625 64.515625 
Q 19.53125 74.21875 31.78125 74.21875 
z
" id="DejaVuSans-30"/>
      </defs>
      <g style="fill:#404040;" transform="translate(224.145086 651.297656)scale(0.15 -0.15)">
       <use xlink:href="#DejaVuSans-34"/>
       <use x="63.623047" xlink:href="#DejaVuSans-30"/>
      </g>
     </g>
    </g>
    <g id="xtick_2">
     <g id="line2d_2"/>
     <g id="text_2">
      <!-- 60 -->
      <defs>
       <path d="M 33.015625 40.375 
Q 26.375 40.375 22.484375 35.828125 
Q 18.609375 31.296875 18.609375 23.390625 
Q 18.609375 15.53125 22.484375 10.953125 
Q 26.375 6.390625 33.015625 6.390625 
Q 39.65625 6.390625 43.53125 10.953125 
Q 47.40625 15.53125 47.40625 23.390625 
Q 47.40625 31.296875 43.53125 35.828125 
Q 39.65625 40.375 33.015625 40.375 
z
M 52.59375 71.296875 
L 52.59375 62.3125 
Q 48.875 64.0625 45.09375 64.984375 
Q 41.3125 65.921875 37.59375 65.921875 
Q 27.828125 65.921875 22.671875 59.328125 
Q 17.53125 52.734375 16.796875 39.40625 
Q 19.671875 43.65625 24.015625 45.921875 
Q 28.375 48.1875 33.59375 48.1875 
Q 44.578125 48.1875 50.953125 41.515625 
Q 57.328125 34.859375 57.328125 23.390625 
Q 57.328125 12.15625 50.6875 5.359375 
Q 44.046875 -1.421875 33.015625 -1.421875 
Q 20.359375 -1.421875 13.671875 8.265625 
Q 6.984375 17.96875 6.984375 36.375 
Q 6.984375 53.65625 15.1875 63.9375 
Q 23.390625 74.21875 37.203125 74.21875 
Q 40.921875 74.21875 44.703125 73.484375 
Q 48.484375 72.75 52.59375 71.296875 
z
" id="DejaVuSans-36"/>
      </defs>
      <g style="fill:#404040;" transform="translate(401.544187 651.297656)scale(0.15 -0.15)">
       <use xlink:href="#DejaVuSans-36"/>
       <use x="63.623047" xlink:href="#DejaVuSans-30"/>
      </g>
     </g>
    </g>
    <g id="xtick_3">
     <g id="line2d_3"/>
     <g id="text_3">
      <!-- 80 -->
      <defs>
       <path d="M 31.78125 34.625 
Q 24.75 34.625 20.71875 30.859375 
Q 16.703125 27.09375 16.703125 20.515625 
Q 16.703125 13.921875 20.71875 10.15625 
Q 24.75 6.390625 31.78125 6.390625 
Q 38.8125 6.390625 42.859375 10.171875 
Q 46.921875 13.96875 46.921875 20.515625 
Q 46.921875 27.09375 42.890625 30.859375 
Q 38.875 34.625 31.78125 34.625 
z
M 21.921875 38.8125 
Q 15.578125 40.375 12.03125 44.71875 
Q 8.5 49.078125 8.5 55.328125 
Q 8.5 64.0625 14.71875 69.140625 
Q 20.953125 74.21875 31.78125 74.21875 
Q 42.671875 74.21875 48.875 69.140625 
Q 55.078125 64.0625 55.078125 55.328125 
Q 55.078125 49.078125 51.53125 44.71875 
Q 48 40.375 41.703125 38.8125 
Q 48.828125 37.15625 52.796875 32.3125 
Q 56.78125 27.484375 56.78125 20.515625 
Q 56.78125 9.90625 50.3125 4.234375 
Q 43.84375 -1.421875 31.78125 -1.421875 
Q 19.734375 -1.421875 13.25 4.234375 
Q 6.78125 9.90625 6.78125 20.515625 
Q 6.78125 27.484375 10.78125 32.3125 
Q 14.796875 37.15625 21.921875 38.8125 
z
M 18.3125 54.390625 
Q 18.3125 48.734375 21.84375 45.5625 
Q 25.390625 42.390625 31.78125 42.390625 
Q 38.140625 42.390625 41.71875 45.5625 
Q 45.3125 48.734375 45.3125 54.390625 
Q 45.3125 60.0625 41.71875 63.234375 
Q 38.140625 66.40625 31.78125 66.40625 
Q 25.390625 66.40625 21.84375 63.234375 
Q 18.3125 60.0625 18.3125 54.390625 
z
" id="DejaVuSans-38"/>
      </defs>
      <g style="fill:#404040;" transform="translate(578.943287 651.297656)scale(0.15 -0.15)">
       <use xlink:href="#DejaVuSans-38"/>
       <use x="63.623047" xlink:href="#DejaVuSans-30"/>
      </g>
     </g>
    </g>
    <g id="text_4">
     <!-- n = 91 -->
     <defs>
      <path d="M 7.296875 0 
L 7.296875 50.65625 
L 12.59375 50.65625 
Q 14.5 50.65625 15 48.796875 
L 15.703125 43.296875 
Q 19 46.953125 23.078125 49.203125 
Q 27.15625 51.453125 32.5 51.453125 
Q 36.65625 51.453125 39.828125 50.078125 
Q 43 48.703125 45.125 46.171875 
Q 47.25 43.65625 48.34375 40.09375 
Q 49.453125 36.546875 49.453125 32.25 
L 49.453125 0 
L 40.546875 0 
L 40.546875 32.25 
Q 40.546875 38 37.921875 41.171875 
Q 35.296875 44.34375 29.90625 44.34375 
Q 25.953125 44.34375 22.515625 42.4375 
Q 19.09375 40.546875 16.203125 37.296875 
L 16.203125 0 
z
" id="Lato-Regular-6e"/>
      <path id="Lato-Regular-20"/>
      <path d="M 7.5 28.703125 
L 50.453125 28.703125 
L 50.453125 21.953125 
L 7.5 21.953125 
z
M 7.5 45.453125 
L 50.453125 45.453125 
L 50.453125 38.703125 
L 7.5 38.703125 
z
" id="Lato-Regular-3d"/>
      <path d="M 27.453125 29.40625 
Q 23.40625 29.40625 19.78125 30.75 
Q 16.15625 32.09375 13.40625 34.71875 
Q 10.65625 37.34375 9.03125 41.171875 
Q 7.40625 45 7.40625 49.953125 
Q 7.40625 54.65625 9.15625 58.75 
Q 10.90625 62.84375 14.046875 65.890625 
Q 17.203125 68.953125 21.546875 70.703125 
Q 25.90625 72.453125 31.09375 72.453125 
Q 36.25 72.453125 40.453125 70.75 
Q 44.65625 69.046875 47.65625 66 
Q 50.65625 62.953125 52.28125 58.703125 
Q 53.90625 54.453125 53.90625 49.296875 
Q 53.90625 46.203125 53.328125 43.421875 
Q 52.75 40.65625 51.640625 38 
Q 50.546875 35.34375 49.015625 32.71875 
Q 47.5 30.09375 45.546875 27.296875 
L 28.09375 2.09375 
Q 27.453125 1.15625 26.25 0.578125 
Q 25.046875 0 23.5 0 
L 15.296875 0 
L 37.09375 28.546875 
Q 38.203125 30 39.140625 31.296875 
Q 40.09375 32.59375 40.953125 33.90625 
Q 38.203125 31.703125 34.75 30.546875 
Q 31.296875 29.40625 27.453125 29.40625 
z
M 45.34375 50.34375 
Q 45.34375 53.703125 44.265625 56.421875 
Q 43.203125 59.15625 41.296875 61.046875 
Q 39.40625 62.953125 36.78125 63.96875 
Q 34.15625 65 31 65 
Q 27.703125 65 24.96875 63.921875 
Q 22.25 62.84375 20.328125 60.9375 
Q 18.40625 59.046875 17.34375 56.390625 
Q 16.296875 53.75 16.296875 50.59375 
Q 16.296875 47.203125 17.265625 44.515625 
Q 18.25 41.84375 20.078125 40 
Q 21.90625 38.15625 24.53125 37.203125 
Q 27.15625 36.25 30.40625 36.25 
Q 34 36.25 36.765625 37.421875 
Q 39.546875 38.59375 41.4375 40.546875 
Q 43.34375 42.5 44.34375 45.046875 
Q 45.34375 47.59375 45.34375 50.34375 
z
" id="Lato-Regular-39"/>
      <path d="M 14.34375 6.796875 
L 29.75 6.796875 
L 29.75 55.65625 
Q 29.75 57.84375 29.90625 60.09375 
L 17.09375 49.15625 
Q 16.59375 48.75 16.09375 48.578125 
Q 15.59375 48.40625 15.15625 48.40625 
Q 14.40625 48.40625 13.796875 48.71875 
Q 13.203125 49.046875 12.90625 49.5 
L 10.09375 53.34375 
L 31.40625 71.796875 
L 38.65625 71.796875 
L 38.65625 6.796875 
L 52.75 6.796875 
L 52.75 0 
L 14.34375 0 
z
" id="Lato-Regular-31"/>
     </defs>
     <g style="fill:#262626;" transform="translate(348.885938 675.965625)scale(0.15 -0.15)">
      <use xlink:href="#Lato-Regular-6e"/>
      <use x="55.600006" xlink:href="#Lato-Regular-20"/>
      <use x="74.900009" xlink:href="#Lato-Regular-3d"/>
      <use x="132.900009" xlink:href="#Lato-Regular-20"/>
      <use x="152.200012" xlink:href="#Lato-Regular-39"/>
      <use x="210.200012" xlink:href="#Lato-Regular-31"/>
     </g>
    </g>
   </g>
   <g id="matplotlib.axis_2"/>
   <g id="line2d_4">
    <path clip-path="url(#p30f95ea853)" d="M 115.363636 456.079769 
L 125.716141 424.71147 
L 136.068646 392.252312 
L 146.42115 359.575509 
L 156.773655 327.590486 
L 167.12616 297.183172 
L 177.478664 269.159863 
L 187.831169 244.20003 
L 198.183673 222.822616 
L 208.536178 205.369302 
L 218.888683 192.006559 
L 229.241187 182.745865 
L 239.593692 177.478416 
L 249.946197 176.017362 
L 260.298701 178.138257 
L 270.651206 183.607967 
L 281.003711 192.194568 
L 291.356215 203.655604 
L 301.70872 217.708463 
L 312.061224 233.992566 
L 322.413729 252.036609 
L 332.766234 271.243743 
L 343.118738 290.903211 
L 353.471243 310.229727 
L 363.823748 328.42422 
L 374.176252 344.743879 
L 384.528757 358.567742 
L 394.881262 369.446638 
L 405.233766 377.132104 
L 415.586271 381.585415 
L 425.938776 382.972612 
L 436.29128 381.652548 
L 446.643785 378.162219 
L 456.996289 373.198589 
L 467.348794 367.591299 
L 477.701299 362.258817 
L 488.053803 358.143256 
L 498.406308 356.125873 
L 508.758813 356.933749 
L 519.111317 361.054993 
L 529.463822 368.681719 
L 539.816327 379.695614 
L 550.168831 393.701081 
L 560.521336 410.098843 
L 570.87384 428.182642 
L 581.226345 447.236767 
L 591.57885 466.614072 
L 601.931354 485.781886 
L 612.283859 504.333696 
L 622.636364 521.974068 
" style="fill:none;opacity:0.8;stroke:#1a1a1a;stroke-linecap:square;stroke-width:1.5;"/>
   </g>
   <g id="patch_11">
    <path d="M 90 630 
L 90 86.4 
" style="fill:none;stroke:#1a1a1a;stroke-linecap:square;stroke-linejoin:miter;stroke-opacity:0.2;stroke-width:0.8;"/>
   </g>
   <g id="patch_12">
    <path d="M 90 630 
L 648 630 
" style="fill:none;stroke:#1a1a1a;stroke-linecap:square;stroke-linejoin:miter;stroke-opacity:0.2;stroke-width:0.8;"/>
   </g>
   <g id="text_5">
    <!-- Histogram of Rule of Law Scores -->
    <defs>
     <path d="M 66.796875 0 
L 57.046875 0 
L 57.046875 32.59375 
L 18.453125 32.59375 
L 18.453125 0 
L 8.703125 0 
L 8.703125 71.65625 
L 18.453125 71.65625 
L 18.453125 39.703125 
L 57.046875 39.703125 
L 57.046875 71.65625 
L 66.796875 71.65625 
z
" id="Lato-Regular-48"/>
     <path d="M 17.203125 50.65625 
L 17.203125 0 
L 8.296875 0 
L 8.296875 50.65625 
z
M 19.203125 66.546875 
Q 19.203125 65.25 18.671875 64.125 
Q 18.15625 63 17.28125 62.125 
Q 16.40625 61.25 15.25 60.75 
Q 14.09375 60.25 12.796875 60.25 
Q 11.5 60.25 10.375 60.75 
Q 9.25 61.25 8.375 62.125 
Q 7.5 63 7 64.125 
Q 6.5 65.25 6.5 66.546875 
Q 6.5 67.84375 7 69.015625 
Q 7.5 70.203125 8.375 71.078125 
Q 9.25 71.953125 10.375 72.453125 
Q 11.5 72.953125 12.796875 72.953125 
Q 14.09375 72.953125 15.25 72.453125 
Q 16.40625 71.953125 17.28125 71.078125 
Q 18.15625 70.203125 18.671875 69.015625 
Q 19.203125 67.84375 19.203125 66.546875 
z
" id="Lato-Regular-69"/>
     <path d="M 36.296875 42.296875 
Q 35.703125 41.203125 34.453125 41.203125 
Q 33.703125 41.203125 32.75 41.75 
Q 31.796875 42.296875 30.421875 42.96875 
Q 29.046875 43.65625 27.140625 44.21875 
Q 25.25 44.796875 22.65625 44.796875 
Q 20.40625 44.796875 18.59375 44.21875 
Q 16.796875 43.65625 15.515625 42.65625 
Q 14.25 41.65625 13.578125 40.328125 
Q 12.90625 39 12.90625 37.453125 
Q 12.90625 35.5 14.03125 34.203125 
Q 15.15625 32.90625 17 31.953125 
Q 18.84375 31 21.1875 30.265625 
Q 23.546875 29.546875 26.015625 28.71875 
Q 28.5 27.90625 30.84375 26.90625 
Q 33.203125 25.90625 35.046875 24.40625 
Q 36.90625 22.90625 38.03125 20.71875 
Q 39.15625 18.546875 39.15625 15.5 
Q 39.15625 12 37.90625 9.015625 
Q 36.65625 6.046875 34.203125 3.875 
Q 31.75 1.703125 28.203125 0.453125 
Q 24.65625 -0.796875 20 -0.796875 
Q 14.703125 -0.796875 10.390625 0.921875 
Q 6.09375 2.65625 3.09375 5.34375 
L 5.203125 8.75 
Q 5.59375 9.40625 6.140625 9.75 
Q 6.703125 10.09375 7.59375 10.09375 
Q 8.5 10.09375 9.5 9.390625 
Q 10.5 8.703125 11.921875 7.84375 
Q 13.34375 7 15.375 6.296875 
Q 17.40625 5.59375 20.453125 5.59375 
Q 23.046875 5.59375 25 6.265625 
Q 26.953125 6.953125 28.25 8.09375 
Q 29.546875 9.25 30.171875 10.75 
Q 30.796875 12.25 30.796875 13.953125 
Q 30.796875 16.046875 29.671875 17.421875 
Q 28.546875 18.796875 26.6875 19.765625 
Q 24.84375 20.75 22.46875 21.46875 
Q 20.09375 22.203125 17.625 23 
Q 15.15625 23.796875 12.78125 24.8125 
Q 10.40625 25.84375 8.546875 27.390625 
Q 6.703125 28.953125 5.578125 31.21875 
Q 4.453125 33.5 4.453125 36.75 
Q 4.453125 39.65625 5.640625 42.328125 
Q 6.84375 45 9.140625 47.015625 
Q 11.453125 49.046875 14.796875 50.25 
Q 18.15625 51.453125 22.453125 51.453125 
Q 27.453125 51.453125 31.421875 49.875 
Q 35.40625 48.296875 38.296875 45.546875 
z
" id="Lato-Regular-73"/>
     <path d="M 22.65625 -0.796875 
Q 16.65625 -0.796875 13.421875 2.546875 
Q 10.203125 5.90625 10.203125 12.203125 
L 10.203125 43.203125 
L 4.09375 43.203125 
Q 3.296875 43.203125 2.75 43.671875 
Q 2.203125 44.15625 2.203125 45.15625 
L 2.203125 48.703125 
L 10.5 49.75 
L 12.546875 65.40625 
Q 12.65625 66.15625 13.203125 66.625 
Q 13.75 67.09375 14.59375 67.09375 
L 19.09375 67.09375 
L 19.09375 49.65625 
L 33.59375 49.65625 
L 33.59375 43.203125 
L 19.09375 43.203125 
L 19.09375 12.796875 
Q 19.09375 9.59375 20.640625 8.046875 
Q 22.203125 6.5 24.65625 6.5 
Q 26.046875 6.5 27.0625 6.875 
Q 28.09375 7.25 28.84375 7.703125 
Q 29.59375 8.15625 30.125 8.53125 
Q 30.65625 8.90625 31.046875 8.90625 
Q 31.75 8.90625 32.296875 8.046875 
L 34.90625 3.796875 
Q 32.59375 1.65625 29.34375 0.421875 
Q 26.09375 -0.796875 22.65625 -0.796875 
z
" id="Lato-Regular-74"/>
     <path d="M 27.796875 51.453125 
Q 33.34375 51.453125 37.8125 49.59375 
Q 42.296875 47.75 45.421875 44.34375 
Q 48.546875 40.953125 50.21875 36.125 
Q 51.90625 31.296875 51.90625 25.34375 
Q 51.90625 19.34375 50.21875 14.546875 
Q 48.546875 9.75 45.421875 6.34375 
Q 42.296875 2.953125 37.8125 1.125 
Q 33.34375 -0.703125 27.796875 -0.703125 
Q 22.25 -0.703125 17.765625 1.125 
Q 13.296875 2.953125 10.140625 6.34375 
Q 7 9.75 5.296875 14.546875 
Q 3.59375 19.34375 3.59375 25.34375 
Q 3.59375 31.296875 5.296875 36.125 
Q 7 40.953125 10.140625 44.34375 
Q 13.296875 47.75 17.765625 49.59375 
Q 22.25 51.453125 27.796875 51.453125 
z
M 27.796875 6.25 
Q 35.296875 6.25 39 11.265625 
Q 42.703125 16.296875 42.703125 25.296875 
Q 42.703125 34.34375 39 39.390625 
Q 35.296875 44.453125 27.796875 44.453125 
Q 24 44.453125 21.203125 43.140625 
Q 18.40625 41.84375 16.53125 39.390625 
Q 14.65625 36.953125 13.71875 33.375 
Q 12.796875 29.796875 12.796875 25.296875 
Q 12.796875 20.796875 13.71875 17.25 
Q 14.65625 13.703125 16.53125 11.265625 
Q 18.40625 8.84375 21.203125 7.546875 
Q 24 6.25 27.796875 6.25 
z
" id="Lato-Regular-6f"/>
     <path d="M 24.34375 51.5 
Q 27.65625 51.5 30.53125 50.765625 
Q 33.40625 50.046875 35.75 48.65625 
L 49.5 48.65625 
L 49.5 45.34375 
Q 49.5 43.703125 47.40625 43.25 
L 41.65625 42.453125 
Q 43.34375 39.203125 43.34375 35.203125 
Q 43.34375 31.5 41.921875 28.46875 
Q 40.5 25.453125 37.96875 23.296875 
Q 35.453125 21.15625 31.96875 20 
Q 28.5 18.84375 24.34375 18.84375 
Q 20.796875 18.84375 17.65625 19.703125 
Q 16.046875 18.703125 15.21875 17.546875 
Q 14.40625 16.40625 14.40625 15.296875 
Q 14.40625 13.5 15.84375 12.578125 
Q 17.296875 11.65625 19.6875 11.25 
Q 22.09375 10.84375 25.140625 10.75 
Q 28.203125 10.65625 31.375 10.421875 
Q 34.546875 10.203125 37.59375 9.640625 
Q 40.65625 9.09375 43.046875 7.84375 
Q 45.453125 6.59375 46.890625 4.390625 
Q 48.34375 2.203125 48.34375 -1.296875 
Q 48.34375 -4.546875 46.71875 -7.59375 
Q 45.09375 -10.65625 42.046875 -13.03125 
Q 39 -15.40625 34.59375 -16.828125 
Q 30.203125 -18.25 24.65625 -18.25 
Q 19.09375 -18.25 14.921875 -17.140625 
Q 10.75 -16.046875 8 -14.1875 
Q 5.25 -12.34375 3.875 -9.921875 
Q 2.5 -7.5 2.5 -4.84375 
Q 2.5 -1.09375 4.875 1.53125 
Q 7.25 4.15625 11.40625 5.703125 
Q 9.25 6.703125 7.96875 8.375 
Q 6.703125 10.046875 6.703125 12.84375 
Q 6.703125 13.953125 7.09375 15.125 
Q 7.5 16.296875 8.328125 17.4375 
Q 9.15625 18.59375 10.34375 19.640625 
Q 11.546875 20.703125 13.15625 21.5 
Q 9.40625 23.59375 7.28125 27.0625 
Q 5.15625 30.546875 5.15625 35.203125 
Q 5.15625 38.90625 6.578125 41.921875 
Q 8 44.953125 10.546875 47.078125 
Q 13.09375 49.203125 16.625 50.34375 
Q 20.15625 51.5 24.34375 51.5 
z
M 40.15625 -2.75 
Q 40.15625 -0.84375 39.09375 0.296875 
Q 38.046875 1.453125 36.25 2.078125 
Q 34.453125 2.703125 32.09375 3 
Q 29.75 3.296875 27.140625 3.421875 
Q 24.546875 3.546875 21.84375 3.6875 
Q 19.15625 3.84375 16.703125 4.25 
Q 13.84375 2.90625 12.0625 0.953125 
Q 10.296875 -1 10.296875 -3.703125 
Q 10.296875 -5.40625 11.171875 -6.875 
Q 12.046875 -8.34375 13.84375 -9.421875 
Q 15.65625 -10.5 18.375 -11.125 
Q 21.09375 -11.75 24.796875 -11.75 
Q 28.40625 -11.75 31.25 -11.09375 
Q 34.09375 -10.453125 36.0625 -9.25 
Q 38.046875 -8.046875 39.09375 -6.390625 
Q 40.15625 -4.75 40.15625 -2.75 
z
M 24.34375 24.75 
Q 27.046875 24.75 29.125 25.5 
Q 31.203125 26.25 32.59375 27.59375 
Q 34 28.953125 34.703125 30.828125 
Q 35.40625 32.703125 35.40625 34.953125 
Q 35.40625 39.59375 32.578125 42.34375 
Q 29.75 45.09375 24.34375 45.09375 
Q 19 45.09375 16.171875 42.34375 
Q 13.34375 39.59375 13.34375 34.953125 
Q 13.34375 32.703125 14.0625 30.828125 
Q 14.796875 28.953125 16.1875 27.59375 
Q 17.59375 26.25 19.640625 25.5 
Q 21.703125 24.75 24.34375 24.75 
z
" id="Lato-Regular-67"/>
     <path d="M 7.296875 0 
L 7.296875 50.65625 
L 12.40625 50.65625 
Q 13.84375 50.65625 14.390625 50.09375 
Q 14.953125 49.546875 15.15625 48.203125 
L 15.75 40.296875 
Q 18.34375 45.59375 22.171875 48.5625 
Q 26 51.546875 31.15625 51.546875 
Q 33.25 51.546875 34.953125 51.0625 
Q 36.65625 50.59375 38.09375 49.75 
L 36.953125 43.09375 
Q 36.59375 41.84375 35.40625 41.84375 
Q 34.703125 41.84375 33.25 42.3125 
Q 31.796875 42.796875 29.203125 42.796875 
Q 24.546875 42.796875 21.421875 40.09375 
Q 18.296875 37.40625 16.203125 32.25 
L 16.203125 0 
z
" id="Lato-Regular-72"/>
     <path d="M 44.5 0 
L 40.546875 0 
Q 39.25 0 38.453125 0.390625 
Q 37.65625 0.796875 37.40625 2.09375 
L 36.40625 6.796875 
Q 34.40625 5 32.5 3.578125 
Q 30.59375 2.15625 28.5 1.171875 
Q 26.40625 0.203125 24.03125 -0.296875 
Q 21.65625 -0.796875 18.75 -0.796875 
Q 15.796875 -0.796875 13.21875 0.015625 
Q 10.65625 0.84375 8.75 2.5 
Q 6.84375 4.15625 5.71875 6.671875 
Q 4.59375 9.203125 4.59375 12.65625 
Q 4.59375 15.65625 6.25 18.421875 
Q 7.90625 21.203125 11.578125 23.34375 
Q 15.25 25.5 21.203125 26.875 
Q 27.15625 28.25 35.75 28.453125 
L 35.75 32.40625 
Q 35.75 38.296875 33.21875 41.3125 
Q 30.703125 44.34375 25.75 44.34375 
Q 22.5 44.34375 20.265625 43.515625 
Q 18.046875 42.703125 16.421875 41.671875 
Q 14.796875 40.65625 13.625 39.828125 
Q 12.453125 39 11.296875 39 
Q 10.40625 39 9.71875 39.46875 
Q 9.046875 39.953125 8.65625 40.65625 
L 7.046875 43.5 
Q 11.25 47.546875 16.09375 49.546875 
Q 20.953125 51.546875 26.84375 51.546875 
Q 31.09375 51.546875 34.390625 50.140625 
Q 37.703125 48.75 39.953125 46.25 
Q 42.203125 43.75 43.34375 40.203125 
Q 44.5 36.65625 44.5 32.40625 
z
M 21.40625 5.453125 
Q 23.75 5.453125 25.703125 5.921875 
Q 27.65625 6.40625 29.375 7.28125 
Q 31.09375 8.15625 32.671875 9.40625 
Q 34.25 10.65625 35.75 12.25 
L 35.75 22.796875 
Q 29.59375 22.59375 25.296875 21.8125 
Q 21 21.046875 18.296875 19.796875 
Q 15.59375 18.546875 14.375 16.84375 
Q 13.15625 15.15625 13.15625 13.046875 
Q 13.15625 11.046875 13.796875 9.59375 
Q 14.453125 8.15625 15.546875 7.21875 
Q 16.65625 6.296875 18.15625 5.875 
Q 19.65625 5.453125 21.40625 5.453125 
z
" id="Lato-Regular-61"/>
     <path d="M 7.296875 0 
L 7.296875 50.65625 
L 12.59375 50.65625 
Q 14.5 50.65625 15 48.796875 
L 15.65625 43.59375 
Q 18.453125 47.046875 21.921875 49.25 
Q 25.40625 51.453125 30 51.453125 
Q 35.15625 51.453125 38.328125 48.59375 
Q 41.5 45.75 42.90625 40.90625 
Q 43.953125 43.65625 45.671875 45.65625 
Q 47.40625 47.65625 49.546875 48.953125 
Q 51.703125 50.25 54.125 50.84375 
Q 56.546875 51.453125 59.046875 51.453125 
Q 63.046875 51.453125 66.171875 50.171875 
Q 69.296875 48.90625 71.46875 46.453125 
Q 73.65625 44 74.796875 40.421875 
Q 75.953125 36.84375 75.953125 32.25 
L 75.953125 0 
L 67.046875 0 
L 67.046875 32.25 
Q 67.046875 38.203125 64.4375 41.265625 
Q 61.84375 44.34375 56.90625 44.34375 
Q 54.703125 44.34375 52.71875 43.5625 
Q 50.75 42.796875 49.25 41.296875 
Q 47.75 39.796875 46.875 37.515625 
Q 46 35.25 46 32.25 
L 46 0 
L 37.09375 0 
L 37.09375 32.25 
Q 37.09375 38.34375 34.640625 41.34375 
Q 32.203125 44.34375 27.5 44.34375 
Q 24.203125 44.34375 21.375 42.5625 
Q 18.546875 40.796875 16.203125 37.75 
L 16.203125 0 
z
" id="Lato-Regular-6d"/>
     <path d="M 9.296875 0 
L 9.296875 43.046875 
L 3.703125 43.703125 
Q 2.65625 43.953125 1.96875 44.46875 
Q 1.296875 45 1.296875 46 
L 1.296875 49.65625 
L 9.296875 49.65625 
L 9.296875 54.546875 
Q 9.296875 58.90625 10.515625 62.28125 
Q 11.75 65.65625 14.015625 67.96875 
Q 16.296875 70.296875 19.5 71.5 
Q 22.703125 72.703125 26.703125 72.703125 
Q 30.09375 72.703125 33 71.703125 
L 32.796875 67.25 
Q 32.75 66.25 31.953125 66.046875 
Q 31.15625 65.84375 29.703125 65.84375 
L 28.15625 65.84375 
Q 25.84375 65.84375 23.96875 65.25 
Q 22.09375 64.65625 20.75 63.296875 
Q 19.40625 61.953125 18.671875 59.75 
Q 17.953125 57.546875 17.953125 54.296875 
L 17.953125 49.65625 
L 32.59375 49.65625 
L 32.59375 43.203125 
L 18.25 43.203125 
L 18.25 0 
z
" id="Lato-Regular-66"/>
     <path d="M 19.34375 29.90625 
L 19.34375 0 
L 9.703125 0 
L 9.703125 71.65625 
L 29.953125 71.65625 
Q 36.75 71.65625 41.703125 70.28125 
Q 46.65625 68.90625 49.875 66.296875 
Q 53.09375 63.703125 54.640625 60.015625 
Q 56.203125 56.34375 56.203125 51.796875 
Q 56.203125 48 55 44.703125 
Q 53.796875 41.40625 51.515625 38.78125 
Q 49.25 36.15625 45.96875 34.296875 
Q 42.703125 32.453125 38.546875 31.5 
Q 40.34375 30.453125 41.75 28.453125 
L 62.65625 0 
L 54.046875 0 
Q 51.40625 0 50.15625 2.046875 
L 31.546875 27.65625 
Q 30.703125 28.84375 29.703125 29.375 
Q 28.703125 29.90625 26.703125 29.90625 
z
M 19.34375 36.953125 
L 29.5 36.953125 
Q 33.75 36.953125 36.96875 37.96875 
Q 40.203125 39 42.375 40.875 
Q 44.546875 42.75 45.640625 45.34375 
Q 46.75 47.953125 46.75 51.09375 
Q 46.75 57.5 42.515625 60.75 
Q 38.296875 64 29.953125 64 
L 19.34375 64 
z
" id="Lato-Regular-52"/>
     <path d="M 15 50.65625 
L 15 18.34375 
Q 15 12.59375 17.640625 9.4375 
Q 20.296875 6.296875 25.65625 6.296875 
Q 29.546875 6.296875 33 8.140625 
Q 36.453125 10 39.34375 13.296875 
L 39.34375 50.65625 
L 48.25 50.65625 
L 48.25 0 
L 42.953125 0 
Q 41.046875 0 40.546875 1.84375 
L 39.84375 7.296875 
Q 36.546875 3.65625 32.4375 1.421875 
Q 28.34375 -0.796875 23.046875 -0.796875 
Q 18.90625 -0.796875 15.71875 0.578125 
Q 12.546875 1.953125 10.390625 4.453125 
Q 8.25 6.953125 7.171875 10.5 
Q 6.09375 14.046875 6.09375 18.34375 
L 6.09375 50.65625 
z
" id="Lato-Regular-75"/>
     <path d="M 17.203125 73.65625 
L 17.203125 0 
L 8.296875 0 
L 8.296875 73.65625 
z
" id="Lato-Regular-6c"/>
     <path d="M 27.34375 51.453125 
Q 31.90625 51.453125 35.75 49.921875 
Q 39.59375 48.40625 42.390625 45.53125 
Q 45.203125 42.65625 46.765625 38.421875 
Q 48.34375 34.203125 48.34375 28.796875 
Q 48.34375 26.703125 47.890625 26 
Q 47.453125 25.296875 46.203125 25.296875 
L 12.5 25.296875 
Q 12.59375 20.5 13.796875 16.953125 
Q 15 13.40625 17.09375 11.03125 
Q 19.203125 8.65625 22.09375 7.46875 
Q 25 6.296875 28.59375 6.296875 
Q 31.953125 6.296875 34.375 7.0625 
Q 36.796875 7.84375 38.546875 8.75 
Q 40.296875 9.65625 41.46875 10.421875 
Q 42.65625 11.203125 43.5 11.203125 
Q 44.59375 11.203125 45.203125 10.34375 
L 47.703125 7.09375 
Q 46.046875 5.09375 43.75 3.625 
Q 41.453125 2.15625 38.828125 1.203125 
Q 36.203125 0.25 33.390625 -0.21875 
Q 30.59375 -0.703125 27.84375 -0.703125 
Q 22.59375 -0.703125 18.171875 1.0625 
Q 13.75 2.84375 10.515625 6.265625 
Q 7.296875 9.703125 5.5 14.75 
Q 3.703125 19.796875 3.703125 26.34375 
Q 3.703125 31.65625 5.328125 36.25 
Q 6.953125 40.84375 10 44.21875 
Q 13.046875 47.59375 17.4375 49.515625 
Q 21.84375 51.453125 27.34375 51.453125 
z
M 27.546875 44.90625 
Q 21.09375 44.90625 17.390625 41.171875 
Q 13.703125 37.453125 12.796875 30.84375 
L 40.34375 30.84375 
Q 40.34375 33.953125 39.5 36.515625 
Q 38.65625 39.09375 37 40.96875 
Q 35.34375 42.84375 32.96875 43.875 
Q 30.59375 44.90625 27.546875 44.90625 
z
" id="Lato-Regular-65"/>
     <path d="M 18.40625 8.15625 
L 49.40625 8.15625 
L 49.40625 0 
L 8.703125 0 
L 8.703125 71.65625 
L 18.40625 71.65625 
z
" id="Lato-Regular-4c"/>
     <path d="M 0.703125 50.65625 
L 7.703125 50.65625 
Q 8.796875 50.65625 9.5 50.09375 
Q 10.203125 49.546875 10.453125 48.796875 
L 20.15625 16.203125 
Q 20.546875 14.40625 20.890625 12.71875 
Q 21.25 11.046875 21.5 9.34375 
Q 21.90625 11.046875 22.40625 12.71875 
Q 22.90625 14.40625 23.453125 16.203125 
L 34.15625 49 
Q 34.40625 49.75 35.03125 50.25 
Q 35.65625 50.75 36.59375 50.75 
L 40.453125 50.75 
Q 41.453125 50.75 42.09375 50.25 
Q 42.75 49.75 43 49 
L 53.453125 16.203125 
Q 54 14.453125 54.421875 12.75 
Q 54.84375 11.046875 55.25 9.40625 
Q 55.5 11.046875 55.890625 12.84375 
Q 56.296875 14.65625 56.75 16.203125 
L 66.65625 48.796875 
Q 66.90625 49.59375 67.59375 50.125 
Q 68.296875 50.65625 69.25 50.65625 
L 75.953125 50.65625 
L 59.546875 0 
L 52.5 0 
Q 51.203125 0 50.703125 1.703125 
L 39.5 36.046875 
Q 39.09375 37.203125 38.84375 38.375 
Q 38.59375 39.546875 38.34375 40.703125 
Q 38.09375 39.546875 37.84375 38.34375 
Q 37.59375 37.15625 37.203125 36 
L 25.84375 1.703125 
Q 25.296875 0 23.796875 0 
L 17.09375 0 
z
" id="Lato-Regular-77"/>
     <path d="M 45.40625 60.453125 
Q 44.953125 59.703125 44.453125 59.328125 
Q 43.953125 58.953125 43.15625 58.953125 
Q 42.296875 58.953125 41.171875 59.796875 
Q 40.046875 60.65625 38.3125 61.671875 
Q 36.59375 62.703125 34.171875 63.546875 
Q 31.75 64.40625 28.296875 64.40625 
Q 25.046875 64.40625 22.546875 63.53125 
Q 20.046875 62.65625 18.375 61.15625 
Q 16.703125 59.65625 15.84375 57.625 
Q 15 55.59375 15 53.25 
Q 15 50.25 16.46875 48.265625 
Q 17.953125 46.296875 20.375 44.890625 
Q 22.796875 43.5 25.875 42.46875 
Q 28.953125 41.453125 32.171875 40.34375 
Q 35.40625 39.25 38.46875 37.875 
Q 41.546875 36.5 43.96875 34.390625 
Q 46.40625 32.296875 47.875 29.25 
Q 49.34375 26.203125 49.34375 21.75 
Q 49.34375 17.046875 47.75 12.921875 
Q 46.15625 8.796875 43.078125 5.75 
Q 40 2.703125 35.515625 0.953125 
Q 31.046875 -0.796875 25.34375 -0.796875 
Q 18.40625 -0.796875 12.671875 1.71875 
Q 6.953125 4.25 2.90625 8.546875 
L 5.703125 13.15625 
Q 6.09375 13.703125 6.671875 14.078125 
Q 7.25 14.453125 7.953125 14.453125 
Q 9 14.453125 10.34375 13.328125 
Q 11.703125 12.203125 13.71875 10.84375 
Q 15.75 9.5 18.625 8.375 
Q 21.5 7.25 25.65625 7.25 
Q 29.09375 7.25 31.796875 8.203125 
Q 34.5 9.15625 36.375 10.875 
Q 38.25 12.59375 39.25 15 
Q 40.25 17.40625 40.25 20.34375 
Q 40.25 23.59375 38.765625 25.671875 
Q 37.296875 27.75 34.890625 29.140625 
Q 32.5 30.546875 29.421875 31.515625 
Q 26.34375 32.5 23.125 33.515625 
Q 19.90625 34.546875 16.828125 35.890625 
Q 13.75 37.25 11.34375 39.390625 
Q 8.953125 41.546875 7.46875 44.765625 
Q 6 48 6 52.75 
Q 6 56.546875 7.46875 60.09375 
Q 8.953125 63.65625 11.75 66.40625 
Q 14.546875 69.15625 18.671875 70.796875 
Q 22.796875 72.453125 28.15625 72.453125 
Q 34.15625 72.453125 39.09375 70.546875 
Q 44.046875 68.65625 47.75 65.046875 
z
" id="Lato-Regular-53"/>
     <path d="M 41.84375 41.65625 
Q 41.453125 41.09375 41.046875 40.796875 
Q 40.65625 40.5 39.90625 40.5 
Q 39.15625 40.5 38.28125 41.125 
Q 37.40625 41.75 36.046875 42.5 
Q 34.703125 43.25 32.765625 43.875 
Q 30.84375 44.5 28.046875 44.5 
Q 24.34375 44.5 21.5 43.171875 
Q 18.65625 41.84375 16.71875 39.34375 
Q 14.796875 36.84375 13.8125 33.296875 
Q 12.84375 29.75 12.84375 25.34375 
Q 12.84375 20.75 13.890625 17.171875 
Q 14.953125 13.59375 16.84375 11.171875 
Q 18.75 8.75 21.46875 7.46875 
Q 24.203125 6.203125 27.59375 6.203125 
Q 30.84375 6.203125 32.9375 6.96875 
Q 35.046875 7.75 36.4375 8.703125 
Q 37.84375 9.65625 38.75 10.421875 
Q 39.65625 11.203125 40.546875 11.203125 
Q 41.703125 11.203125 42.25 10.34375 
L 44.75 7.09375 
Q 41.453125 3.046875 36.5 1.171875 
Q 31.546875 -0.703125 26.046875 -0.703125 
Q 21.296875 -0.703125 17.21875 1.046875 
Q 13.15625 2.796875 10.15625 6.125 
Q 7.15625 9.453125 5.421875 14.296875 
Q 3.703125 19.15625 3.703125 25.34375 
Q 3.703125 31 5.265625 35.796875 
Q 6.84375 40.59375 9.875 44.0625 
Q 12.90625 47.546875 17.34375 49.5 
Q 21.796875 51.453125 27.546875 51.453125 
Q 32.84375 51.453125 36.9375 49.71875 
Q 41.046875 48 44.203125 44.84375 
z
" id="Lato-Regular-63"/>
    </defs>
    <g transform="translate(237.295898 60.610547)scale(0.1875 -0.1875)">
     <use xlink:href="#Lato-Regular-48"/>
     <use x="75.600006" xlink:href="#Lato-Regular-69"/>
     <use x="101.200012" xlink:href="#Lato-Regular-73"/>
     <use x="144.600021" xlink:href="#Lato-Regular-74"/>
     <use x="181.900024" xlink:href="#Lato-Regular-6f"/>
     <use x="237.500031" xlink:href="#Lato-Regular-67"/>
     <use x="288.600037" xlink:href="#Lato-Regular-72"/>
     <use x="328.884415" xlink:href="#Lato-Regular-61"/>
     <use x="379.584427" xlink:href="#Lato-Regular-6d"/>
     <use x="461.684433" xlink:href="#Lato-Regular-20"/>
     <use x="480.984436" xlink:href="#Lato-Regular-6f"/>
     <use x="536.584442" xlink:href="#Lato-Regular-66"/>
     <use x="570.284439" xlink:href="#Lato-Regular-20"/>
     <use x="589.584442" xlink:href="#Lato-Regular-52"/>
     <use x="653.984451" xlink:href="#Lato-Regular-75"/>
     <use x="709.584457" xlink:href="#Lato-Regular-6c"/>
     <use x="735.184464" xlink:href="#Lato-Regular-65"/>
     <use x="787.584473" xlink:href="#Lato-Regular-20"/>
     <use x="806.884476" xlink:href="#Lato-Regular-6f"/>
     <use x="862.484482" xlink:href="#Lato-Regular-66"/>
     <use x="896.184479" xlink:href="#Lato-Regular-20"/>
     <use x="915.484482" xlink:href="#Lato-Regular-4c"/>
     <use x="966.884491" xlink:href="#Lato-Regular-61"/>
     <use x="1017.584503" xlink:href="#Lato-Regular-77"/>
     <use x="1094.184509" xlink:href="#Lato-Regular-20"/>
     <use x="1113.484512" xlink:href="#Lato-Regular-53"/>
     <use x="1166.484512" xlink:href="#Lato-Regular-63"/>
     <use x="1213.184509" xlink:href="#Lato-Regular-6f"/>
     <use x="1268.784515" xlink:href="#Lato-Regular-72"/>
     <use x="1309.084518" xlink:href="#Lato-Regular-65"/>
     <use x="1361.484528" xlink:href="#Lato-Regular-73"/>
    </g>
    <!--  -->
    <g transform="translate(369 80.605078)scale(0.1875 -0.1875)"/>
   </g>
  </g>
 </g>
 <defs>
  <clipPath id="p30f95ea853">
   <rect height="543.6" width="558" x="90" y="86.4"/>
  </clipPath>
 </defs>
</svg>
