<?xml version="1.0" encoding="utf-8" standalone="no"?>
<!DOCTYPE svg PUBLIC "-//W3C//DTD SVG 1.1//EN"
  "http://www.w3.org/Graphics/SVG/1.1/DTD/svg11.dtd">
<!-- Created with matplotlib (http://matplotlib.org/) -->
<svg height="720pt" version="1.1" viewBox="0 0 720 720" width="720pt" xmlns="http://www.w3.org/2000/svg" xmlns:xlink="http://www.w3.org/1999/xlink">
 <defs>
  <style type="text/css">
*{stroke-linecap:butt;stroke-linejoin:round;}
  </style>
 </defs>
 <g id="figure_1">
  <g id="patch_1">
   <path d="M 0 720 
L 720 720 
L 720 0 
L 0 0 
z
" style="fill:#ffffff;"/>
  </g>
  <g id="axes_1">
   <g id="patch_2">
    <path d="M 90 630 
L 648 630 
L 648 86.4 
L 90 86.4 
z
" style="fill:#ffffff;"/>
   </g>
   <g id="PolyCollection_1">
    <path clip-path="url(#p16da886788)" d="M 115.363636 577.914002 
L 115.363636 605.290909 
L 154.384615 571.683821 
L 154.384615 571.683821 
L 154.384615 571.683821 
L 193.405594 538.166119 
L 232.426573 504.779136 
L 232.426573 504.779136 
L 232.426573 504.779136 
L 271.447552 471.589761 
L 271.447552 471.589761 
L 271.447552 471.589761 
L 271.447552 471.589761 
L 271.447552 471.589761 
L 271.447552 471.589761 
L 271.447552 471.589761 
L 271.447552 471.589761 
L 271.447552 471.589761 
L 310.468531 438.707235 
L 310.468531 438.707235 
L 310.468531 438.707235 
L 310.468531 438.707235 
L 310.468531 438.707235 
L 310.468531 438.707235 
L 310.468531 438.707235 
L 310.468531 438.707235 
L 349.48951 406.303151 
L 349.48951 406.303151 
L 349.48951 406.303151 
L 349.48951 406.303151 
L 349.48951 406.303151 
L 349.48951 406.303151 
L 349.48951 406.303151 
L 349.48951 406.303151 
L 349.48951 406.303151 
L 349.48951 406.303151 
L 349.48951 406.303151 
L 388.51049 374.609206 
L 388.51049 374.609206 
L 388.51049 374.609206 
L 388.51049 374.609206 
L 388.51049 374.609206 
L 388.51049 374.609206 
L 388.51049 374.609206 
L 388.51049 374.609206 
L 388.51049 374.609206 
L 388.51049 374.609206 
L 388.51049 374.609206 
L 388.51049 374.609206 
L 388.51049 374.609206 
L 427.531469 343.83417 
L 427.531469 343.83417 
L 427.531469 343.83417 
L 427.531469 343.83417 
L 427.531469 343.83417 
L 427.531469 343.83417 
L 466.552448 314.01205 
L 466.552448 314.01205 
L 466.552448 314.01205 
L 466.552448 314.01205 
L 466.552448 314.01205 
L 466.552448 314.01205 
L 505.573427 284.97104 
L 505.573427 284.97104 
L 505.573427 284.97104 
L 505.573427 284.97104 
L 505.573427 284.97104 
L 505.573427 284.97104 
L 505.573427 284.97104 
L 544.594406 256.472572 
L 544.594406 256.472572 
L 544.594406 256.472572 
L 544.594406 256.472572 
L 583.615385 228.324619 
L 583.615385 228.324619 
L 583.615385 228.324619 
L 583.615385 228.324619 
L 583.615385 228.324619 
L 583.615385 228.324619 
L 583.615385 228.324619 
L 583.615385 228.324619 
L 583.615385 228.324619 
L 583.615385 228.324619 
L 583.615385 228.324619 
L 583.615385 228.324619 
L 583.615385 228.324619 
L 583.615385 228.324619 
L 622.636364 200.401341 
L 622.636364 200.401341 
L 622.636364 200.401341 
L 622.636364 200.401341 
L 622.636364 200.401341 
L 622.636364 179.723117 
L 622.636364 179.723117 
L 622.636364 179.723117 
L 622.636364 179.723117 
L 622.636364 179.723117 
L 622.636364 179.723117 
L 583.615385 210.353185 
L 583.615385 210.353185 
L 583.615385 210.353185 
L 583.615385 210.353185 
L 583.615385 210.353185 
L 583.615385 210.353185 
L 583.615385 210.353185 
L 583.615385 210.353185 
L 583.615385 210.353185 
L 583.615385 210.353185 
L 583.615385 210.353185 
L 583.615385 210.353185 
L 583.615385 210.353185 
L 583.615385 210.353185 
L 544.594406 240.983254 
L 544.594406 240.983254 
L 544.594406 240.983254 
L 544.594406 240.983254 
L 505.573427 271.613322 
L 505.573427 271.613322 
L 505.573427 271.613322 
L 505.573427 271.613322 
L 505.573427 271.613322 
L 505.573427 271.613322 
L 505.573427 271.613322 
L 466.552448 302.24339 
L 466.552448 302.24339 
L 466.552448 302.24339 
L 466.552448 302.24339 
L 466.552448 302.24339 
L 466.552448 302.24339 
L 427.531469 332.873458 
L 427.531469 332.873458 
L 427.531469 332.873458 
L 427.531469 332.873458 
L 427.531469 332.873458 
L 427.531469 332.873458 
L 388.51049 363.503526 
L 388.51049 363.503526 
L 388.51049 363.503526 
L 388.51049 363.503526 
L 388.51049 363.503526 
L 388.51049 363.503526 
L 388.51049 363.503526 
L 388.51049 363.503526 
L 388.51049 363.503526 
L 388.51049 363.503526 
L 388.51049 363.503526 
L 388.51049 363.503526 
L 388.51049 363.503526 
L 349.48951 394.133594 
L 349.48951 394.133594 
L 349.48951 394.133594 
L 349.48951 394.133594 
L 349.48951 394.133594 
L 349.48951 394.133594 
L 349.48951 394.133594 
L 349.48951 394.133594 
L 349.48951 394.133594 
L 349.48951 394.133594 
L 349.48951 394.133594 
L 310.468531 424.763662 
L 310.468531 424.763662 
L 310.468531 424.763662 
L 310.468531 424.763662 
L 310.468531 424.763662 
L 310.468531 424.763662 
L 310.468531 424.763662 
L 310.468531 424.763662 
L 271.447552 455.39373 
L 271.447552 455.39373 
L 271.447552 455.39373 
L 271.447552 455.39373 
L 271.447552 455.39373 
L 271.447552 455.39373 
L 271.447552 455.39373 
L 271.447552 455.39373 
L 271.447552 455.39373 
L 232.426573 486.023798 
L 232.426573 486.023798 
L 232.426573 486.023798 
L 193.405594 516.653866 
L 154.384615 547.283934 
L 154.384615 547.283934 
L 154.384615 547.283934 
L 115.363636 577.914002 
z
" style="fill:#b2b2b2;fill-opacity:0.2;"/>
   </g>
   <g id="PolyCollection_2">
    <path clip-path="url(#p16da886788)" d="M 115.363636 577.914002 
L 115.363636 550.537094 
L 154.384615 522.884046 
L 154.384615 522.884046 
L 154.384615 522.884046 
L 193.405594 495.141612 
L 232.426573 467.26846 
L 232.426573 467.26846 
L 232.426573 467.26846 
L 271.447552 439.197699 
L 271.447552 439.197699 
L 271.447552 439.197699 
L 271.447552 439.197699 
L 271.447552 439.197699 
L 271.447552 439.197699 
L 271.447552 439.197699 
L 271.447552 439.197699 
L 271.447552 439.197699 
L 310.468531 410.820088 
L 310.468531 410.820088 
L 310.468531 410.820088 
L 310.468531 410.820088 
L 310.468531 410.820088 
L 310.468531 410.820088 
L 310.468531 410.820088 
L 310.468531 410.820088 
L 349.48951 381.964036 
L 349.48951 381.964036 
L 349.48951 381.964036 
L 349.48951 381.964036 
L 349.48951 381.964036 
L 349.48951 381.964036 
L 349.48951 381.964036 
L 349.48951 381.964036 
L 349.48951 381.964036 
L 349.48951 381.964036 
L 349.48951 381.964036 
L 388.51049 352.397846 
L 388.51049 352.397846 
L 388.51049 352.397846 
L 388.51049 352.397846 
L 388.51049 352.397846 
L 388.51049 352.397846 
L 388.51049 352.397846 
L 388.51049 352.397846 
L 388.51049 352.397846 
L 388.51049 352.397846 
L 388.51049 352.397846 
L 388.51049 352.397846 
L 388.51049 352.397846 
L 427.531469 321.912746 
L 427.531469 321.912746 
L 427.531469 321.912746 
L 427.531469 321.912746 
L 427.531469 321.912746 
L 427.531469 321.912746 
L 466.552448 290.474729 
L 466.552448 290.474729 
L 466.552448 290.474729 
L 466.552448 290.474729 
L 466.552448 290.474729 
L 466.552448 290.474729 
L 505.573427 258.255603 
L 505.573427 258.255603 
L 505.573427 258.255603 
L 505.573427 258.255603 
L 505.573427 258.255603 
L 505.573427 258.255603 
L 505.573427 258.255603 
L 544.594406 225.493935 
L 544.594406 225.493935 
L 544.594406 225.493935 
L 544.594406 225.493935 
L 583.615385 192.381752 
L 583.615385 192.381752 
L 583.615385 192.381752 
L 583.615385 192.381752 
L 583.615385 192.381752 
L 583.615385 192.381752 
L 583.615385 192.381752 
L 583.615385 192.381752 
L 583.615385 192.381752 
L 583.615385 192.381752 
L 583.615385 192.381752 
L 583.615385 192.381752 
L 583.615385 192.381752 
L 583.615385 192.381752 
L 622.636364 159.044894 
L 622.636364 159.044894 
L 622.636364 159.044894 
L 622.636364 159.044894 
L 622.636364 159.044894 
L 622.636364 179.723117 
L 622.636364 179.723117 
L 622.636364 179.723117 
L 622.636364 179.723117 
L 622.636364 179.723117 
L 622.636364 179.723117 
L 583.615385 210.353185 
L 583.615385 210.353185 
L 583.615385 210.353185 
L 583.615385 210.353185 
L 583.615385 210.353185 
L 583.615385 210.353185 
L 583.615385 210.353185 
L 583.615385 210.353185 
L 583.615385 210.353185 
L 583.615385 210.353185 
L 583.615385 210.353185 
L 583.615385 210.353185 
L 583.615385 210.353185 
L 583.615385 210.353185 
L 544.594406 240.983254 
L 544.594406 240.983254 
L 544.594406 240.983254 
L 544.594406 240.983254 
L 505.573427 271.613322 
L 505.573427 271.613322 
L 505.573427 271.613322 
L 505.573427 271.613322 
L 505.573427 271.613322 
L 505.573427 271.613322 
L 505.573427 271.613322 
L 466.552448 302.24339 
L 466.552448 302.24339 
L 466.552448 302.24339 
L 466.552448 302.24339 
L 466.552448 302.24339 
L 466.552448 302.24339 
L 427.531469 332.873458 
L 427.531469 332.873458 
L 427.531469 332.873458 
L 427.531469 332.873458 
L 427.531469 332.873458 
L 427.531469 332.873458 
L 388.51049 363.503526 
L 388.51049 363.503526 
L 388.51049 363.503526 
L 388.51049 363.503526 
L 388.51049 363.503526 
L 388.51049 363.503526 
L 388.51049 363.503526 
L 388.51049 363.503526 
L 388.51049 363.503526 
L 388.51049 363.503526 
L 388.51049 363.503526 
L 388.51049 363.503526 
L 388.51049 363.503526 
L 349.48951 394.133594 
L 349.48951 394.133594 
L 349.48951 394.133594 
L 349.48951 394.133594 
L 349.48951 394.133594 
L 349.48951 394.133594 
L 349.48951 394.133594 
L 349.48951 394.133594 
L 349.48951 394.133594 
L 349.48951 394.133594 
L 349.48951 394.133594 
L 310.468531 424.763662 
L 310.468531 424.763662 
L 310.468531 424.763662 
L 310.468531 424.763662 
L 310.468531 424.763662 
L 310.468531 424.763662 
L 310.468531 424.763662 
L 310.468531 424.763662 
L 271.447552 455.39373 
L 271.447552 455.39373 
L 271.447552 455.39373 
L 271.447552 455.39373 
L 271.447552 455.39373 
L 271.447552 455.39373 
L 271.447552 455.39373 
L 271.447552 455.39373 
L 271.447552 455.39373 
L 232.426573 486.023798 
L 232.426573 486.023798 
L 232.426573 486.023798 
L 193.405594 516.653866 
L 154.384615 547.283934 
L 154.384615 547.283934 
L 154.384615 547.283934 
L 115.363636 577.914002 
z
" style="fill:#b2b2b2;fill-opacity:0.2;"/>
   </g>
   <g id="matplotlib.axis_1">
    <g id="xtick_1">
     <g id="line2d_1"/>
     <g id="text_1">
      <!-- 5 -->
      <defs>
       <path d="M 10.796875 72.90625 
L 49.515625 72.90625 
L 49.515625 64.59375 
L 19.828125 64.59375 
L 19.828125 46.734375 
Q 21.96875 47.46875 24.109375 47.828125 
Q 26.265625 48.1875 28.421875 48.1875 
Q 40.625 48.1875 47.75 41.5 
Q 54.890625 34.8125 54.890625 23.390625 
Q 54.890625 11.625 47.5625 5.09375 
Q 40.234375 -1.421875 26.90625 -1.421875 
Q 22.3125 -1.421875 17.546875 -0.640625 
Q 12.796875 0.140625 7.71875 1.703125 
L 7.71875 11.625 
Q 12.109375 9.234375 16.796875 8.0625 
Q 21.484375 6.890625 26.703125 6.890625 
Q 35.15625 6.890625 40.078125 11.328125 
Q 45.015625 15.765625 45.015625 23.390625 
Q 45.015625 31 40.078125 35.4375 
Q 35.15625 39.890625 26.703125 39.890625 
Q 22.75 39.890625 18.8125 39.015625 
Q 14.890625 38.140625 10.796875 36.28125 
z
" id="DejaVuSans-35"/>
      </defs>
      <g style="fill:#404040;" transform="translate(188.633719 651.297656)scale(0.15 -0.15)">
       <use xlink:href="#DejaVuSans-35"/>
      </g>
     </g>
    </g>
    <g id="xtick_2">
     <g id="line2d_2"/>
     <g id="text_2">
      <!-- 10 -->
      <defs>
       <path d="M 12.40625 8.296875 
L 28.515625 8.296875 
L 28.515625 63.921875 
L 10.984375 60.40625 
L 10.984375 69.390625 
L 28.421875 72.90625 
L 38.28125 72.90625 
L 38.28125 8.296875 
L 54.390625 8.296875 
L 54.390625 0 
L 12.40625 0 
z
" id="DejaVuSans-31"/>
       <path d="M 31.78125 66.40625 
Q 24.171875 66.40625 20.328125 58.90625 
Q 16.5 51.421875 16.5 36.375 
Q 16.5 21.390625 20.328125 13.890625 
Q 24.171875 6.390625 31.78125 6.390625 
Q 39.453125 6.390625 43.28125 13.890625 
Q 47.125 21.390625 47.125 36.375 
Q 47.125 51.421875 43.28125 58.90625 
Q 39.453125 66.40625 31.78125 66.40625 
z
M 31.78125 74.21875 
Q 44.046875 74.21875 50.515625 64.515625 
Q 56.984375 54.828125 56.984375 36.375 
Q 56.984375 17.96875 50.515625 8.265625 
Q 44.046875 -1.421875 31.78125 -1.421875 
Q 19.53125 -1.421875 13.0625 8.265625 
Q 6.59375 17.96875 6.59375 36.375 
Q 6.59375 54.828125 13.0625 64.515625 
Q 19.53125 74.21875 31.78125 74.21875 
z
" id="DejaVuSans-30"/>
      </defs>
      <g style="fill:#404040;" transform="translate(378.96674 651.297656)scale(0.15 -0.15)">
       <use xlink:href="#DejaVuSans-31"/>
       <use x="63.623047" xlink:href="#DejaVuSans-30"/>
      </g>
     </g>
    </g>
    <g id="xtick_3">
     <g id="line2d_3"/>
     <g id="text_3">
      <!-- 15 -->
      <g style="fill:#404040;" transform="translate(574.071635 651.297656)scale(0.15 -0.15)">
       <use xlink:href="#DejaVuSans-31"/>
       <use x="63.623047" xlink:href="#DejaVuSans-35"/>
      </g>
     </g>
    </g>
    <g id="text_4">
     <!-- Autonomy -->
     <defs>
      <path d="M 67.65625 0 
L 60.15625 0 
Q 58.84375 0 58.046875 0.640625 
Q 57.25 1.296875 56.84375 2.296875 
L 50.15625 19.59375 
L 18 19.59375 
L 11.296875 2.296875 
Q 10.953125 1.40625 10.09375 0.703125 
Q 9.25 0 8 0 
L 0.5 0 
L 29.15625 71.65625 
L 39 71.65625 
z
M 20.703125 26.59375 
L 47.453125 26.59375 
L 36.203125 55.75 
Q 35.09375 58.453125 34.046875 62.5 
Q 33.5 60.453125 32.96875 58.71875 
Q 32.453125 57 31.953125 55.703125 
z
" id="Lato-Regular-41"/>
      <path d="M 15 50.65625 
L 15 18.34375 
Q 15 12.59375 17.640625 9.4375 
Q 20.296875 6.296875 25.65625 6.296875 
Q 29.546875 6.296875 33 8.140625 
Q 36.453125 10 39.34375 13.296875 
L 39.34375 50.65625 
L 48.25 50.65625 
L 48.25 0 
L 42.953125 0 
Q 41.046875 0 40.546875 1.84375 
L 39.84375 7.296875 
Q 36.546875 3.65625 32.4375 1.421875 
Q 28.34375 -0.796875 23.046875 -0.796875 
Q 18.90625 -0.796875 15.71875 0.578125 
Q 12.546875 1.953125 10.390625 4.453125 
Q 8.25 6.953125 7.171875 10.5 
Q 6.09375 14.046875 6.09375 18.34375 
L 6.09375 50.65625 
z
" id="Lato-Regular-75"/>
      <path d="M 22.65625 -0.796875 
Q 16.65625 -0.796875 13.421875 2.546875 
Q 10.203125 5.90625 10.203125 12.203125 
L 10.203125 43.203125 
L 4.09375 43.203125 
Q 3.296875 43.203125 2.75 43.671875 
Q 2.203125 44.15625 2.203125 45.15625 
L 2.203125 48.703125 
L 10.5 49.75 
L 12.546875 65.40625 
Q 12.65625 66.15625 13.203125 66.625 
Q 13.75 67.09375 14.59375 67.09375 
L 19.09375 67.09375 
L 19.09375 49.65625 
L 33.59375 49.65625 
L 33.59375 43.203125 
L 19.09375 43.203125 
L 19.09375 12.796875 
Q 19.09375 9.59375 20.640625 8.046875 
Q 22.203125 6.5 24.65625 6.5 
Q 26.046875 6.5 27.0625 6.875 
Q 28.09375 7.25 28.84375 7.703125 
Q 29.59375 8.15625 30.125 8.53125 
Q 30.65625 8.90625 31.046875 8.90625 
Q 31.75 8.90625 32.296875 8.046875 
L 34.90625 3.796875 
Q 32.59375 1.65625 29.34375 0.421875 
Q 26.09375 -0.796875 22.65625 -0.796875 
z
" id="Lato-Regular-74"/>
      <path d="M 27.796875 51.453125 
Q 33.34375 51.453125 37.8125 49.59375 
Q 42.296875 47.75 45.421875 44.34375 
Q 48.546875 40.953125 50.21875 36.125 
Q 51.90625 31.296875 51.90625 25.34375 
Q 51.90625 19.34375 50.21875 14.546875 
Q 48.546875 9.75 45.421875 6.34375 
Q 42.296875 2.953125 37.8125 1.125 
Q 33.34375 -0.703125 27.796875 -0.703125 
Q 22.25 -0.703125 17.765625 1.125 
Q 13.296875 2.953125 10.140625 6.34375 
Q 7 9.75 5.296875 14.546875 
Q 3.59375 19.34375 3.59375 25.34375 
Q 3.59375 31.296875 5.296875 36.125 
Q 7 40.953125 10.140625 44.34375 
Q 13.296875 47.75 17.765625 49.59375 
Q 22.25 51.453125 27.796875 51.453125 
z
M 27.796875 6.25 
Q 35.296875 6.25 39 11.265625 
Q 42.703125 16.296875 42.703125 25.296875 
Q 42.703125 34.34375 39 39.390625 
Q 35.296875 44.453125 27.796875 44.453125 
Q 24 44.453125 21.203125 43.140625 
Q 18.40625 41.84375 16.53125 39.390625 
Q 14.65625 36.953125 13.71875 33.375 
Q 12.796875 29.796875 12.796875 25.296875 
Q 12.796875 20.796875 13.71875 17.25 
Q 14.65625 13.703125 16.53125 11.265625 
Q 18.40625 8.84375 21.203125 7.546875 
Q 24 6.25 27.796875 6.25 
z
" id="Lato-Regular-6f"/>
      <path d="M 7.296875 0 
L 7.296875 50.65625 
L 12.59375 50.65625 
Q 14.5 50.65625 15 48.796875 
L 15.703125 43.296875 
Q 19 46.953125 23.078125 49.203125 
Q 27.15625 51.453125 32.5 51.453125 
Q 36.65625 51.453125 39.828125 50.078125 
Q 43 48.703125 45.125 46.171875 
Q 47.25 43.65625 48.34375 40.09375 
Q 49.453125 36.546875 49.453125 32.25 
L 49.453125 0 
L 40.546875 0 
L 40.546875 32.25 
Q 40.546875 38 37.921875 41.171875 
Q 35.296875 44.34375 29.90625 44.34375 
Q 25.953125 44.34375 22.515625 42.4375 
Q 19.09375 40.546875 16.203125 37.296875 
L 16.203125 0 
z
" id="Lato-Regular-6e"/>
      <path d="M 7.296875 0 
L 7.296875 50.65625 
L 12.59375 50.65625 
Q 14.5 50.65625 15 48.796875 
L 15.65625 43.59375 
Q 18.453125 47.046875 21.921875 49.25 
Q 25.40625 51.453125 30 51.453125 
Q 35.15625 51.453125 38.328125 48.59375 
Q 41.5 45.75 42.90625 40.90625 
Q 43.953125 43.65625 45.671875 45.65625 
Q 47.40625 47.65625 49.546875 48.953125 
Q 51.703125 50.25 54.125 50.84375 
Q 56.546875 51.453125 59.046875 51.453125 
Q 63.046875 51.453125 66.171875 50.171875 
Q 69.296875 48.90625 71.46875 46.453125 
Q 73.65625 44 74.796875 40.421875 
Q 75.953125 36.84375 75.953125 32.25 
L 75.953125 0 
L 67.046875 0 
L 67.046875 32.25 
Q 67.046875 38.203125 64.4375 41.265625 
Q 61.84375 44.34375 56.90625 44.34375 
Q 54.703125 44.34375 52.71875 43.5625 
Q 50.75 42.796875 49.25 41.296875 
Q 47.75 39.796875 46.875 37.515625 
Q 46 35.25 46 32.25 
L 46 0 
L 37.09375 0 
L 37.09375 32.25 
Q 37.09375 38.34375 34.640625 41.34375 
Q 32.203125 44.34375 27.5 44.34375 
Q 24.203125 44.34375 21.375 42.5625 
Q 18.546875 40.796875 16.203125 37.75 
L 16.203125 0 
z
" id="Lato-Regular-6d"/>
      <path d="M 22.15625 -14.953125 
Q 21.703125 -15.953125 21.015625 -16.546875 
Q 20.34375 -17.15625 18.953125 -17.15625 
L 12.34375 -17.15625 
L 21.59375 2.953125 
L 0.703125 50.65625 
L 8.40625 50.65625 
Q 9.546875 50.65625 10.1875 50.078125 
Q 10.84375 49.5 11.15625 48.796875 
L 24.703125 16.90625 
Q 25.15625 15.796875 25.46875 14.6875 
Q 25.796875 13.59375 26.046875 12.453125 
Q 26.40625 13.59375 26.75 14.6875 
Q 27.09375 15.796875 27.546875 16.953125 
L 40.703125 48.796875 
Q 41 49.59375 41.71875 50.125 
Q 42.453125 50.65625 43.296875 50.65625 
L 50.40625 50.65625 
z
" id="Lato-Regular-79"/>
     </defs>
     <g style="fill:#262626;" transform="translate(334.428516 675.965625)scale(0.15 -0.15)">
      <use xlink:href="#Lato-Regular-41"/>
      <use x="68.000015" xlink:href="#Lato-Regular-75"/>
      <use x="123.600021" xlink:href="#Lato-Regular-74"/>
      <use x="160.900024" xlink:href="#Lato-Regular-6f"/>
      <use x="216.500031" xlink:href="#Lato-Regular-6e"/>
      <use x="272.100037" xlink:href="#Lato-Regular-6f"/>
      <use x="327.700043" xlink:href="#Lato-Regular-6d"/>
      <use x="409.784424" xlink:href="#Lato-Regular-79"/>
     </g>
    </g>
   </g>
   <g id="matplotlib.axis_2">
    <g id="ytick_1">
     <g id="line2d_4"/>
     <g id="text_5">
      <!-- 25 -->
      <defs>
       <path d="M 19.1875 8.296875 
L 53.609375 8.296875 
L 53.609375 0 
L 7.328125 0 
L 7.328125 8.296875 
Q 12.9375 14.109375 22.625 23.890625 
Q 32.328125 33.6875 34.8125 36.53125 
Q 39.546875 41.84375 41.421875 45.53125 
Q 43.3125 49.21875 43.3125 52.78125 
Q 43.3125 58.59375 39.234375 62.25 
Q 35.15625 65.921875 28.609375 65.921875 
Q 23.96875 65.921875 18.8125 64.3125 
Q 13.671875 62.703125 7.8125 59.421875 
L 7.8125 69.390625 
Q 13.765625 71.78125 18.9375 73 
Q 24.125 74.21875 28.421875 74.21875 
Q 39.75 74.21875 46.484375 68.546875 
Q 53.21875 62.890625 53.21875 53.421875 
Q 53.21875 48.921875 51.53125 44.890625 
Q 49.859375 40.875 45.40625 35.40625 
Q 44.1875 33.984375 37.640625 27.21875 
Q 31.109375 20.453125 19.1875 8.296875 
z
" id="DejaVuSans-32"/>
      </defs>
      <g style="fill:#404040;" transform="translate(61.0125 543.978263)scale(0.15 -0.15)">
       <use xlink:href="#DejaVuSans-32"/>
       <use x="63.623047" xlink:href="#DejaVuSans-35"/>
      </g>
     </g>
    </g>
    <g id="ytick_2">
     <g id="line2d_5"/>
     <g id="text_6">
      <!-- 50 -->
      <g style="fill:#404040;" transform="translate(61.0125 362.512526)scale(0.15 -0.15)">
       <use xlink:href="#DejaVuSans-35"/>
       <use x="63.623047" xlink:href="#DejaVuSans-30"/>
      </g>
     </g>
    </g>
    <g id="ytick_3">
     <g id="line2d_6"/>
     <g id="text_7">
      <!-- 75 -->
      <defs>
       <path d="M 8.203125 72.90625 
L 55.078125 72.90625 
L 55.078125 68.703125 
L 28.609375 0 
L 18.3125 0 
L 43.21875 64.59375 
L 8.203125 64.59375 
z
" id="DejaVuSans-37"/>
      </defs>
      <g style="fill:#404040;" transform="translate(61.0125 181.04679)scale(0.15 -0.15)">
       <use xlink:href="#DejaVuSans-37"/>
       <use x="63.623047" xlink:href="#DejaVuSans-35"/>
      </g>
     </g>
    </g>
    <g id="text_8">
     <!-- Rule -->
     <defs>
      <path d="M 19.34375 29.90625 
L 19.34375 0 
L 9.703125 0 
L 9.703125 71.65625 
L 29.953125 71.65625 
Q 36.75 71.65625 41.703125 70.28125 
Q 46.65625 68.90625 49.875 66.296875 
Q 53.09375 63.703125 54.640625 60.015625 
Q 56.203125 56.34375 56.203125 51.796875 
Q 56.203125 48 55 44.703125 
Q 53.796875 41.40625 51.515625 38.78125 
Q 49.25 36.15625 45.96875 34.296875 
Q 42.703125 32.453125 38.546875 31.5 
Q 40.34375 30.453125 41.75 28.453125 
L 62.65625 0 
L 54.046875 0 
Q 51.40625 0 50.15625 2.046875 
L 31.546875 27.65625 
Q 30.703125 28.84375 29.703125 29.375 
Q 28.703125 29.90625 26.703125 29.90625 
z
M 19.34375 36.953125 
L 29.5 36.953125 
Q 33.75 36.953125 36.96875 37.96875 
Q 40.203125 39 42.375 40.875 
Q 44.546875 42.75 45.640625 45.34375 
Q 46.75 47.953125 46.75 51.09375 
Q 46.75 57.5 42.515625 60.75 
Q 38.296875 64 29.953125 64 
L 19.34375 64 
z
" id="Lato-Regular-52"/>
      <path d="M 17.203125 73.65625 
L 17.203125 0 
L 8.296875 0 
L 8.296875 73.65625 
z
" id="Lato-Regular-6c"/>
      <path d="M 27.34375 51.453125 
Q 31.90625 51.453125 35.75 49.921875 
Q 39.59375 48.40625 42.390625 45.53125 
Q 45.203125 42.65625 46.765625 38.421875 
Q 48.34375 34.203125 48.34375 28.796875 
Q 48.34375 26.703125 47.890625 26 
Q 47.453125 25.296875 46.203125 25.296875 
L 12.5 25.296875 
Q 12.59375 20.5 13.796875 16.953125 
Q 15 13.40625 17.09375 11.03125 
Q 19.203125 8.65625 22.09375 7.46875 
Q 25 6.296875 28.59375 6.296875 
Q 31.953125 6.296875 34.375 7.0625 
Q 36.796875 7.84375 38.546875 8.75 
Q 40.296875 9.65625 41.46875 10.421875 
Q 42.65625 11.203125 43.5 11.203125 
Q 44.59375 11.203125 45.203125 10.34375 
L 47.703125 7.09375 
Q 46.046875 5.09375 43.75 3.625 
Q 41.453125 2.15625 38.828125 1.203125 
Q 36.203125 0.25 33.390625 -0.21875 
Q 30.59375 -0.703125 27.84375 -0.703125 
Q 22.59375 -0.703125 18.171875 1.0625 
Q 13.75 2.84375 10.515625 6.265625 
Q 7.296875 9.703125 5.5 14.75 
Q 3.703125 19.796875 3.703125 26.34375 
Q 3.703125 31.65625 5.328125 36.25 
Q 6.953125 40.84375 10 44.21875 
Q 13.046875 47.59375 17.4375 49.515625 
Q 21.84375 51.453125 27.34375 51.453125 
z
M 27.546875 44.90625 
Q 21.09375 44.90625 17.390625 41.171875 
Q 13.703125 37.453125 12.796875 30.84375 
L 40.34375 30.84375 
Q 40.34375 33.953125 39.5 36.515625 
Q 38.65625 39.09375 37 40.96875 
Q 35.34375 42.84375 32.96875 43.875 
Q 30.59375 44.90625 27.546875 44.90625 
z
" id="Lato-Regular-65"/>
     </defs>
     <g style="fill:#262626;" transform="translate(16.1625 339.795)scale(0.15 -0.15)">
      <use xlink:href="#Lato-Regular-52"/>
      <use x="64.400009" xlink:href="#Lato-Regular-75"/>
      <use x="120.000015" xlink:href="#Lato-Regular-6c"/>
      <use x="145.600021" xlink:href="#Lato-Regular-65"/>
     </g>
     <!-- of Law -->
     <defs>
      <path d="M 9.296875 0 
L 9.296875 43.046875 
L 3.703125 43.703125 
Q 2.65625 43.953125 1.96875 44.46875 
Q 1.296875 45 1.296875 46 
L 1.296875 49.65625 
L 9.296875 49.65625 
L 9.296875 54.546875 
Q 9.296875 58.90625 10.515625 62.28125 
Q 11.75 65.65625 14.015625 67.96875 
Q 16.296875 70.296875 19.5 71.5 
Q 22.703125 72.703125 26.703125 72.703125 
Q 30.09375 72.703125 33 71.703125 
L 32.796875 67.25 
Q 32.75 66.25 31.953125 66.046875 
Q 31.15625 65.84375 29.703125 65.84375 
L 28.15625 65.84375 
Q 25.84375 65.84375 23.96875 65.25 
Q 22.09375 64.65625 20.75 63.296875 
Q 19.40625 61.953125 18.671875 59.75 
Q 17.953125 57.546875 17.953125 54.296875 
L 17.953125 49.65625 
L 32.59375 49.65625 
L 32.59375 43.203125 
L 18.25 43.203125 
L 18.25 0 
z
" id="Lato-Regular-66"/>
      <path id="Lato-Regular-20"/>
      <path d="M 18.40625 8.15625 
L 49.40625 8.15625 
L 49.40625 0 
L 8.703125 0 
L 8.703125 71.65625 
L 18.40625 71.65625 
z
" id="Lato-Regular-4c"/>
      <path d="M 44.5 0 
L 40.546875 0 
Q 39.25 0 38.453125 0.390625 
Q 37.65625 0.796875 37.40625 2.09375 
L 36.40625 6.796875 
Q 34.40625 5 32.5 3.578125 
Q 30.59375 2.15625 28.5 1.171875 
Q 26.40625 0.203125 24.03125 -0.296875 
Q 21.65625 -0.796875 18.75 -0.796875 
Q 15.796875 -0.796875 13.21875 0.015625 
Q 10.65625 0.84375 8.75 2.5 
Q 6.84375 4.15625 5.71875 6.671875 
Q 4.59375 9.203125 4.59375 12.65625 
Q 4.59375 15.65625 6.25 18.421875 
Q 7.90625 21.203125 11.578125 23.34375 
Q 15.25 25.5 21.203125 26.875 
Q 27.15625 28.25 35.75 28.453125 
L 35.75 32.40625 
Q 35.75 38.296875 33.21875 41.3125 
Q 30.703125 44.34375 25.75 44.34375 
Q 22.5 44.34375 20.265625 43.515625 
Q 18.046875 42.703125 16.421875 41.671875 
Q 14.796875 40.65625 13.625 39.828125 
Q 12.453125 39 11.296875 39 
Q 10.40625 39 9.71875 39.46875 
Q 9.046875 39.953125 8.65625 40.65625 
L 7.046875 43.5 
Q 11.25 47.546875 16.09375 49.546875 
Q 20.953125 51.546875 26.84375 51.546875 
Q 31.09375 51.546875 34.390625 50.140625 
Q 37.703125 48.75 39.953125 46.25 
Q 42.203125 43.75 43.34375 40.203125 
Q 44.5 36.65625 44.5 32.40625 
z
M 21.40625 5.453125 
Q 23.75 5.453125 25.703125 5.921875 
Q 27.65625 6.40625 29.375 7.28125 
Q 31.09375 8.15625 32.671875 9.40625 
Q 34.25 10.65625 35.75 12.25 
L 35.75 22.796875 
Q 29.59375 22.59375 25.296875 21.8125 
Q 21 21.046875 18.296875 19.796875 
Q 15.59375 18.546875 14.375 16.84375 
Q 13.15625 15.15625 13.15625 13.046875 
Q 13.15625 11.046875 13.796875 9.59375 
Q 14.453125 8.15625 15.546875 7.21875 
Q 16.65625 6.296875 18.15625 5.875 
Q 19.65625 5.453125 21.40625 5.453125 
z
" id="Lato-Regular-61"/>
      <path d="M 0.703125 50.65625 
L 7.703125 50.65625 
Q 8.796875 50.65625 9.5 50.09375 
Q 10.203125 49.546875 10.453125 48.796875 
L 20.15625 16.203125 
Q 20.546875 14.40625 20.890625 12.71875 
Q 21.25 11.046875 21.5 9.34375 
Q 21.90625 11.046875 22.40625 12.71875 
Q 22.90625 14.40625 23.453125 16.203125 
L 34.15625 49 
Q 34.40625 49.75 35.03125 50.25 
Q 35.65625 50.75 36.59375 50.75 
L 40.453125 50.75 
Q 41.453125 50.75 42.09375 50.25 
Q 42.75 49.75 43 49 
L 53.453125 16.203125 
Q 54 14.453125 54.421875 12.75 
Q 54.84375 11.046875 55.25 9.40625 
Q 55.5 11.046875 55.890625 12.84375 
Q 56.296875 14.65625 56.75 16.203125 
L 66.65625 48.796875 
Q 66.90625 49.59375 67.59375 50.125 
Q 68.296875 50.65625 69.25 50.65625 
L 75.953125 50.65625 
L 59.546875 0 
L 52.5 0 
Q 51.203125 0 50.703125 1.703125 
L 39.5 36.046875 
Q 39.09375 37.203125 38.84375 38.375 
Q 38.59375 39.546875 38.34375 40.703125 
Q 38.09375 39.546875 37.84375 38.34375 
Q 37.59375 37.15625 37.203125 36 
L 25.84375 1.703125 
Q 25.296875 0 23.796875 0 
L 17.09375 0 
z
" id="Lato-Regular-77"/>
     </defs>
     <g style="fill:#262626;" transform="translate(9.465234 355.626562)scale(0.15 -0.15)">
      <use xlink:href="#Lato-Regular-6f"/>
      <use x="55.600006" xlink:href="#Lato-Regular-66"/>
      <use x="89.300003" xlink:href="#Lato-Regular-20"/>
      <use x="108.600006" xlink:href="#Lato-Regular-4c"/>
      <use x="160.000015" xlink:href="#Lato-Regular-61"/>
      <use x="210.700027" xlink:href="#Lato-Regular-77"/>
     </g>
    </g>
   </g>
   <g id="line2d_7">
    <defs>
     <path d="M 0 2 
C 0.530406 2 1.03916 1.789267 1.414214 1.414214 
C 1.789267 1.03916 2 0.530406 2 0 
C 2 -0.530406 1.789267 -1.03916 1.414214 -1.414214 
C 1.03916 -1.789267 0.530406 -2 0 -2 
C -0.530406 -2 -1.03916 -1.789267 -1.414214 -1.414214 
C -1.789267 -1.03916 -2 -0.530406 -2 0 
C -2 0.530406 -1.789267 1.03916 -1.414214 1.414214 
C -1.03916 1.789267 -0.530406 2 0 2 
z
" id="m8f6419d76b" style="stroke:#000000;"/>
    </defs>
    <g clip-path="url(#p16da886788)">
     <use style="stroke:#000000;" x="115.363636" xlink:href="#m8f6419d76b" y="498.865077"/>
     <use style="stroke:#000000;" x="154.384615" xlink:href="#m8f6419d76b" y="526.23011"/>
     <use style="stroke:#000000;" x="154.384615" xlink:href="#m8f6419d76b" y="454.442265"/>
     <use style="stroke:#000000;" x="154.384615" xlink:href="#m8f6419d76b" y="504.526808"/>
     <use style="stroke:#000000;" x="193.405594" xlink:href="#m8f6419d76b" y="477.089188"/>
     <use style="stroke:#000000;" x="232.426573" xlink:href="#m8f6419d76b" y="434.263275"/>
     <use style="stroke:#000000;" x="232.426573" xlink:href="#m8f6419d76b" y="475.274531"/>
     <use style="stroke:#000000;" x="232.426573" xlink:href="#m8f6419d76b" y="511.495092"/>
     <use style="stroke:#000000;" x="271.447552" xlink:href="#m8f6419d76b" y="460.176582"/>
     <use style="stroke:#000000;" x="271.447552" xlink:href="#m8f6419d76b" y="456.837612"/>
     <use style="stroke:#000000;" x="271.447552" xlink:href="#m8f6419d76b" y="399.421853"/>
     <use style="stroke:#000000;" x="271.447552" xlink:href="#m8f6419d76b" y="419.746016"/>
     <use style="stroke:#000000;" x="271.447552" xlink:href="#m8f6419d76b" y="404.285135"/>
     <use style="stroke:#000000;" x="271.447552" xlink:href="#m8f6419d76b" y="500.752321"/>
     <use style="stroke:#000000;" x="271.447552" xlink:href="#m8f6419d76b" y="517.664927"/>
     <use style="stroke:#000000;" x="271.447552" xlink:href="#m8f6419d76b" y="461.846067"/>
     <use style="stroke:#000000;" x="271.447552" xlink:href="#m8f6419d76b" y="476.07298"/>
     <use style="stroke:#000000;" x="310.468531" xlink:href="#m8f6419d76b" y="445.296391"/>
     <use style="stroke:#000000;" x="310.468531" xlink:href="#m8f6419d76b" y="432.158272"/>
     <use style="stroke:#000000;" x="310.468531" xlink:href="#m8f6419d76b" y="436.150518"/>
     <use style="stroke:#000000;" x="310.468531" xlink:href="#m8f6419d76b" y="472.225907"/>
     <use style="stroke:#000000;" x="310.468531" xlink:href="#m8f6419d76b" y="399.49444"/>
     <use style="stroke:#000000;" x="310.468531" xlink:href="#m8f6419d76b" y="431.795341"/>
     <use style="stroke:#000000;" x="310.468531" xlink:href="#m8f6419d76b" y="439.562074"/>
     <use style="stroke:#000000;" x="310.468531" xlink:href="#m8f6419d76b" y="352.821452"/>
     <use style="stroke:#000000;" x="349.48951" xlink:href="#m8f6419d76b" y="351.587485"/>
     <use style="stroke:#000000;" x="349.48951" xlink:href="#m8f6419d76b" y="435.13431"/>
     <use style="stroke:#000000;" x="349.48951" xlink:href="#m8f6419d76b" y="385.77563"/>
     <use style="stroke:#000000;" x="349.48951" xlink:href="#m8f6419d76b" y="353.765074"/>
     <use style="stroke:#000000;" x="349.48951" xlink:href="#m8f6419d76b" y="397.389437"/>
     <use style="stroke:#000000;" x="349.48951" xlink:href="#m8f6419d76b" y="482.968678"/>
     <use style="stroke:#000000;" x="349.48951" xlink:href="#m8f6419d76b" y="378.879932"/>
     <use style="stroke:#000000;" x="349.48951" xlink:href="#m8f6419d76b" y="410.527556"/>
     <use style="stroke:#000000;" x="349.48951" xlink:href="#m8f6419d76b" y="341.788335"/>
     <use style="stroke:#000000;" x="349.48951" xlink:href="#m8f6419d76b" y="490.590239"/>
     <use style="stroke:#000000;" x="349.48951" xlink:href="#m8f6419d76b" y="476.508498"/>
     <use style="stroke:#000000;" x="388.51049" xlink:href="#m8f6419d76b" y="380.622003"/>
     <use style="stroke:#000000;" x="388.51049" xlink:href="#m8f6419d76b" y="378.371828"/>
     <use style="stroke:#000000;" x="388.51049" xlink:href="#m8f6419d76b" y="429.690338"/>
     <use style="stroke:#000000;" x="388.51049" xlink:href="#m8f6419d76b" y="447.764325"/>
     <use style="stroke:#000000;" x="388.51049" xlink:href="#m8f6419d76b" y="314.931406"/>
     <use style="stroke:#000000;" x="388.51049" xlink:href="#m8f6419d76b" y="435.860173"/>
     <use style="stroke:#000000;" x="388.51049" xlink:href="#m8f6419d76b" y="348.103343"/>
     <use style="stroke:#000000;" x="388.51049" xlink:href="#m8f6419d76b" y="412.705145"/>
     <use style="stroke:#000000;" x="388.51049" xlink:href="#m8f6419d76b" y="467.507798"/>
     <use style="stroke:#000000;" x="388.51049" xlink:href="#m8f6419d76b" y="378.952518"/>
     <use style="stroke:#000000;" x="388.51049" xlink:href="#m8f6419d76b" y="273.774977"/>
     <use style="stroke:#000000;" x="388.51049" xlink:href="#m8f6419d76b" y="424.17378"/>
     <use style="stroke:#000000;" x="388.51049" xlink:href="#m8f6419d76b" y="362.475429"/>
     <use style="stroke:#000000;" x="427.531469" xlink:href="#m8f6419d76b" y="344.619201"/>
     <use style="stroke:#000000;" x="427.531469" xlink:href="#m8f6419d76b" y="326.980731"/>
     <use style="stroke:#000000;" x="427.531469" xlink:href="#m8f6419d76b" y="362.838361"/>
     <use style="stroke:#000000;" x="427.531469" xlink:href="#m8f6419d76b" y="280.162571"/>
     <use style="stroke:#000000;" x="427.531469" xlink:href="#m8f6419d76b" y="423.593089"/>
     <use style="stroke:#000000;" x="427.531469" xlink:href="#m8f6419d76b" y="376.702343"/>
     <use style="stroke:#000000;" x="466.552448" xlink:href="#m8f6419d76b" y="206.269723"/>
     <use style="stroke:#000000;" x="466.552448" xlink:href="#m8f6419d76b" y="278.493086"/>
     <use style="stroke:#000000;" x="466.552448" xlink:href="#m8f6419d76b" y="390.130807"/>
     <use style="stroke:#000000;" x="466.552448" xlink:href="#m8f6419d76b" y="197.486782"/>
     <use style="stroke:#000000;" x="466.552448" xlink:href="#m8f6419d76b" y="343.530406"/>
     <use style="stroke:#000000;" x="466.552448" xlink:href="#m8f6419d76b" y="385.77563"/>
     <use style="stroke:#000000;" x="505.573427" xlink:href="#m8f6419d76b" y="196.833505"/>
     <use style="stroke:#000000;" x="505.573427" xlink:href="#m8f6419d76b" y="342.731957"/>
     <use style="stroke:#000000;" x="505.573427" xlink:href="#m8f6419d76b" y="199.011094"/>
     <use style="stroke:#000000;" x="505.573427" xlink:href="#m8f6419d76b" y="236.90114"/>
     <use style="stroke:#000000;" x="505.573427" xlink:href="#m8f6419d76b" y="359.862323"/>
     <use style="stroke:#000000;" x="505.573427" xlink:href="#m8f6419d76b" y="302.809495"/>
     <use style="stroke:#000000;" x="505.573427" xlink:href="#m8f6419d76b" y="297.22035"/>
     <use style="stroke:#000000;" x="544.594406" xlink:href="#m8f6419d76b" y="190.228152"/>
     <use style="stroke:#000000;" x="544.594406" xlink:href="#m8f6419d76b" y="190.010393"/>
     <use style="stroke:#000000;" x="544.594406" xlink:href="#m8f6419d76b" y="247.498739"/>
     <use style="stroke:#000000;" x="544.594406" xlink:href="#m8f6419d76b" y="298.309145"/>
     <use style="stroke:#000000;" x="583.615385" xlink:href="#m8f6419d76b" y="218.68198"/>
     <use style="stroke:#000000;" x="583.615385" xlink:href="#m8f6419d76b" y="165.693984"/>
     <use style="stroke:#000000;" x="583.615385" xlink:href="#m8f6419d76b" y="187.832804"/>
     <use style="stroke:#000000;" x="583.615385" xlink:href="#m8f6419d76b" y="249.313396"/>
     <use style="stroke:#000000;" x="583.615385" xlink:href="#m8f6419d76b" y="261.870825"/>
     <use style="stroke:#000000;" x="583.615385" xlink:href="#m8f6419d76b" y="188.921599"/>
     <use style="stroke:#000000;" x="583.615385" xlink:href="#m8f6419d76b" y="161.338807"/>
     <use style="stroke:#000000;" x="583.615385" xlink:href="#m8f6419d76b" y="188.776426"/>
     <use style="stroke:#000000;" x="583.615385" xlink:href="#m8f6419d76b" y="185.727802"/>
     <use style="stroke:#000000;" x="583.615385" xlink:href="#m8f6419d76b" y="202.495236"/>
     <use style="stroke:#000000;" x="583.615385" xlink:href="#m8f6419d76b" y="202.712995"/>
     <use style="stroke:#000000;" x="583.615385" xlink:href="#m8f6419d76b" y="240.748213"/>
     <use style="stroke:#000000;" x="583.615385" xlink:href="#m8f6419d76b" y="135.570672"/>
     <use style="stroke:#000000;" x="583.615385" xlink:href="#m8f6419d76b" y="262.74186"/>
     <use style="stroke:#000000;" x="622.636364" xlink:href="#m8f6419d76b" y="134.917396"/>
     <use style="stroke:#000000;" x="622.636364" xlink:href="#m8f6419d76b" y="111.109091"/>
     <use style="stroke:#000000;" x="622.636364" xlink:href="#m8f6419d76b" y="211.42335"/>
     <use style="stroke:#000000;" x="622.636364" xlink:href="#m8f6419d76b" y="122.577725"/>
     <use style="stroke:#000000;" x="622.636364" xlink:href="#m8f6419d76b" y="112.851162"/>
    </g>
   </g>
   <g id="line2d_8">
    <path clip-path="url(#p16da886788)" d="M 115.363636 577.914002 
L 154.384615 547.283934 
L 154.384615 547.283934 
L 154.384615 547.283934 
L 193.405594 516.653866 
L 232.426573 486.023798 
L 232.426573 486.023798 
L 232.426573 486.023798 
L 271.447552 455.39373 
L 271.447552 455.39373 
L 271.447552 455.39373 
L 271.447552 455.39373 
L 271.447552 455.39373 
L 271.447552 455.39373 
L 271.447552 455.39373 
L 271.447552 455.39373 
L 271.447552 455.39373 
L 310.468531 424.763662 
L 310.468531 424.763662 
L 310.468531 424.763662 
L 310.468531 424.763662 
L 310.468531 424.763662 
L 310.468531 424.763662 
L 310.468531 424.763662 
L 310.468531 424.763662 
L 349.48951 394.133594 
L 349.48951 394.133594 
L 349.48951 394.133594 
L 349.48951 394.133594 
L 349.48951 394.133594 
L 349.48951 394.133594 
L 349.48951 394.133594 
L 349.48951 394.133594 
L 349.48951 394.133594 
L 349.48951 394.133594 
L 349.48951 394.133594 
L 388.51049 363.503526 
L 388.51049 363.503526 
L 388.51049 363.503526 
L 388.51049 363.503526 
L 388.51049 363.503526 
L 388.51049 363.503526 
L 388.51049 363.503526 
L 388.51049 363.503526 
L 388.51049 363.503526 
L 388.51049 363.503526 
L 388.51049 363.503526 
L 388.51049 363.503526 
L 388.51049 363.503526 
L 427.531469 332.873458 
L 427.531469 332.873458 
L 427.531469 332.873458 
L 427.531469 332.873458 
L 427.531469 332.873458 
L 427.531469 332.873458 
L 466.552448 302.24339 
L 466.552448 302.24339 
L 466.552448 302.24339 
L 466.552448 302.24339 
L 466.552448 302.24339 
L 466.552448 302.24339 
L 505.573427 271.613322 
L 505.573427 271.613322 
L 505.573427 271.613322 
L 505.573427 271.613322 
L 505.573427 271.613322 
L 505.573427 271.613322 
L 505.573427 271.613322 
L 544.594406 240.983254 
L 544.594406 240.983254 
L 544.594406 240.983254 
L 544.594406 240.983254 
L 583.615385 210.353185 
L 583.615385 210.353185 
L 583.615385 210.353185 
L 583.615385 210.353185 
L 583.615385 210.353185 
L 583.615385 210.353185 
L 583.615385 210.353185 
L 583.615385 210.353185 
L 583.615385 210.353185 
L 583.615385 210.353185 
L 583.615385 210.353185 
L 583.615385 210.353185 
L 583.615385 210.353185 
L 583.615385 210.353185 
L 622.636364 179.723117 
L 622.636364 179.723117 
L 622.636364 179.723117 
L 622.636364 179.723117 
L 622.636364 179.723117 
" style="fill:none;opacity:0.2;stroke:#1a1a1a;stroke-linecap:square;stroke-width:2;"/>
   </g>
   <g id="patch_3">
    <path d="M 90 630 
L 90 86.4 
" style="fill:none;stroke:#1a1a1a;stroke-linecap:square;stroke-linejoin:miter;stroke-opacity:0.2;stroke-width:0.8;"/>
   </g>
   <g id="patch_4">
    <path d="M 90 630 
L 648 630 
" style="fill:none;stroke:#1a1a1a;stroke-linecap:square;stroke-linejoin:miter;stroke-opacity:0.2;stroke-width:0.8;"/>
   </g>
   <g id="text_9">
    <!-- Rule of Law vs Autonomy -->
    <defs>
     <path d="M 0.90625 50.65625 
L 8.203125 50.65625 
Q 9.25 50.65625 9.953125 50.09375 
Q 10.65625 49.546875 10.953125 48.796875 
L 23.796875 16.203125 
Q 24.5 14.40625 24.890625 12.59375 
Q 25.296875 10.796875 25.65625 9.046875 
Q 26.046875 10.796875 26.5 12.59375 
Q 26.953125 14.40625 27.65625 16.203125 
L 40.65625 48.796875 
Q 40.953125 49.59375 41.625 50.125 
Q 42.296875 50.65625 43.296875 50.65625 
L 50.25 50.65625 
L 29.59375 0 
L 21.546875 0 
z
" id="Lato-Regular-76"/>
     <path d="M 36.296875 42.296875 
Q 35.703125 41.203125 34.453125 41.203125 
Q 33.703125 41.203125 32.75 41.75 
Q 31.796875 42.296875 30.421875 42.96875 
Q 29.046875 43.65625 27.140625 44.21875 
Q 25.25 44.796875 22.65625 44.796875 
Q 20.40625 44.796875 18.59375 44.21875 
Q 16.796875 43.65625 15.515625 42.65625 
Q 14.25 41.65625 13.578125 40.328125 
Q 12.90625 39 12.90625 37.453125 
Q 12.90625 35.5 14.03125 34.203125 
Q 15.15625 32.90625 17 31.953125 
Q 18.84375 31 21.1875 30.265625 
Q 23.546875 29.546875 26.015625 28.71875 
Q 28.5 27.90625 30.84375 26.90625 
Q 33.203125 25.90625 35.046875 24.40625 
Q 36.90625 22.90625 38.03125 20.71875 
Q 39.15625 18.546875 39.15625 15.5 
Q 39.15625 12 37.90625 9.015625 
Q 36.65625 6.046875 34.203125 3.875 
Q 31.75 1.703125 28.203125 0.453125 
Q 24.65625 -0.796875 20 -0.796875 
Q 14.703125 -0.796875 10.390625 0.921875 
Q 6.09375 2.65625 3.09375 5.34375 
L 5.203125 8.75 
Q 5.59375 9.40625 6.140625 9.75 
Q 6.703125 10.09375 7.59375 10.09375 
Q 8.5 10.09375 9.5 9.390625 
Q 10.5 8.703125 11.921875 7.84375 
Q 13.34375 7 15.375 6.296875 
Q 17.40625 5.59375 20.453125 5.59375 
Q 23.046875 5.59375 25 6.265625 
Q 26.953125 6.953125 28.25 8.09375 
Q 29.546875 9.25 30.171875 10.75 
Q 30.796875 12.25 30.796875 13.953125 
Q 30.796875 16.046875 29.671875 17.421875 
Q 28.546875 18.796875 26.6875 19.765625 
Q 24.84375 20.75 22.46875 21.46875 
Q 20.09375 22.203125 17.625 23 
Q 15.15625 23.796875 12.78125 24.8125 
Q 10.40625 25.84375 8.546875 27.390625 
Q 6.703125 28.953125 5.578125 31.21875 
Q 4.453125 33.5 4.453125 36.75 
Q 4.453125 39.65625 5.640625 42.328125 
Q 6.84375 45 9.140625 47.015625 
Q 11.453125 49.046875 14.796875 50.25 
Q 18.15625 51.453125 22.453125 51.453125 
Q 27.453125 51.453125 31.421875 49.875 
Q 35.40625 48.296875 38.296875 45.546875 
z
" id="Lato-Regular-73"/>
    </defs>
    <g transform="translate(265.992188 60.610547)scale(0.1875 -0.1875)">
     <use xlink:href="#Lato-Regular-52"/>
     <use x="64.400009" xlink:href="#Lato-Regular-75"/>
     <use x="120.000015" xlink:href="#Lato-Regular-6c"/>
     <use x="145.600021" xlink:href="#Lato-Regular-65"/>
     <use x="198.000031" xlink:href="#Lato-Regular-20"/>
     <use x="217.300034" xlink:href="#Lato-Regular-6f"/>
     <use x="272.90004" xlink:href="#Lato-Regular-66"/>
     <use x="306.600037" xlink:href="#Lato-Regular-20"/>
     <use x="325.90004" xlink:href="#Lato-Regular-4c"/>
     <use x="377.300049" xlink:href="#Lato-Regular-61"/>
     <use x="428.000061" xlink:href="#Lato-Regular-77"/>
     <use x="504.600067" xlink:href="#Lato-Regular-20"/>
     <use x="523.90007" xlink:href="#Lato-Regular-76"/>
     <use x="575.100082" xlink:href="#Lato-Regular-73"/>
     <use x="618.500092" xlink:href="#Lato-Regular-20"/>
     <use x="637.800095" xlink:href="#Lato-Regular-41"/>
     <use x="705.80011" xlink:href="#Lato-Regular-75"/>
     <use x="761.400116" xlink:href="#Lato-Regular-74"/>
     <use x="798.700119" xlink:href="#Lato-Regular-6f"/>
     <use x="854.300125" xlink:href="#Lato-Regular-6e"/>
     <use x="909.900131" xlink:href="#Lato-Regular-6f"/>
     <use x="965.500137" xlink:href="#Lato-Regular-6d"/>
     <use x="1047.584518" xlink:href="#Lato-Regular-79"/>
    </g>
    <!--  -->
    <g transform="translate(369 80.4)scale(0.1875 -0.1875)"/>
   </g>
  </g>
 </g>
 <defs>
  <clipPath id="p16da886788">
   <rect height="543.6" width="558" x="90" y="86.4"/>
  </clipPath>
 </defs>
</svg>
