<?xml version="1.0" encoding="utf-8" standalone="no"?>
<!DOCTYPE svg PUBLIC "-//W3C//DTD SVG 1.1//EN"
  "http://www.w3.org/Graphics/SVG/1.1/DTD/svg11.dtd">
<!-- Created with matplotlib (http://matplotlib.org/) -->
<svg height="720pt" version="1.1" viewBox="0 0 720 720" width="720pt" xmlns="http://www.w3.org/2000/svg" xmlns:xlink="http://www.w3.org/1999/xlink">
 <defs>
  <style type="text/css">
*{stroke-linecap:butt;stroke-linejoin:round;}
  </style>
 </defs>
 <g id="figure_1">
  <g id="patch_1">
   <path d="M 0 720 
L 720 720 
L 720 0 
L 0 0 
z
" style="fill:#ffffff;"/>
  </g>
  <g id="axes_1">
   <g id="patch_2">
    <path d="M 90 630 
L 648 630 
L 648 86.4 
L 90 86.4 
z
" style="fill:#ffffff;"/>
   </g>
   <g id="matplotlib.axis_1">
    <g id="xtick_1">
     <g id="line2d_1"/>
     <g id="text_1">
      <!-- 2002 -->
      <defs>
       <path d="M 19.1875 8.296875 
L 53.609375 8.296875 
L 53.609375 0 
L 7.328125 0 
L 7.328125 8.296875 
Q 12.9375 14.109375 22.625 23.890625 
Q 32.328125 33.6875 34.8125 36.53125 
Q 39.546875 41.84375 41.421875 45.53125 
Q 43.3125 49.21875 43.3125 52.78125 
Q 43.3125 58.59375 39.234375 62.25 
Q 35.15625 65.921875 28.609375 65.921875 
Q 23.96875 65.921875 18.8125 64.3125 
Q 13.671875 62.703125 7.8125 59.421875 
L 7.8125 69.390625 
Q 13.765625 71.78125 18.9375 73 
Q 24.125 74.21875 28.421875 74.21875 
Q 39.75 74.21875 46.484375 68.546875 
Q 53.21875 62.890625 53.21875 53.421875 
Q 53.21875 48.921875 51.53125 44.890625 
Q 49.859375 40.875 45.40625 35.40625 
Q 44.1875 33.984375 37.640625 27.21875 
Q 31.109375 20.453125 19.1875 8.296875 
z
" id="DejaVuSans-32"/>
       <path d="M 31.78125 66.40625 
Q 24.171875 66.40625 20.328125 58.90625 
Q 16.5 51.421875 16.5 36.375 
Q 16.5 21.390625 20.328125 13.890625 
Q 24.171875 6.390625 31.78125 6.390625 
Q 39.453125 6.390625 43.28125 13.890625 
Q 47.125 21.390625 47.125 36.375 
Q 47.125 51.421875 43.28125 58.90625 
Q 39.453125 66.40625 31.78125 66.40625 
z
M 31.78125 74.21875 
Q 44.046875 74.21875 50.515625 64.515625 
Q 56.984375 54.828125 56.984375 36.375 
Q 56.984375 17.96875 50.515625 8.265625 
Q 44.046875 -1.421875 31.78125 -1.421875 
Q 19.53125 -1.421875 13.0625 8.265625 
Q 6.59375 17.96875 6.59375 36.375 
Q 6.59375 54.828125 13.0625 64.515625 
Q 19.53125 74.21875 31.78125 74.21875 
z
" id="DejaVuSans-30"/>
      </defs>
      <g style="fill:#404040;" transform="translate(139.346243 647.038125)scale(0.12 -0.12)">
       <use xlink:href="#DejaVuSans-32"/>
       <use x="63.623047" xlink:href="#DejaVuSans-30"/>
       <use x="127.246094" xlink:href="#DejaVuSans-30"/>
       <use x="190.869141" xlink:href="#DejaVuSans-32"/>
      </g>
     </g>
    </g>
    <g id="xtick_2">
     <g id="line2d_2"/>
     <g id="text_2">
      <!-- 2004 -->
      <defs>
       <path d="M 37.796875 64.3125 
L 12.890625 25.390625 
L 37.796875 25.390625 
z
M 35.203125 72.90625 
L 47.609375 72.90625 
L 47.609375 25.390625 
L 58.015625 25.390625 
L 58.015625 17.1875 
L 47.609375 17.1875 
L 47.609375 0 
L 37.796875 0 
L 37.796875 17.1875 
L 4.890625 17.1875 
L 4.890625 26.703125 
z
" id="DejaVuSans-34"/>
      </defs>
      <g style="fill:#404040;" transform="translate(217.851456 647.038125)scale(0.12 -0.12)">
       <use xlink:href="#DejaVuSans-32"/>
       <use x="63.623047" xlink:href="#DejaVuSans-30"/>
       <use x="127.246094" xlink:href="#DejaVuSans-30"/>
       <use x="190.869141" xlink:href="#DejaVuSans-34"/>
      </g>
     </g>
    </g>
    <g id="xtick_3">
     <g id="line2d_3"/>
     <g id="text_3">
      <!-- 2006 -->
      <defs>
       <path d="M 33.015625 40.375 
Q 26.375 40.375 22.484375 35.828125 
Q 18.609375 31.296875 18.609375 23.390625 
Q 18.609375 15.53125 22.484375 10.953125 
Q 26.375 6.390625 33.015625 6.390625 
Q 39.65625 6.390625 43.53125 10.953125 
Q 47.40625 15.53125 47.40625 23.390625 
Q 47.40625 31.296875 43.53125 35.828125 
Q 39.65625 40.375 33.015625 40.375 
z
M 52.59375 71.296875 
L 52.59375 62.3125 
Q 48.875 64.0625 45.09375 64.984375 
Q 41.3125 65.921875 37.59375 65.921875 
Q 27.828125 65.921875 22.671875 59.328125 
Q 17.53125 52.734375 16.796875 39.40625 
Q 19.671875 43.65625 24.015625 45.921875 
Q 28.375 48.1875 33.59375 48.1875 
Q 44.578125 48.1875 50.953125 41.515625 
Q 57.328125 34.859375 57.328125 23.390625 
Q 57.328125 12.15625 50.6875 5.359375 
Q 44.046875 -1.421875 33.015625 -1.421875 
Q 20.359375 -1.421875 13.671875 8.265625 
Q 6.984375 17.96875 6.984375 36.375 
Q 6.984375 53.65625 15.1875 63.9375 
Q 23.390625 74.21875 37.203125 74.21875 
Q 40.921875 74.21875 44.703125 73.484375 
Q 48.484375 72.75 52.59375 71.296875 
z
" id="DejaVuSans-36"/>
      </defs>
      <g style="fill:#404040;" transform="translate(296.464211 647.038125)scale(0.12 -0.12)">
       <use xlink:href="#DejaVuSans-32"/>
       <use x="63.623047" xlink:href="#DejaVuSans-30"/>
       <use x="127.246094" xlink:href="#DejaVuSans-30"/>
       <use x="190.869141" xlink:href="#DejaVuSans-36"/>
      </g>
     </g>
    </g>
    <g id="xtick_4">
     <g id="line2d_4"/>
     <g id="text_4">
      <!-- 2008 -->
      <defs>
       <path d="M 31.78125 34.625 
Q 24.75 34.625 20.71875 30.859375 
Q 16.703125 27.09375 16.703125 20.515625 
Q 16.703125 13.921875 20.71875 10.15625 
Q 24.75 6.390625 31.78125 6.390625 
Q 38.8125 6.390625 42.859375 10.171875 
Q 46.921875 13.96875 46.921875 20.515625 
Q 46.921875 27.09375 42.890625 30.859375 
Q 38.875 34.625 31.78125 34.625 
z
M 21.921875 38.8125 
Q 15.578125 40.375 12.03125 44.71875 
Q 8.5 49.078125 8.5 55.328125 
Q 8.5 64.0625 14.71875 69.140625 
Q 20.953125 74.21875 31.78125 74.21875 
Q 42.671875 74.21875 48.875 69.140625 
Q 55.078125 64.0625 55.078125 55.328125 
Q 55.078125 49.078125 51.53125 44.71875 
Q 48 40.375 41.703125 38.8125 
Q 48.828125 37.15625 52.796875 32.3125 
Q 56.78125 27.484375 56.78125 20.515625 
Q 56.78125 9.90625 50.3125 4.234375 
Q 43.84375 -1.421875 31.78125 -1.421875 
Q 19.734375 -1.421875 13.25 4.234375 
Q 6.78125 9.90625 6.78125 20.515625 
Q 6.78125 27.484375 10.78125 32.3125 
Q 14.796875 37.15625 21.921875 38.8125 
z
M 18.3125 54.390625 
Q 18.3125 48.734375 21.84375 45.5625 
Q 25.390625 42.390625 31.78125 42.390625 
Q 38.140625 42.390625 41.71875 45.5625 
Q 45.3125 48.734375 45.3125 54.390625 
Q 45.3125 60.0625 41.71875 63.234375 
Q 38.140625 66.40625 31.78125 66.40625 
Q 25.390625 66.40625 21.84375 63.234375 
Q 18.3125 60.0625 18.3125 54.390625 
z
" id="DejaVuSans-38"/>
      </defs>
      <g style="fill:#404040;" transform="translate(374.969424 647.038125)scale(0.12 -0.12)">
       <use xlink:href="#DejaVuSans-32"/>
       <use x="63.623047" xlink:href="#DejaVuSans-30"/>
       <use x="127.246094" xlink:href="#DejaVuSans-30"/>
       <use x="190.869141" xlink:href="#DejaVuSans-38"/>
      </g>
     </g>
    </g>
    <g id="xtick_5">
     <g id="line2d_5"/>
     <g id="text_5">
      <!-- 2010 -->
      <defs>
       <path d="M 12.40625 8.296875 
L 28.515625 8.296875 
L 28.515625 63.921875 
L 10.984375 60.40625 
L 10.984375 69.390625 
L 28.421875 72.90625 
L 38.28125 72.90625 
L 38.28125 8.296875 
L 54.390625 8.296875 
L 54.390625 0 
L 12.40625 0 
z
" id="DejaVuSans-31"/>
      </defs>
      <g style="fill:#404040;" transform="translate(453.582179 647.038125)scale(0.12 -0.12)">
       <use xlink:href="#DejaVuSans-32"/>
       <use x="63.623047" xlink:href="#DejaVuSans-30"/>
       <use x="127.246094" xlink:href="#DejaVuSans-31"/>
       <use x="190.869141" xlink:href="#DejaVuSans-30"/>
      </g>
     </g>
    </g>
    <g id="xtick_6">
     <g id="line2d_6"/>
     <g id="text_6">
      <!-- 2012 -->
      <g style="fill:#404040;" transform="translate(532.087392 647.038125)scale(0.12 -0.12)">
       <use xlink:href="#DejaVuSans-32"/>
       <use x="63.623047" xlink:href="#DejaVuSans-30"/>
       <use x="127.246094" xlink:href="#DejaVuSans-31"/>
       <use x="190.869141" xlink:href="#DejaVuSans-32"/>
      </g>
     </g>
    </g>
    <g id="xtick_7">
     <g id="line2d_7"/>
     <g id="text_7">
      <!-- 2014 -->
      <g style="fill:#404040;" transform="translate(610.700147 647.038125)scale(0.12 -0.12)">
       <use xlink:href="#DejaVuSans-32"/>
       <use x="63.623047" xlink:href="#DejaVuSans-30"/>
       <use x="127.246094" xlink:href="#DejaVuSans-31"/>
       <use x="190.869141" xlink:href="#DejaVuSans-34"/>
      </g>
     </g>
    </g>
   </g>
   <g id="matplotlib.axis_2">
    <g id="ytick_1">
     <g id="line2d_8"/>
     <g id="text_8">
      <!-- 4 -->
      <g style="fill:#404040;" transform="translate(74.445 516.356114)scale(0.12 -0.12)">
       <use xlink:href="#DejaVuSans-34"/>
      </g>
     </g>
    </g>
    <g id="ytick_2">
     <g id="line2d_9"/>
     <g id="text_9">
      <!-- 6 -->
      <g style="fill:#404040;" transform="translate(74.445 382.793461)scale(0.12 -0.12)">
       <use xlink:href="#DejaVuSans-36"/>
      </g>
     </g>
    </g>
    <g id="ytick_3">
     <g id="line2d_10"/>
     <g id="text_10">
      <!-- 8 -->
      <g style="fill:#404040;" transform="translate(74.445 249.230807)scale(0.12 -0.12)">
       <use xlink:href="#DejaVuSans-38"/>
      </g>
     </g>
    </g>
    <g id="ytick_4">
     <g id="line2d_11"/>
     <g id="text_11">
      <!-- 10 -->
      <g style="fill:#404040;" transform="translate(66.81 115.668153)scale(0.12 -0.12)">
       <use xlink:href="#DejaVuSans-31"/>
       <use x="63.623047" xlink:href="#DejaVuSans-30"/>
      </g>
     </g>
    </g>
   </g>
   <g id="line2d_12">
    <path clip-path="url(#paba2a50a16)" d="M 115.363636 498.440786 
L 118.697419 498.440786 
L 121.708578 491.762654 
L 125.042361 485.084521 
L 128.268603 491.762654 
L 131.602386 478.406388 
L 134.828628 471.728256 
L 138.162411 451.693857 
L 141.496194 445.015725 
L 144.722435 424.981327 
L 151.28246 398.268796 
L 160.961185 398.268796 
L 164.294968 384.912531 
L 167.52121 391.590663 
L 174.081234 391.590663 
L 177.415017 398.268796 
L 183.975042 398.268796 
L 187.308825 384.912531 
L 190.535067 378.234398 
L 193.86885 391.590663 
L 197.202633 384.912531 
L 200.213792 384.912531 
L 206.773816 371.556265 
L 210.107599 358.2 
L 216.667624 371.556265 
L 220.001407 371.556265 
L 223.227649 378.234398 
L 226.561432 391.590663 
L 229.787673 398.268796 
L 233.121456 398.268796 
L 236.455239 404.946929 
L 239.57394 391.590663 
L 242.907723 404.946929 
L 249.467747 404.946929 
L 256.027772 418.303194 
L 259.361555 418.303194 
L 262.587797 411.625061 
L 265.92158 418.303194 
L 269.147821 418.303194 
L 272.481604 424.981327 
L 275.815387 418.303194 
L 278.826546 431.659459 
L 282.160329 431.659459 
L 288.720354 445.015725 
L 291.946595 445.015725 
L 295.280379 451.693857 
L 298.614162 445.015725 
L 305.174186 445.015725 
L 308.400428 451.693857 
L 311.734211 465.050123 
L 315.067994 458.37199 
L 318.079153 465.050123 
L 321.412936 465.050123 
L 324.639177 471.728256 
L 327.97296 471.728256 
L 331.199202 465.050123 
L 334.532985 465.050123 
L 337.866768 478.406388 
L 341.09301 485.084521 
L 344.426793 478.406388 
L 347.653034 485.084521 
L 350.986818 471.728256 
L 354.320601 478.406388 
L 357.331759 485.084521 
L 360.665542 478.406388 
L 363.891784 485.084521 
L 367.225567 471.728256 
L 370.451809 465.050123 
L 373.785592 471.728256 
L 377.119375 465.050123 
L 383.679399 465.050123 
L 386.905641 445.015725 
L 390.239424 445.015725 
L 393.573207 451.693857 
L 396.691907 438.337592 
L 400.02569 445.015725 
L 403.251932 418.303194 
L 409.811957 391.590663 
L 413.14574 371.556265 
L 416.479523 371.556265 
L 419.705764 344.843735 
L 423.039547 324.809337 
L 429.599572 258.02801 
L 432.933355 224.637346 
L 435.944514 197.924816 
L 439.278297 177.890418 
L 442.504539 151.177887 
L 445.838322 144.499754 
L 449.064563 144.499754 
L 452.398346 137.821622 
L 458.958371 111.109091 
L 462.292154 117.787224 
L 465.518396 117.787224 
L 468.852179 131.143489 
L 472.185962 124.465356 
L 475.197121 117.787224 
L 478.530904 117.787224 
L 481.757145 137.821622 
L 485.090928 151.177887 
L 488.31717 144.499754 
L 498.210978 144.499754 
L 501.544761 124.465356 
L 504.771002 151.177887 
L 508.104785 171.212285 
L 511.438568 177.890418 
L 514.449727 177.890418 
L 517.78351 171.212285 
L 521.009752 177.890418 
L 524.343535 171.212285 
L 527.569777 177.890418 
L 534.237343 177.890418 
L 540.797367 204.602948 
L 544.023609 211.281081 
L 547.357392 231.315479 
L 550.691175 224.637346 
L 553.809875 231.315479 
L 566.929925 231.315479 
L 570.263708 237.993612 
L 573.597491 258.02801 
L 580.157515 258.02801 
L 583.383757 251.349877 
L 586.71754 251.349877 
L 590.051323 264.706143 
L 593.062482 278.062408 
L 602.95629 278.062408 
L 606.182531 291.418673 
L 609.516314 298.096806 
L 616.076339 298.096806 
L 619.410122 311.453071 
L 622.636364 331.487469 
L 622.636364 331.487469 
" style="fill:none;stroke:#000000;stroke-linecap:square;stroke-width:1.5;"/>
   </g>
   <g id="line2d_13">
    <path clip-path="url(#paba2a50a16)" d="M 115.363636 351.521867 
L 118.697419 418.303194 
L 121.708578 418.303194 
L 125.042361 431.659459 
L 128.268603 424.981327 
L 131.602386 438.337592 
L 134.828628 431.659459 
L 141.496194 431.659459 
L 144.722435 451.693857 
L 148.056218 491.762654 
L 151.28246 505.118919 
L 154.616243 458.37199 
L 157.950026 465.050123 
L 160.961185 465.050123 
L 164.294968 451.693857 
L 167.52121 478.406388 
L 174.081234 478.406388 
L 177.415017 485.084521 
L 180.7488 478.406388 
L 183.975042 498.440786 
L 187.308825 491.762654 
L 190.535067 491.762654 
L 193.86885 498.440786 
L 197.202633 478.406388 
L 200.213792 491.762654 
L 203.547575 491.762654 
L 206.773816 511.797052 
L 210.107599 491.762654 
L 213.333841 485.084521 
L 216.667624 505.118919 
L 220.001407 498.440786 
L 223.227649 485.084521 
L 229.787673 511.797052 
L 233.121456 511.797052 
L 236.455239 491.762654 
L 239.57394 478.406388 
L 242.907723 485.084521 
L 246.133964 465.050123 
L 249.467747 491.762654 
L 252.693989 491.762654 
L 256.027772 478.406388 
L 259.361555 498.440786 
L 262.587797 498.440786 
L 265.92158 451.693857 
L 269.147821 471.728256 
L 272.481604 458.37199 
L 275.815387 498.440786 
L 278.826546 485.084521 
L 282.160329 491.762654 
L 285.386571 465.050123 
L 288.720354 491.762654 
L 291.946595 445.015725 
L 295.280379 438.337592 
L 301.840403 398.268796 
L 305.174186 424.981327 
L 308.400428 465.050123 
L 311.734211 418.303194 
L 315.067994 418.303194 
L 318.079153 431.659459 
L 321.412936 485.084521 
L 324.639177 445.015725 
L 327.97296 424.981327 
L 331.199202 458.37199 
L 334.532985 451.693857 
L 341.09301 451.693857 
L 344.426793 431.659459 
L 347.653034 424.981327 
L 350.986818 445.015725 
L 354.320601 438.337592 
L 357.331759 451.693857 
L 360.665542 438.337592 
L 363.891784 445.015725 
L 367.225567 445.015725 
L 370.451809 438.337592 
L 373.785592 445.015725 
L 377.119375 531.83145 
L 380.345616 445.015725 
L 383.679399 424.981327 
L 390.239424 465.050123 
L 393.573207 458.37199 
L 396.691907 458.37199 
L 400.02569 465.050123 
L 403.251932 445.015725 
L 406.585715 471.728256 
L 409.811957 491.762654 
L 413.14574 505.118919 
L 416.479523 491.762654 
L 419.705764 491.762654 
L 423.039547 525.153317 
L 429.599572 538.509582 
L 432.933355 545.187715 
L 435.944514 565.222113 
L 439.278297 565.222113 
L 442.504539 578.578378 
L 445.838322 578.578378 
L 449.064563 585.256511 
L 452.398346 571.900246 
L 455.732129 605.290909 
L 462.292154 565.222113 
L 465.518396 578.578378 
L 468.852179 571.900246 
L 472.185962 571.900246 
L 475.197121 578.578378 
L 478.530904 578.578378 
L 481.757145 571.900246 
L 485.090928 585.256511 
L 488.31717 578.578378 
L 498.210978 578.578378 
L 501.544761 585.256511 
L 504.771002 571.900246 
L 511.438568 585.256511 
L 514.449727 571.900246 
L 521.009752 585.256511 
L 524.343535 571.900246 
L 527.569777 571.900246 
L 530.90356 551.865848 
L 534.237343 558.54398 
L 537.463584 585.256511 
L 540.797367 578.578378 
L 547.357392 578.578378 
L 550.691175 565.222113 
L 553.809875 538.509582 
L 557.143658 558.54398 
L 560.3699 551.865848 
L 563.703683 551.865848 
L 566.929925 558.54398 
L 570.263708 558.54398 
L 573.597491 571.900246 
L 576.823732 558.54398 
L 590.051323 531.83145 
L 593.062482 558.54398 
L 599.622507 545.187715 
L 602.95629 565.222113 
L 606.182531 558.54398 
L 609.516314 558.54398 
L 612.850097 545.187715 
L 616.076339 525.153317 
L 619.410122 511.797052 
L 622.636364 558.54398 
L 622.636364 558.54398 
" style="fill:none;stroke:#999999;stroke-linecap:square;stroke-width:1.5;"/>
   </g>
   <g id="patch_3">
    <path d="M 90 630 
L 90 86.4 
" style="fill:none;stroke:#1a1a1a;stroke-linecap:square;stroke-linejoin:miter;stroke-opacity:0.2;stroke-width:0.8;"/>
   </g>
   <g id="patch_4">
    <path d="M 90 630 
L 648 630 
" style="fill:none;stroke:#1a1a1a;stroke-linecap:square;stroke-linejoin:miter;stroke-opacity:0.2;stroke-width:0.8;"/>
   </g>
   <g id="text_12">
    <!-- Unemployment and Quits -->
    <defs>
     <path d="M 36.546875 7.703125 
Q 41 7.703125 44.5 9.203125 
Q 48 10.703125 50.421875 13.390625 
Q 52.84375 16.09375 54.125 19.84375 
Q 55.40625 23.59375 55.40625 28.09375 
L 55.40625 71.65625 
L 65.046875 71.65625 
L 65.046875 28.09375 
Q 65.046875 21.90625 63.0625 16.59375 
Q 61.09375 11.296875 57.421875 7.421875 
Q 53.75 3.546875 48.453125 1.34375 
Q 43.15625 -0.84375 36.546875 -0.84375 
Q 29.953125 -0.84375 24.640625 1.34375 
Q 19.34375 3.546875 15.640625 7.421875 
Q 11.953125 11.296875 9.96875 16.59375 
Q 8 21.90625 8 28.09375 
L 8 71.65625 
L 17.65625 71.65625 
L 17.65625 28.15625 
Q 17.65625 23.65625 18.921875 19.90625 
Q 20.203125 16.15625 22.625 13.453125 
Q 25.046875 10.75 28.5625 9.21875 
Q 32.09375 7.703125 36.546875 7.703125 
z
" id="Lato-Regular-55"/>
     <path d="M 7.296875 0 
L 7.296875 50.65625 
L 12.59375 50.65625 
Q 14.5 50.65625 15 48.796875 
L 15.703125 43.296875 
Q 19 46.953125 23.078125 49.203125 
Q 27.15625 51.453125 32.5 51.453125 
Q 36.65625 51.453125 39.828125 50.078125 
Q 43 48.703125 45.125 46.171875 
Q 47.25 43.65625 48.34375 40.09375 
Q 49.453125 36.546875 49.453125 32.25 
L 49.453125 0 
L 40.546875 0 
L 40.546875 32.25 
Q 40.546875 38 37.921875 41.171875 
Q 35.296875 44.34375 29.90625 44.34375 
Q 25.953125 44.34375 22.515625 42.4375 
Q 19.09375 40.546875 16.203125 37.296875 
L 16.203125 0 
z
" id="Lato-Regular-6e"/>
     <path d="M 27.34375 51.453125 
Q 31.90625 51.453125 35.75 49.921875 
Q 39.59375 48.40625 42.390625 45.53125 
Q 45.203125 42.65625 46.765625 38.421875 
Q 48.34375 34.203125 48.34375 28.796875 
Q 48.34375 26.703125 47.890625 26 
Q 47.453125 25.296875 46.203125 25.296875 
L 12.5 25.296875 
Q 12.59375 20.5 13.796875 16.953125 
Q 15 13.40625 17.09375 11.03125 
Q 19.203125 8.65625 22.09375 7.46875 
Q 25 6.296875 28.59375 6.296875 
Q 31.953125 6.296875 34.375 7.0625 
Q 36.796875 7.84375 38.546875 8.75 
Q 40.296875 9.65625 41.46875 10.421875 
Q 42.65625 11.203125 43.5 11.203125 
Q 44.59375 11.203125 45.203125 10.34375 
L 47.703125 7.09375 
Q 46.046875 5.09375 43.75 3.625 
Q 41.453125 2.15625 38.828125 1.203125 
Q 36.203125 0.25 33.390625 -0.21875 
Q 30.59375 -0.703125 27.84375 -0.703125 
Q 22.59375 -0.703125 18.171875 1.0625 
Q 13.75 2.84375 10.515625 6.265625 
Q 7.296875 9.703125 5.5 14.75 
Q 3.703125 19.796875 3.703125 26.34375 
Q 3.703125 31.65625 5.328125 36.25 
Q 6.953125 40.84375 10 44.21875 
Q 13.046875 47.59375 17.4375 49.515625 
Q 21.84375 51.453125 27.34375 51.453125 
z
M 27.546875 44.90625 
Q 21.09375 44.90625 17.390625 41.171875 
Q 13.703125 37.453125 12.796875 30.84375 
L 40.34375 30.84375 
Q 40.34375 33.953125 39.5 36.515625 
Q 38.65625 39.09375 37 40.96875 
Q 35.34375 42.84375 32.96875 43.875 
Q 30.59375 44.90625 27.546875 44.90625 
z
" id="Lato-Regular-65"/>
     <path d="M 7.296875 0 
L 7.296875 50.65625 
L 12.59375 50.65625 
Q 14.5 50.65625 15 48.796875 
L 15.65625 43.59375 
Q 18.453125 47.046875 21.921875 49.25 
Q 25.40625 51.453125 30 51.453125 
Q 35.15625 51.453125 38.328125 48.59375 
Q 41.5 45.75 42.90625 40.90625 
Q 43.953125 43.65625 45.671875 45.65625 
Q 47.40625 47.65625 49.546875 48.953125 
Q 51.703125 50.25 54.125 50.84375 
Q 56.546875 51.453125 59.046875 51.453125 
Q 63.046875 51.453125 66.171875 50.171875 
Q 69.296875 48.90625 71.46875 46.453125 
Q 73.65625 44 74.796875 40.421875 
Q 75.953125 36.84375 75.953125 32.25 
L 75.953125 0 
L 67.046875 0 
L 67.046875 32.25 
Q 67.046875 38.203125 64.4375 41.265625 
Q 61.84375 44.34375 56.90625 44.34375 
Q 54.703125 44.34375 52.71875 43.5625 
Q 50.75 42.796875 49.25 41.296875 
Q 47.75 39.796875 46.875 37.515625 
Q 46 35.25 46 32.25 
L 46 0 
L 37.09375 0 
L 37.09375 32.25 
Q 37.09375 38.34375 34.640625 41.34375 
Q 32.203125 44.34375 27.5 44.34375 
Q 24.203125 44.34375 21.375 42.5625 
Q 18.546875 40.796875 16.203125 37.75 
L 16.203125 0 
z
" id="Lato-Regular-6d"/>
     <path d="M 7.296875 -17.15625 
L 7.296875 50.65625 
L 12.59375 50.65625 
Q 14.5 50.65625 15 48.796875 
L 15.75 42.796875 
Q 19 46.75 23.171875 49.140625 
Q 27.34375 51.546875 32.796875 51.546875 
Q 37.15625 51.546875 40.703125 49.875 
Q 44.25 48.203125 46.75 44.921875 
Q 49.25 41.65625 50.59375 36.796875 
Q 51.953125 31.953125 51.953125 25.65625 
Q 51.953125 20.046875 50.453125 15.21875 
Q 48.953125 10.40625 46.140625 6.875 
Q 43.34375 3.34375 39.265625 1.3125 
Q 35.203125 -0.703125 30.09375 -0.703125 
Q 25.40625 -0.703125 22.078125 0.84375 
Q 18.75 2.40625 16.203125 5.25 
L 16.203125 -17.15625 
z
M 29.84375 44.34375 
Q 25.5 44.34375 22.21875 42.34375 
Q 18.953125 40.34375 16.203125 36.703125 
L 16.203125 12.203125 
Q 18.65625 8.90625 21.578125 7.546875 
Q 24.5 6.203125 28.09375 6.203125 
Q 35.15625 6.203125 38.953125 11.25 
Q 42.75 16.296875 42.75 25.65625 
Q 42.75 30.59375 41.875 34.140625 
Q 41 37.703125 39.34375 39.96875 
Q 37.703125 42.25 35.296875 43.296875 
Q 32.90625 44.34375 29.84375 44.34375 
z
" id="Lato-Regular-70"/>
     <path d="M 17.203125 73.65625 
L 17.203125 0 
L 8.296875 0 
L 8.296875 73.65625 
z
" id="Lato-Regular-6c"/>
     <path d="M 27.796875 51.453125 
Q 33.34375 51.453125 37.8125 49.59375 
Q 42.296875 47.75 45.421875 44.34375 
Q 48.546875 40.953125 50.21875 36.125 
Q 51.90625 31.296875 51.90625 25.34375 
Q 51.90625 19.34375 50.21875 14.546875 
Q 48.546875 9.75 45.421875 6.34375 
Q 42.296875 2.953125 37.8125 1.125 
Q 33.34375 -0.703125 27.796875 -0.703125 
Q 22.25 -0.703125 17.765625 1.125 
Q 13.296875 2.953125 10.140625 6.34375 
Q 7 9.75 5.296875 14.546875 
Q 3.59375 19.34375 3.59375 25.34375 
Q 3.59375 31.296875 5.296875 36.125 
Q 7 40.953125 10.140625 44.34375 
Q 13.296875 47.75 17.765625 49.59375 
Q 22.25 51.453125 27.796875 51.453125 
z
M 27.796875 6.25 
Q 35.296875 6.25 39 11.265625 
Q 42.703125 16.296875 42.703125 25.296875 
Q 42.703125 34.34375 39 39.390625 
Q 35.296875 44.453125 27.796875 44.453125 
Q 24 44.453125 21.203125 43.140625 
Q 18.40625 41.84375 16.53125 39.390625 
Q 14.65625 36.953125 13.71875 33.375 
Q 12.796875 29.796875 12.796875 25.296875 
Q 12.796875 20.796875 13.71875 17.25 
Q 14.65625 13.703125 16.53125 11.265625 
Q 18.40625 8.84375 21.203125 7.546875 
Q 24 6.25 27.796875 6.25 
z
" id="Lato-Regular-6f"/>
     <path d="M 22.15625 -14.953125 
Q 21.703125 -15.953125 21.015625 -16.546875 
Q 20.34375 -17.15625 18.953125 -17.15625 
L 12.34375 -17.15625 
L 21.59375 2.953125 
L 0.703125 50.65625 
L 8.40625 50.65625 
Q 9.546875 50.65625 10.1875 50.078125 
Q 10.84375 49.5 11.15625 48.796875 
L 24.703125 16.90625 
Q 25.15625 15.796875 25.46875 14.6875 
Q 25.796875 13.59375 26.046875 12.453125 
Q 26.40625 13.59375 26.75 14.6875 
Q 27.09375 15.796875 27.546875 16.953125 
L 40.703125 48.796875 
Q 41 49.59375 41.71875 50.125 
Q 42.453125 50.65625 43.296875 50.65625 
L 50.40625 50.65625 
z
" id="Lato-Regular-79"/>
     <path d="M 22.65625 -0.796875 
Q 16.65625 -0.796875 13.421875 2.546875 
Q 10.203125 5.90625 10.203125 12.203125 
L 10.203125 43.203125 
L 4.09375 43.203125 
Q 3.296875 43.203125 2.75 43.671875 
Q 2.203125 44.15625 2.203125 45.15625 
L 2.203125 48.703125 
L 10.5 49.75 
L 12.546875 65.40625 
Q 12.65625 66.15625 13.203125 66.625 
Q 13.75 67.09375 14.59375 67.09375 
L 19.09375 67.09375 
L 19.09375 49.65625 
L 33.59375 49.65625 
L 33.59375 43.203125 
L 19.09375 43.203125 
L 19.09375 12.796875 
Q 19.09375 9.59375 20.640625 8.046875 
Q 22.203125 6.5 24.65625 6.5 
Q 26.046875 6.5 27.0625 6.875 
Q 28.09375 7.25 28.84375 7.703125 
Q 29.59375 8.15625 30.125 8.53125 
Q 30.65625 8.90625 31.046875 8.90625 
Q 31.75 8.90625 32.296875 8.046875 
L 34.90625 3.796875 
Q 32.59375 1.65625 29.34375 0.421875 
Q 26.09375 -0.796875 22.65625 -0.796875 
z
" id="Lato-Regular-74"/>
     <path id="Lato-Regular-20"/>
     <path d="M 44.5 0 
L 40.546875 0 
Q 39.25 0 38.453125 0.390625 
Q 37.65625 0.796875 37.40625 2.09375 
L 36.40625 6.796875 
Q 34.40625 5 32.5 3.578125 
Q 30.59375 2.15625 28.5 1.171875 
Q 26.40625 0.203125 24.03125 -0.296875 
Q 21.65625 -0.796875 18.75 -0.796875 
Q 15.796875 -0.796875 13.21875 0.015625 
Q 10.65625 0.84375 8.75 2.5 
Q 6.84375 4.15625 5.71875 6.671875 
Q 4.59375 9.203125 4.59375 12.65625 
Q 4.59375 15.65625 6.25 18.421875 
Q 7.90625 21.203125 11.578125 23.34375 
Q 15.25 25.5 21.203125 26.875 
Q 27.15625 28.25 35.75 28.453125 
L 35.75 32.40625 
Q 35.75 38.296875 33.21875 41.3125 
Q 30.703125 44.34375 25.75 44.34375 
Q 22.5 44.34375 20.265625 43.515625 
Q 18.046875 42.703125 16.421875 41.671875 
Q 14.796875 40.65625 13.625 39.828125 
Q 12.453125 39 11.296875 39 
Q 10.40625 39 9.71875 39.46875 
Q 9.046875 39.953125 8.65625 40.65625 
L 7.046875 43.5 
Q 11.25 47.546875 16.09375 49.546875 
Q 20.953125 51.546875 26.84375 51.546875 
Q 31.09375 51.546875 34.390625 50.140625 
Q 37.703125 48.75 39.953125 46.25 
Q 42.203125 43.75 43.34375 40.203125 
Q 44.5 36.65625 44.5 32.40625 
z
M 21.40625 5.453125 
Q 23.75 5.453125 25.703125 5.921875 
Q 27.65625 6.40625 29.375 7.28125 
Q 31.09375 8.15625 32.671875 9.40625 
Q 34.25 10.65625 35.75 12.25 
L 35.75 22.796875 
Q 29.59375 22.59375 25.296875 21.8125 
Q 21 21.046875 18.296875 19.796875 
Q 15.59375 18.546875 14.375 16.84375 
Q 13.15625 15.15625 13.15625 13.046875 
Q 13.15625 11.046875 13.796875 9.59375 
Q 14.453125 8.15625 15.546875 7.21875 
Q 16.65625 6.296875 18.15625 5.875 
Q 19.65625 5.453125 21.40625 5.453125 
z
" id="Lato-Regular-61"/>
     <path d="M 42.953125 0 
Q 41.046875 0 40.546875 1.84375 
L 39.75 8 
Q 36.5 4.046875 32.328125 1.671875 
Q 28.15625 -0.703125 22.75 -0.703125 
Q 18.40625 -0.703125 14.84375 0.96875 
Q 11.296875 2.65625 8.796875 5.90625 
Q 6.296875 9.15625 4.9375 14 
Q 3.59375 18.84375 3.59375 25.15625 
Q 3.59375 30.75 5.09375 35.578125 
Q 6.59375 40.40625 9.421875 43.953125 
Q 12.25 47.5 16.296875 49.515625 
Q 20.34375 51.546875 25.5 51.546875 
Q 30.15625 51.546875 33.453125 49.96875 
Q 36.75 48.40625 39.34375 45.546875 
L 39.34375 73.65625 
L 48.25 73.65625 
L 48.25 0 
z
M 25.703125 6.5 
Q 30.046875 6.5 33.3125 8.5 
Q 36.59375 10.5 39.34375 14.15625 
L 39.34375 38.65625 
Q 36.90625 41.953125 33.96875 43.265625 
Q 31.046875 44.59375 27.5 44.59375 
Q 20.40625 44.59375 16.59375 39.546875 
Q 12.796875 34.5 12.796875 25.15625 
Q 12.796875 20.203125 13.640625 16.671875 
Q 14.5 13.15625 16.140625 10.875 
Q 17.796875 8.59375 20.1875 7.546875 
Q 22.59375 6.5 25.703125 6.5 
z
" id="Lato-Regular-64"/>
     <path d="M 75.25 35.796875 
Q 75.25 30.75 74.21875 26.203125 
Q 73.203125 21.65625 71.25 17.71875 
Q 69.296875 13.796875 66.5 10.59375 
Q 63.703125 7.40625 60.203125 5.046875 
L 78.59375 -14.796875 
L 70.59375 -14.796875 
Q 68.796875 -14.796875 67.390625 -14.296875 
Q 66 -13.796875 64.84375 -12.546875 
L 52.25 1.15625 
Q 49.40625 0.25 46.328125 -0.25 
Q 43.25 -0.75 39.90625 -0.75 
Q 32 -0.75 25.5 1.921875 
Q 19 4.59375 14.34375 9.4375 
Q 9.703125 14.296875 7.140625 21.015625 
Q 4.59375 27.75 4.59375 35.796875 
Q 4.59375 43.84375 7.140625 50.5625 
Q 9.703125 57.296875 14.34375 62.171875 
Q 19 67.046875 25.5 69.75 
Q 32 72.453125 39.90625 72.453125 
Q 47.796875 72.453125 54.3125 69.75 
Q 60.84375 67.046875 65.5 62.171875 
Q 70.15625 57.296875 72.703125 50.5625 
Q 75.25 43.84375 75.25 35.796875 
z
M 65.296875 35.796875 
Q 65.296875 42.40625 63.5 47.65625 
Q 61.703125 52.90625 58.390625 56.53125 
Q 55.09375 60.15625 50.390625 62.09375 
Q 45.703125 64.046875 39.90625 64.046875 
Q 34.15625 64.046875 29.453125 62.09375 
Q 24.75 60.15625 21.421875 56.53125 
Q 18.09375 52.90625 16.296875 47.65625 
Q 14.5 42.40625 14.5 35.796875 
Q 14.5 29.203125 16.296875 23.96875 
Q 18.09375 18.75 21.421875 15.125 
Q 24.75 11.5 29.453125 9.578125 
Q 34.15625 7.65625 39.90625 7.65625 
Q 45.703125 7.65625 50.390625 9.578125 
Q 55.09375 11.5 58.390625 15.125 
Q 61.703125 18.75 63.5 23.96875 
Q 65.296875 29.203125 65.296875 35.796875 
z
" id="Lato-Regular-51"/>
     <path d="M 15 50.65625 
L 15 18.34375 
Q 15 12.59375 17.640625 9.4375 
Q 20.296875 6.296875 25.65625 6.296875 
Q 29.546875 6.296875 33 8.140625 
Q 36.453125 10 39.34375 13.296875 
L 39.34375 50.65625 
L 48.25 50.65625 
L 48.25 0 
L 42.953125 0 
Q 41.046875 0 40.546875 1.84375 
L 39.84375 7.296875 
Q 36.546875 3.65625 32.4375 1.421875 
Q 28.34375 -0.796875 23.046875 -0.796875 
Q 18.90625 -0.796875 15.71875 0.578125 
Q 12.546875 1.953125 10.390625 4.453125 
Q 8.25 6.953125 7.171875 10.5 
Q 6.09375 14.046875 6.09375 18.34375 
L 6.09375 50.65625 
z
" id="Lato-Regular-75"/>
     <path d="M 17.203125 50.65625 
L 17.203125 0 
L 8.296875 0 
L 8.296875 50.65625 
z
M 19.203125 66.546875 
Q 19.203125 65.25 18.671875 64.125 
Q 18.15625 63 17.28125 62.125 
Q 16.40625 61.25 15.25 60.75 
Q 14.09375 60.25 12.796875 60.25 
Q 11.5 60.25 10.375 60.75 
Q 9.25 61.25 8.375 62.125 
Q 7.5 63 7 64.125 
Q 6.5 65.25 6.5 66.546875 
Q 6.5 67.84375 7 69.015625 
Q 7.5 70.203125 8.375 71.078125 
Q 9.25 71.953125 10.375 72.453125 
Q 11.5 72.953125 12.796875 72.953125 
Q 14.09375 72.953125 15.25 72.453125 
Q 16.40625 71.953125 17.28125 71.078125 
Q 18.15625 70.203125 18.671875 69.015625 
Q 19.203125 67.84375 19.203125 66.546875 
z
" id="Lato-Regular-69"/>
     <path d="M 36.296875 42.296875 
Q 35.703125 41.203125 34.453125 41.203125 
Q 33.703125 41.203125 32.75 41.75 
Q 31.796875 42.296875 30.421875 42.96875 
Q 29.046875 43.65625 27.140625 44.21875 
Q 25.25 44.796875 22.65625 44.796875 
Q 20.40625 44.796875 18.59375 44.21875 
Q 16.796875 43.65625 15.515625 42.65625 
Q 14.25 41.65625 13.578125 40.328125 
Q 12.90625 39 12.90625 37.453125 
Q 12.90625 35.5 14.03125 34.203125 
Q 15.15625 32.90625 17 31.953125 
Q 18.84375 31 21.1875 30.265625 
Q 23.546875 29.546875 26.015625 28.71875 
Q 28.5 27.90625 30.84375 26.90625 
Q 33.203125 25.90625 35.046875 24.40625 
Q 36.90625 22.90625 38.03125 20.71875 
Q 39.15625 18.546875 39.15625 15.5 
Q 39.15625 12 37.90625 9.015625 
Q 36.65625 6.046875 34.203125 3.875 
Q 31.75 1.703125 28.203125 0.453125 
Q 24.65625 -0.796875 20 -0.796875 
Q 14.703125 -0.796875 10.390625 0.921875 
Q 6.09375 2.65625 3.09375 5.34375 
L 5.203125 8.75 
Q 5.59375 9.40625 6.140625 9.75 
Q 6.703125 10.09375 7.59375 10.09375 
Q 8.5 10.09375 9.5 9.390625 
Q 10.5 8.703125 11.921875 7.84375 
Q 13.34375 7 15.375 6.296875 
Q 17.40625 5.59375 20.453125 5.59375 
Q 23.046875 5.59375 25 6.265625 
Q 26.953125 6.953125 28.25 8.09375 
Q 29.546875 9.25 30.171875 10.75 
Q 30.796875 12.25 30.796875 13.953125 
Q 30.796875 16.046875 29.671875 17.421875 
Q 28.546875 18.796875 26.6875 19.765625 
Q 24.84375 20.75 22.46875 21.46875 
Q 20.09375 22.203125 17.625 23 
Q 15.15625 23.796875 12.78125 24.8125 
Q 10.40625 25.84375 8.546875 27.390625 
Q 6.703125 28.953125 5.578125 31.21875 
Q 4.453125 33.5 4.453125 36.75 
Q 4.453125 39.65625 5.640625 42.328125 
Q 6.84375 45 9.140625 47.015625 
Q 11.453125 49.046875 14.796875 50.25 
Q 18.15625 51.453125 22.453125 51.453125 
Q 27.453125 51.453125 31.421875 49.875 
Q 35.40625 48.296875 38.296875 45.546875 
z
" id="Lato-Regular-73"/>
    </defs>
    <g transform="translate(284.958984 64.568437)scale(0.15 -0.15)">
     <use xlink:href="#Lato-Regular-55"/>
     <use x="73.000015" xlink:href="#Lato-Regular-6e"/>
     <use x="128.600021" xlink:href="#Lato-Regular-65"/>
     <use x="181.000031" xlink:href="#Lato-Regular-6d"/>
     <use x="263.100037" xlink:href="#Lato-Regular-70"/>
     <use x="318.300049" xlink:href="#Lato-Regular-6c"/>
     <use x="343.900055" xlink:href="#Lato-Regular-6f"/>
     <use x="399.484436" xlink:href="#Lato-Regular-79"/>
     <use x="450.684448" xlink:href="#Lato-Regular-6d"/>
     <use x="532.784454" xlink:href="#Lato-Regular-65"/>
     <use x="585.184464" xlink:href="#Lato-Regular-6e"/>
     <use x="640.78447" xlink:href="#Lato-Regular-74"/>
     <use x="678.084473" xlink:href="#Lato-Regular-20"/>
     <use x="697.384476" xlink:href="#Lato-Regular-61"/>
     <use x="748.084488" xlink:href="#Lato-Regular-6e"/>
     <use x="803.684494" xlink:href="#Lato-Regular-64"/>
     <use x="859.584503" xlink:href="#Lato-Regular-20"/>
     <use x="878.884506" xlink:href="#Lato-Regular-51"/>
     <use x="958.684525" xlink:href="#Lato-Regular-75"/>
     <use x="1014.284531" xlink:href="#Lato-Regular-69"/>
     <use x="1039.884537" xlink:href="#Lato-Regular-74"/>
     <use x="1077.18454" xlink:href="#Lato-Regular-73"/>
    </g>
    <!--  -->
    <g transform="translate(369 80.4)scale(0.15 -0.15)"/>
   </g>
   <g id="legend_1">
    <g id="patch_5">
     <path d="M 245.572656 679.858125 
L 492.427344 679.858125 
Q 494.427344 679.858125 494.427344 677.858125 
L 494.427344 664.18 
Q 494.427344 662.18 492.427344 662.18 
L 245.572656 662.18 
Q 243.572656 662.18 243.572656 664.18 
L 243.572656 677.858125 
Q 243.572656 679.858125 245.572656 679.858125 
z
" style="fill:none;opacity:0;"/>
    </g>
    <g id="line2d_14">
     <path d="M 247.572656 670.278437 
L 267.572656 670.278437 
" style="fill:none;stroke:#000000;stroke-linecap:square;stroke-width:1.5;"/>
    </g>
    <g id="line2d_15"/>
    <g id="text_13">
     <!-- unemployment -->
     <defs>
      <path d="M 8.5 21.578125 
L 8.5 54.6875 
L 17.484375 54.6875 
L 17.484375 21.921875 
Q 17.484375 14.15625 20.5 10.265625 
Q 23.53125 6.390625 29.59375 6.390625 
Q 36.859375 6.390625 41.078125 11.03125 
Q 45.3125 15.671875 45.3125 23.6875 
L 45.3125 54.6875 
L 54.296875 54.6875 
L 54.296875 0 
L 45.3125 0 
L 45.3125 8.40625 
Q 42.046875 3.421875 37.71875 1 
Q 33.40625 -1.421875 27.6875 -1.421875 
Q 18.265625 -1.421875 13.375 4.4375 
Q 8.5 10.296875 8.5 21.578125 
z
M 31.109375 56 
z
" id="DejaVuSans-75"/>
      <path d="M 54.890625 33.015625 
L 54.890625 0 
L 45.90625 0 
L 45.90625 32.71875 
Q 45.90625 40.484375 42.875 44.328125 
Q 39.84375 48.1875 33.796875 48.1875 
Q 26.515625 48.1875 22.3125 43.546875 
Q 18.109375 38.921875 18.109375 30.90625 
L 18.109375 0 
L 9.078125 0 
L 9.078125 54.6875 
L 18.109375 54.6875 
L 18.109375 46.1875 
Q 21.34375 51.125 25.703125 53.5625 
Q 30.078125 56 35.796875 56 
Q 45.21875 56 50.046875 50.171875 
Q 54.890625 44.34375 54.890625 33.015625 
z
" id="DejaVuSans-6e"/>
      <path d="M 56.203125 29.59375 
L 56.203125 25.203125 
L 14.890625 25.203125 
Q 15.484375 15.921875 20.484375 11.0625 
Q 25.484375 6.203125 34.421875 6.203125 
Q 39.59375 6.203125 44.453125 7.46875 
Q 49.3125 8.734375 54.109375 11.28125 
L 54.109375 2.78125 
Q 49.265625 0.734375 44.1875 -0.34375 
Q 39.109375 -1.421875 33.890625 -1.421875 
Q 20.796875 -1.421875 13.15625 6.1875 
Q 5.515625 13.8125 5.515625 26.8125 
Q 5.515625 40.234375 12.765625 48.109375 
Q 20.015625 56 32.328125 56 
Q 43.359375 56 49.78125 48.890625 
Q 56.203125 41.796875 56.203125 29.59375 
z
M 47.21875 32.234375 
Q 47.125 39.59375 43.09375 43.984375 
Q 39.0625 48.390625 32.421875 48.390625 
Q 24.90625 48.390625 20.390625 44.140625 
Q 15.875 39.890625 15.1875 32.171875 
z
" id="DejaVuSans-65"/>
      <path d="M 52 44.1875 
Q 55.375 50.25 60.0625 53.125 
Q 64.75 56 71.09375 56 
Q 79.640625 56 84.28125 50.015625 
Q 88.921875 44.046875 88.921875 33.015625 
L 88.921875 0 
L 79.890625 0 
L 79.890625 32.71875 
Q 79.890625 40.578125 77.09375 44.375 
Q 74.3125 48.1875 68.609375 48.1875 
Q 61.625 48.1875 57.5625 43.546875 
Q 53.515625 38.921875 53.515625 30.90625 
L 53.515625 0 
L 44.484375 0 
L 44.484375 32.71875 
Q 44.484375 40.625 41.703125 44.40625 
Q 38.921875 48.1875 33.109375 48.1875 
Q 26.21875 48.1875 22.15625 43.53125 
Q 18.109375 38.875 18.109375 30.90625 
L 18.109375 0 
L 9.078125 0 
L 9.078125 54.6875 
L 18.109375 54.6875 
L 18.109375 46.1875 
Q 21.1875 51.21875 25.484375 53.609375 
Q 29.78125 56 35.6875 56 
Q 41.65625 56 45.828125 52.96875 
Q 50 49.953125 52 44.1875 
z
" id="DejaVuSans-6d"/>
      <path d="M 18.109375 8.203125 
L 18.109375 -20.796875 
L 9.078125 -20.796875 
L 9.078125 54.6875 
L 18.109375 54.6875 
L 18.109375 46.390625 
Q 20.953125 51.265625 25.265625 53.625 
Q 29.59375 56 35.59375 56 
Q 45.5625 56 51.78125 48.09375 
Q 58.015625 40.1875 58.015625 27.296875 
Q 58.015625 14.40625 51.78125 6.484375 
Q 45.5625 -1.421875 35.59375 -1.421875 
Q 29.59375 -1.421875 25.265625 0.953125 
Q 20.953125 3.328125 18.109375 8.203125 
z
M 48.6875 27.296875 
Q 48.6875 37.203125 44.609375 42.84375 
Q 40.53125 48.484375 33.40625 48.484375 
Q 26.265625 48.484375 22.1875 42.84375 
Q 18.109375 37.203125 18.109375 27.296875 
Q 18.109375 17.390625 22.1875 11.75 
Q 26.265625 6.109375 33.40625 6.109375 
Q 40.53125 6.109375 44.609375 11.75 
Q 48.6875 17.390625 48.6875 27.296875 
z
" id="DejaVuSans-70"/>
      <path d="M 9.421875 75.984375 
L 18.40625 75.984375 
L 18.40625 0 
L 9.421875 0 
z
" id="DejaVuSans-6c"/>
      <path d="M 30.609375 48.390625 
Q 23.390625 48.390625 19.1875 42.75 
Q 14.984375 37.109375 14.984375 27.296875 
Q 14.984375 17.484375 19.15625 11.84375 
Q 23.34375 6.203125 30.609375 6.203125 
Q 37.796875 6.203125 41.984375 11.859375 
Q 46.1875 17.53125 46.1875 27.296875 
Q 46.1875 37.015625 41.984375 42.703125 
Q 37.796875 48.390625 30.609375 48.390625 
z
M 30.609375 56 
Q 42.328125 56 49.015625 48.375 
Q 55.71875 40.765625 55.71875 27.296875 
Q 55.71875 13.875 49.015625 6.21875 
Q 42.328125 -1.421875 30.609375 -1.421875 
Q 18.84375 -1.421875 12.171875 6.21875 
Q 5.515625 13.875 5.515625 27.296875 
Q 5.515625 40.765625 12.171875 48.375 
Q 18.84375 56 30.609375 56 
z
" id="DejaVuSans-6f"/>
      <path d="M 32.171875 -5.078125 
Q 28.375 -14.84375 24.75 -17.8125 
Q 21.140625 -20.796875 15.09375 -20.796875 
L 7.90625 -20.796875 
L 7.90625 -13.28125 
L 13.1875 -13.28125 
Q 16.890625 -13.28125 18.9375 -11.515625 
Q 21 -9.765625 23.484375 -3.21875 
L 25.09375 0.875 
L 2.984375 54.6875 
L 12.5 54.6875 
L 29.59375 11.921875 
L 46.6875 54.6875 
L 56.203125 54.6875 
z
" id="DejaVuSans-79"/>
      <path d="M 18.3125 70.21875 
L 18.3125 54.6875 
L 36.8125 54.6875 
L 36.8125 47.703125 
L 18.3125 47.703125 
L 18.3125 18.015625 
Q 18.3125 11.328125 20.140625 9.421875 
Q 21.96875 7.515625 27.59375 7.515625 
L 36.8125 7.515625 
L 36.8125 0 
L 27.59375 0 
Q 17.1875 0 13.234375 3.875 
Q 9.28125 7.765625 9.28125 18.015625 
L 9.28125 47.703125 
L 2.6875 47.703125 
L 2.6875 54.6875 
L 9.28125 54.6875 
L 9.28125 70.21875 
z
" id="DejaVuSans-74"/>
     </defs>
     <g transform="translate(275.572656 673.778437)scale(0.1 -0.1)">
      <use xlink:href="#DejaVuSans-75"/>
      <use x="63.378906" xlink:href="#DejaVuSans-6e"/>
      <use x="126.757812" xlink:href="#DejaVuSans-65"/>
      <use x="188.28125" xlink:href="#DejaVuSans-6d"/>
      <use x="285.693359" xlink:href="#DejaVuSans-70"/>
      <use x="349.169922" xlink:href="#DejaVuSans-6c"/>
      <use x="376.953125" xlink:href="#DejaVuSans-6f"/>
      <use x="438.134766" xlink:href="#DejaVuSans-79"/>
      <use x="497.314453" xlink:href="#DejaVuSans-6d"/>
      <use x="594.726562" xlink:href="#DejaVuSans-65"/>
      <use x="656.25" xlink:href="#DejaVuSans-6e"/>
      <use x="719.628906" xlink:href="#DejaVuSans-74"/>
     </g>
    </g>
    <g id="line2d_16">
     <path d="M 371.457031 670.278437 
L 391.457031 670.278437 
" style="fill:none;stroke:#999999;stroke-linecap:square;stroke-width:1.5;"/>
    </g>
    <g id="line2d_17"/>
    <g id="text_14">
     <!-- service work quits -->
     <defs>
      <path d="M 44.28125 53.078125 
L 44.28125 44.578125 
Q 40.484375 46.53125 36.375 47.5 
Q 32.28125 48.484375 27.875 48.484375 
Q 21.1875 48.484375 17.84375 46.4375 
Q 14.5 44.390625 14.5 40.28125 
Q 14.5 37.15625 16.890625 35.375 
Q 19.28125 33.59375 26.515625 31.984375 
L 29.59375 31.296875 
Q 39.15625 29.25 43.1875 25.515625 
Q 47.21875 21.78125 47.21875 15.09375 
Q 47.21875 7.46875 41.1875 3.015625 
Q 35.15625 -1.421875 24.609375 -1.421875 
Q 20.21875 -1.421875 15.453125 -0.5625 
Q 10.6875 0.296875 5.421875 2 
L 5.421875 11.28125 
Q 10.40625 8.6875 15.234375 7.390625 
Q 20.0625 6.109375 24.8125 6.109375 
Q 31.15625 6.109375 34.5625 8.28125 
Q 37.984375 10.453125 37.984375 14.40625 
Q 37.984375 18.0625 35.515625 20.015625 
Q 33.0625 21.96875 24.703125 23.78125 
L 21.578125 24.515625 
Q 13.234375 26.265625 9.515625 29.90625 
Q 5.8125 33.546875 5.8125 39.890625 
Q 5.8125 47.609375 11.28125 51.796875 
Q 16.75 56 26.8125 56 
Q 31.78125 56 36.171875 55.265625 
Q 40.578125 54.546875 44.28125 53.078125 
z
" id="DejaVuSans-73"/>
      <path d="M 41.109375 46.296875 
Q 39.59375 47.171875 37.8125 47.578125 
Q 36.03125 48 33.890625 48 
Q 26.265625 48 22.1875 43.046875 
Q 18.109375 38.09375 18.109375 28.8125 
L 18.109375 0 
L 9.078125 0 
L 9.078125 54.6875 
L 18.109375 54.6875 
L 18.109375 46.1875 
Q 20.953125 51.171875 25.484375 53.578125 
Q 30.03125 56 36.53125 56 
Q 37.453125 56 38.578125 55.875 
Q 39.703125 55.765625 41.0625 55.515625 
z
" id="DejaVuSans-72"/>
      <path d="M 2.984375 54.6875 
L 12.5 54.6875 
L 29.59375 8.796875 
L 46.6875 54.6875 
L 56.203125 54.6875 
L 35.6875 0 
L 23.484375 0 
z
" id="DejaVuSans-76"/>
      <path d="M 9.421875 54.6875 
L 18.40625 54.6875 
L 18.40625 0 
L 9.421875 0 
z
M 9.421875 75.984375 
L 18.40625 75.984375 
L 18.40625 64.59375 
L 9.421875 64.59375 
z
" id="DejaVuSans-69"/>
      <path d="M 48.78125 52.59375 
L 48.78125 44.1875 
Q 44.96875 46.296875 41.140625 47.34375 
Q 37.3125 48.390625 33.40625 48.390625 
Q 24.65625 48.390625 19.8125 42.84375 
Q 14.984375 37.3125 14.984375 27.296875 
Q 14.984375 17.28125 19.8125 11.734375 
Q 24.65625 6.203125 33.40625 6.203125 
Q 37.3125 6.203125 41.140625 7.25 
Q 44.96875 8.296875 48.78125 10.40625 
L 48.78125 2.09375 
Q 45.015625 0.34375 40.984375 -0.53125 
Q 36.96875 -1.421875 32.421875 -1.421875 
Q 20.0625 -1.421875 12.78125 6.34375 
Q 5.515625 14.109375 5.515625 27.296875 
Q 5.515625 40.671875 12.859375 48.328125 
Q 20.21875 56 33.015625 56 
Q 37.15625 56 41.109375 55.140625 
Q 45.0625 54.296875 48.78125 52.59375 
z
" id="DejaVuSans-63"/>
      <path id="DejaVuSans-20"/>
      <path d="M 4.203125 54.6875 
L 13.1875 54.6875 
L 24.421875 12.015625 
L 35.59375 54.6875 
L 46.1875 54.6875 
L 57.421875 12.015625 
L 68.609375 54.6875 
L 77.59375 54.6875 
L 63.28125 0 
L 52.6875 0 
L 40.921875 44.828125 
L 29.109375 0 
L 18.5 0 
z
" id="DejaVuSans-77"/>
      <path d="M 9.078125 75.984375 
L 18.109375 75.984375 
L 18.109375 31.109375 
L 44.921875 54.6875 
L 56.390625 54.6875 
L 27.390625 29.109375 
L 57.625 0 
L 45.90625 0 
L 18.109375 26.703125 
L 18.109375 0 
L 9.078125 0 
z
" id="DejaVuSans-6b"/>
      <path d="M 14.796875 27.296875 
Q 14.796875 17.390625 18.875 11.75 
Q 22.953125 6.109375 30.078125 6.109375 
Q 37.203125 6.109375 41.296875 11.75 
Q 45.40625 17.390625 45.40625 27.296875 
Q 45.40625 37.203125 41.296875 42.84375 
Q 37.203125 48.484375 30.078125 48.484375 
Q 22.953125 48.484375 18.875 42.84375 
Q 14.796875 37.203125 14.796875 27.296875 
z
M 45.40625 8.203125 
Q 42.578125 3.328125 38.25 0.953125 
Q 33.9375 -1.421875 27.875 -1.421875 
Q 17.96875 -1.421875 11.734375 6.484375 
Q 5.515625 14.40625 5.515625 27.296875 
Q 5.515625 40.1875 11.734375 48.09375 
Q 17.96875 56 27.875 56 
Q 33.9375 56 38.25 53.625 
Q 42.578125 51.265625 45.40625 46.390625 
L 45.40625 54.6875 
L 54.390625 54.6875 
L 54.390625 -20.796875 
L 45.40625 -20.796875 
z
" id="DejaVuSans-71"/>
     </defs>
     <g style="fill:#666666;" transform="translate(399.457031 673.778437)scale(0.1 -0.1)">
      <use xlink:href="#DejaVuSans-73"/>
      <use x="52.099609" xlink:href="#DejaVuSans-65"/>
      <use x="113.623047" xlink:href="#DejaVuSans-72"/>
      <use x="154.736328" xlink:href="#DejaVuSans-76"/>
      <use x="213.916016" xlink:href="#DejaVuSans-69"/>
      <use x="241.699219" xlink:href="#DejaVuSans-63"/>
      <use x="296.679688" xlink:href="#DejaVuSans-65"/>
      <use x="358.203125" xlink:href="#DejaVuSans-20"/>
      <use x="389.990234" xlink:href="#DejaVuSans-77"/>
      <use x="471.777344" xlink:href="#DejaVuSans-6f"/>
      <use x="532.958984" xlink:href="#DejaVuSans-72"/>
      <use x="574.072266" xlink:href="#DejaVuSans-6b"/>
      <use x="631.982422" xlink:href="#DejaVuSans-20"/>
      <use x="663.769531" xlink:href="#DejaVuSans-71"/>
      <use x="727.246094" xlink:href="#DejaVuSans-75"/>
      <use x="790.625" xlink:href="#DejaVuSans-69"/>
      <use x="818.408203" xlink:href="#DejaVuSans-74"/>
      <use x="857.617188" xlink:href="#DejaVuSans-73"/>
     </g>
    </g>
   </g>
  </g>
 </g>
 <defs>
  <clipPath id="paba2a50a16">
   <rect height="543.6" width="558" x="90" y="86.4"/>
  </clipPath>
 </defs>
</svg>
